<svg version="1.1" xmlns="http://www.w3.org/2000/svg" xmlns:xlink="http://www.w3.org/1999/xlink" width="39.12054" height="50.85865" viewBox="0,0,39.12054,50.85865"><defs><linearGradient x1="242.74989" y1="157.18005" x2="242.74989" y2="204.37737" gradientUnits="userSpaceOnUse" id="color-1"><stop offset="0" stop-color="#fdf4d4"/><stop offset="1" stop-color="#ffc549"/></linearGradient></defs><g transform="translate(-220.87945,-154.6563)"><g data-paper-data="{&quot;isPaintingLayer&quot;:true}" fill-rule="nonzero" stroke="none" stroke-linecap="butt" stroke-linejoin="miter" stroke-miterlimit="10" stroke-dasharray="" stroke-dashoffset="0" style="mix-blend-mode: normal"><path d="M256.29128,181.11656c6.14144,4.97011 1.1303,19.21946 -1.85031,19.21946c-0.38764,0 -0.31302,2.67001 -2.29606,2.47499c-2.18351,-0.21473 -5.40048,1.32881 -8.58397,1.48476c-5.47323,0.26812 -10.4409,-1.14048 -14.89806,-1.86851c-0.21637,-0.03534 -1.29551,-1.94407 -1.50519,-1.97308c-3.33847,-0.4619 -4.12567,-4.84845 -4.09944,-4.93408c0.25711,-0.83964 -2.09505,-1.15054 -0.51303,-3.21861c1.39484,-1.82338 2.3388,-3.31048 4.69885,-5.66729c0.35376,-0.35327 3.13852,-1.55 5.17894,0.57408c1.7874,1.86068 2.99009,5.64218 5.24065,7.08747c2.43394,1.56306 6.52468,1.06787 6.89366,0.73055c1.22031,-1.11563 3.59454,-6.61583 1.27102,-8.66265c-1.69392,-1.4922 -5.70585,-0.85071 -8.42316,-1.64162c-2.99411,-0.87148 -4.63272,-3.17302 -4.80677,-4.92685c-0.14728,-1.48408 0.73234,-3.61508 2.90084,-4.42452c2.26242,-0.8445 5.86392,-0.35267 8.01956,-1.22099c1.63149,-0.65718 2.84815,-2.78264 3.06836,-3.18559c1.27538,-2.33376 -4.34719,-4.86931 -6.53202,-4.97122c-0.8513,-2.48504 -7.44612,9.472 -8.99769,8.38537c-6.54056,0.54446 -10.65762,-7.72129 -9.03788,-8.4023c0.12513,-0.05261 4.14015,-5.81866 9.98303,-8.30604c4.10749,-1.74861 10.65141,-0.48983 10.74728,-0.48983c1.97935,0 10.77226,-0.46549 12.15669,4.42562c0.51966,1.83594 4.29777,6.96371 3.9355,9.57467c-0.288,2.0757 -4.90351,7.50984 -4.90351,7.50984c0,0 0.19967,0.68397 2.3527,2.42637z" fill="url(#color-1)" stroke-width="0"/><path d="M260,185.68v7.59c-1.05334,5.21334 -3.72667,8.54 -8.02,9.98c-1.02,0.34 -1.79333,0.65333 -2.32,0.94c-0.28,0.14667 -0.58,0.23333 -0.9,0.26c-1.72,0.15 -2.96,0.99 -4.62,1.02c-5.42,0.07 -9.75,0.35 -15.36,-2.18c-1.9,-0.86 -3.41,-1.93666 -4.53,-3.23c-3.11,-3.59 -5.77,-11.25 0.17,-13.95c3.25333,-1.47333 6.18,-1.1 8.78,1.12c1.73,1.48 2.1,4.14 3.84,5.38c2.6,1.85333 5.17667,1.60333 7.73,-0.75c0.29334,-0.27334 0.43666,-0.61 0.43,-1.01l-0.09,-2.85c-0.02715,-0.95486 -0.81937,-1.71146 -1.78,-1.7c-2.10666,0.02667 -4.12,0.02667 -6.04,0c-3.64,-0.04 -6.87,-4.37 -6.19,-7.89c0.07333,-0.38 0.26667,-0.68333 0.58,-0.91c0.35333,-0.25333 0.54,-0.58667 0.56,-1c0.00626,-0.18231 -0.07995,-0.35547 -0.22921,-0.46035c-0.14926,-0.10488 -0.34138,-0.12732 -0.51079,-0.05965c-0.63333,0.25333 -1.29,0.34333 -1.97,0.27c-0.34,-0.04 -0.66333,-0.14334 -0.97,-0.31c-1.12,-0.6 -2.29,-0.71 -3.27,-1.27c-3.76,-2.15 -6.88,-8.56 -1.41,-10.87c0.3,-0.12667 0.51667,-0.33667 0.65,-0.63c3.32,-7.37 13.17,-9.75 20.44,-7.93c1.33,0.33 2.81,0.37 3.99,0.85c9.11,3.69 13.91,14.11 7.34,22.5c-0.20666,0.26666 -0.22334,0.54333 -0.05,0.83zM234.25,168.33c1.29334,-1.92667 2.54,-3.05 3.74,-3.37c3.68,-0.97 8.69,0.01 9.69,4.33c1.54,6.74 -5.85,6.97 -10.16,7.45c-4.49,0.5 -4.51,6.37 0.24,6.72c2.24,0.16 6.88,-0.11 8.64,1.05c2.85,1.89 2.33,6.31 0.79,9.07c-2.42,2.88 -4.39,2.86 -7.49,2.84c-4.06,-0.02 -5.56,-2.26 -7.31,-5.7c-1.26,-2.47333 -3.23,-3.24 -5.91,-2.3c-4.75,1.68 -1.46,8.55 0.76,10.77c4.85,4.84 18.5,3.99 23.89,2.16c3.02667,-1.02667 5.09,-3.62666 6.19,-7.8c1.42,-6.5 -0.22,-10.56 -6.08,-13.79c-0.17332,-0.09497 -0.2794,-0.27848 -0.27519,-0.47607c0.00421,-0.19759 0.11799,-0.37642 0.29519,-0.46393c4.5,-2.23334 6.14,-5.97666 4.92,-11.23c-3.41,-11.96 -24.5,-13.93 -29.55,-2.53c-0.1292,0.28328 -0.35726,0.50778 -0.64,0.63c-6.79,2.95 5.47,13.61 8.26,2.64zM238.86,167.83c-0.75333,0.16666 -1.30334,0.59333 -1.65,1.28l-2.12,4.18c-0.10464,0.20461 -0.0854,0.45067 0.04977,0.63653c0.13517,0.18586 0.36333,0.27997 0.59023,0.24347l7.17,-1.1c1.24551,-0.19236 2.19452,-1.22426 2.29,-2.49c0.24,-3.55 -4.14,-3.25 -6.33,-2.75z" fill="#9e6324" stroke-width="1"/></g></g></svg>