<svg version="1.1" xmlns="http://www.w3.org/2000/svg" xmlns:xlink="http://www.w3.org/1999/xlink" width="89.34528" height="100.92493" viewBox="0,0,89.34528,100.92493"><defs><radialGradient cx="209.13428" cy="149.13428" r="42.92264" gradientUnits="userSpaceOnUse" id="color-1"><stop offset="0" stop-color="#f9ee70"/><stop offset="1" stop-color="#f1b80c"/></radialGradient></defs><g transform="translate(-195.32736,-123.74772)"><g data-paper-data="{&quot;isPaintingLayer&quot;:true}" fill-rule="nonzero" stroke-linecap="butt" stroke-linejoin="miter" stroke-miterlimit="10" stroke-dasharray="" stroke-dashoffset="0" style="mix-blend-mode: normal"><path d="M214.89019,145.11588c1.36669,-1.16372 2.88223,-1.86397 4.24215,-2.87208c1.24265,-0.9224 2.44471,-1.52907 3.60618,-1.82c1.24265,-0.31123 2.05342,-0.77243 2.4323,-1.38361" fill="none" stroke="#fcf272" stroke-width="2"/><path d="M198.9432,168.1196c0.04511,-0.47361 0.18154,-1.01036 0.40933,-1.61026c1.95532,-5.12509 4.41468,-10.06413 7.99041,-14.20818c2.31616,-2.68151 4.83191,-5.0766 7.54725,-7.18528" fill="none" stroke="#fdf59f" stroke-width="2"/><path d="M197.95539,188.07195c-0.31348,-5.63817 -0.20861,-11.26618 0.31461,-16.88406c0.10148,-1.07576 0.39242,-2.02636 0.6732,-3.06829" fill="none" stroke="#fcf272" stroke-width="2"/><path d="M197.95539,188.07195l0.82205,3.31524" fill="none" stroke="#fbe670" stroke-width="2"/><path d="M256.84154,139.43938l-2.23948,-0.67997" fill="none" stroke="#9aa108" stroke-width="2"/><path d="M227.86023,138.33655c-1.3261,-1.34188 -2.94764,-2.01508 -4.86461,-2.01959c-0.22406,-0.00205 -0.43479,-0.1068 -0.57171,-0.28416c-0.24808,-0.32476 -0.15561,-0.60103 0.2774,-0.82881c3.0074,-1.59673 7.6758,-3.22391 11.36316,-2.12446c0.10339,0.02958 0.21439,-0.00655 0.28057,-0.09131c0.06618,-0.08477 0.07429,-0.20121 0.02051,-0.29433c-1.39375,-2.37479 -3.05927,-4.40341 -4.99654,-6.08584c-0.05412,-0.04736 -0.09585,-0.10261 -0.12516,-0.16576c-0.06089,-0.12855 -0.09134,-0.19508 -0.09134,-0.19959c-0.07668,-0.3428 0.05976,-0.51307 0.40933,-0.51082c1.37346,0.00902 2.74015,0.13983 4.10008,0.39242c2.95327,0.54803 5.54457,2.06019 7.86862,3.90725c0.07234,0.05704 0.17579,0.05421 0.24695,-0.00677c2.10078,-1.81662 4.62442,-3.27465 7.38487,-3.78208c1.48847,-0.27402 2.97695,-0.69011 4.49249,-0.49052c0.1183,0.01561 0.21908,0.09361 0.26389,0.20421c0.0448,0.1106 0.02671,0.23675 -0.04738,0.33029c-1.17725,1.47494 -2.61499,2.65558 -3.64339,4.23877c-0.5142,0.79385 -1.05208,1.54824 -1.61364,2.26316c-0.04666,0.0617 -0.04939,0.14609 -0.00684,0.21068c0.04255,0.06459 0.12118,0.09538 0.19628,0.07686c2.31729,-0.58524 4.2726,-0.48375 6.6474,0.18606c1.81324,0.5142 3.70766,0.92353 5.18599,2.17182c0.15412,0.13363 0.18464,0.36036 0.07104,0.52774c-0.11953,0.17591 -0.33152,0.27289 -0.63598,0.29093c-2.03876,0.12179 -3.86214,0.95736 -5.47015,2.50673" fill="none" stroke="#7cbd1a" stroke-width="2"/><path d="M227.86023,138.33655c-0.98329,0.6856 -1.87977,0.92015 -2.68941,0.70365" fill="none" stroke="#9ebc07" stroke-width="2"/><path d="M254.60206,138.75941c-0.106,0 -0.18042,-0.04172 -0.22327,-0.12516" fill="none" stroke="#d2d322" stroke-width="2"/><path d="M227.86023,138.33655c0.98555,-0.0654 2.0241,-0.23793 3.11565,-0.51758c4.26245,-1.09944 8.3287,-1.55952 12.73323,-1.41067c2.93297,0.09472 6.01141,1.06223 8.98498,1.65085c0.60892,0.12179 1.17048,0.31348 1.68469,0.5751" fill="none" stroke="#d6ee21" stroke-width="2"/><path d="M243.39451,188.96165c-0.13532,0.42174 0.09472,0.78821 0.69011,1.09944c1.09944,0.57509 2.27331,0.95736 3.32539,1.56966c2.53041,1.46818 5.09465,1.90457 7.66565,2.89238c0.98442,0.37888 2.12785,0.39241 2.93974,0.69349c1.95193,0.72394 4.0155,0.56156 6.09599,1.5426c0.23229,0.11051 0.63824,0.17253 1.21784,0.18606c2.03989,0.04736 3.84297,-2.91944 4.81725,-4.24554c0.43526,-0.59314 1.08704,-1.34865 1.95532,-2.26655c0.857,-0.90661 1.44788,-1.72415 1.77264,-2.4526c0.39467,-0.89083 0.93593,-1.68581 1.62379,-2.38494c0.0594,-0.06185 0.15384,-0.07405 0.22701,-0.02934c0.07317,0.04472 0.10539,0.13431 0.07745,0.21539c-0.64501,1.9508 -1.31256,3.92642 -2.00268,5.92684c-0.5999,1.7343 -1.57869,3.45507 -2.93636,5.16231c-1.00134,1.25844 -1.069,3.6603 -2.99387,4.00874c-1.29227,0.23342 -2.06695,0.59539 -3.03784,1.62717c-0.59088,0.63147 -1.23927,1.18965 -1.94517,1.67454c-1.23814,0.84798 -1.99027,1.37797 -2.25639,1.58996c-1.15244,0.92692 -2.03651,1.56402 -2.65219,1.91134c-3.11904,1.77038 -6.25724,3.48664 -9.41461,5.14877c-0.10512,0.05566 -0.1664,0.16914 -0.1553,0.28757c0.0111,0.11844 0.09241,0.21854 0.20605,0.25369l2.4323,0.72056c0.09415,0.02825 0.16734,0.10263 0.19407,0.19722c0.02673,0.09459 0.0033,0.19627 -0.06214,0.26962c-0.3879,0.43075 -0.89422,0.7307 -1.51892,0.89985c-2.28459,0.62697 -4.89392,0.82881 -7.82803,0.60554c-1.38022,-0.10148 -3.07844,0.73409 -4.23201,0.95398c-2.31391,0.44203 -4.64585,0.62358 -6.99584,0.54465c-1.87074,-0.06089 -3.82268,-0.67658 -5.72049,-1.08929c-0.06713,-0.01467 -0.12169,-0.0634 -0.14384,-0.12845c-0.02215,-0.06505 -0.00864,-0.13695 0.0356,-0.18954c0.02481,-0.02706 0.07329,-0.05638 0.14546,-0.08795c0.04962,-0.0203 0.10713,-0.03045 0.17253,-0.03045c1.11297,0.01692 2.14814,0.13193 3.24758,-0.05751c1.85608,-0.32025 3.71104,-0.63824 5.56487,-0.95398c0.56494,-0.09472 1.55614,-0.05413 2.25301,-0.38227c0.09924,-0.04814 0.15934,-0.15169 0.1519,-0.26174c-0.00743,-0.11005 -0.08091,-0.20458 -0.18573,-0.23893c-2.45147,-0.78032 -4.89393,-1.59447 -7.32736,-2.44245c-1.98915,-0.69011 -3.83058,-1.45239 -5.52428,-2.28684c-1.79294,-0.88406 -3.56445,-1.80873 -5.31454,-2.77398c-2.4932,-1.37684 -4.82063,-3.21375 -7.18866,-4.91873c-0.14659,-0.106 -0.50519,-0.23906 -1.07577,-0.39919c-0.52548,-0.14659 -1.55839,-0.08232 -3.09874,0.19283" fill="none" stroke="#f7e10c" stroke-width="2"/><path d="M247.96481,185.70053c-0.24582,0.33603 -0.57058,0.90661 -0.97428,1.71175c-0.50405,1.00134 -2.53041,1.20432 -3.59602,1.54937" fill="none" stroke="#e0b507" stroke-width="2"/><path d="M259.83879,165.97484c0.48488,0.03608 0.94496,-0.03608 1.38022,-0.2165c0.10177,-0.0412 0.21516,-0.03998 0.31461,0.00338c1.03855,0.43639 2.22595,0.97766 2.9093,0.02706c0.52773,-0.73296 1.01261,-1.33624 1.45465,-1.80985c0.92353,-0.99119 1.31933,-2.13123 2.07372,-3.20699c0.4037,-0.57509 0.74536,-1.17838 1.02502,-1.80985c0.49842,-1.12764 1.12087,-2.1955 1.86736,-3.20361c0.12218,-0.16629 0.31808,-0.2621 0.52488,-0.25671c0.2068,0.00539 0.39852,0.11129 0.51368,0.28377c0.60554,0.91338 0.93367,2.08387 0.31122,3.12242c-1.04193,1.72866 -1.82338,3.36937 -3.03784,5.14539c-0.8322,1.21559 -1.53246,2.51237 -2.10078,3.89033c-0.0355,0.08472 -0.02731,0.18144 0.02191,0.25899c0.04922,0.07755 0.13327,0.12612 0.22504,0.13005l2.26993,0.11164c0.01779,0.00001 0.03748,0.00464 0.05751,0.01353c1.66664,0.75326 3.41786,1.07463 5.25364,0.96412c1.66101,-0.09811 1.96208,2.45937 1.76587,3.45394c-0.07443,0.38114 -0.3022,0.53337 -0.68334,0.45669c-1.56065,-0.31348 -3.09085,-0.61794 -4.5906,-0.91338c-2.09063,-0.41271 -3.80238,-1.20093 -5.64606,-2.11432c-0.6529,-0.32138 -1.22799,-0.27739 -1.67792,0.2774c-1.71175,2.12108 -4.16773,4.35041 -5.46677,5.68327c-1.79294,1.84481 -3.746,3.6603 -5.85918,5.44647c-2.17859,1.84255 -3.77193,3.17203 -4.78004,3.98844" fill="none" stroke="#f7e10c" stroke-width="2"/><path d="M260.96191,168.24477c-1.40278,0.3879 -2.79991,0.86151 -4.19141,1.42082c-2.87546,1.16033 -2.2564,4.66164 -4.70223,5.42617c-0.10961,0.03513 -0.22644,0.03275 -0.33152,-0.00676c-1.95193,-0.71379 -1.36669,-3.29156 -0.54803,-4.59398c2.04101,-3.23631 4.92438,-4.7417 8.65008,-4.51617" fill="none" stroke="#e0b507" stroke-width="2"/><path d="M260.96191,168.24477c0.14659,-0.2571 0.31461,-0.2571 0.50405,0c0.6732,0.91 -1.75911,2.71309 -2.50673,3.35922c-0.36987,0.32025 -0.69688,0.73747 -0.98104,1.25167c-0.86151,1.5629 -2.01846,2.74805 -3.47086,3.55543c-1.17725,0.6529 -1.94178,1.59334 -2.73677,2.20227c-1.069,0.82205 -1.60011,1.2652 -2.13799,2.54394c-0.13306,0.31574 -0.30108,0.53337 -0.50406,0.6529c-0.26387,0.15561 -0.5469,0.23229 -0.84911,0.23003" fill="none" stroke="#f7e10c" stroke-width="2"/><path d="M235.43454,188.57938c-1.42758,-0.50067 -2.47854,-1.45803 -3.15286,-2.87209c-0.6123,-1.27874 -0.22327,-4.26583 -0.15223,-5.73401c0.00451,-0.11727 -0.04623,-0.20072 -0.15223,-0.25034c-1.0284,-0.46346 -1.90457,-1.27536 -1.55613,-2.5135c0.03273,-0.11978 0.11131,-0.22375 0.21989,-0.29093c0.69688,-0.43075 1.31708,-0.36084 1.8606,0.20974c0.09472,0.10148 0.21199,0.16351 0.35182,0.18606c2.21016,0.36084 4.17112,-0.29318 5.88286,-1.96208c0.71041,-0.69237 1.44901,-0.82091 2.2158,-0.38565c0.15336,0.0857 0.49616,0.43978 1.0284,1.06223c0.93368,1.08929 2.01283,1.20431 3.47086,0.91c1.08929,-0.22102 2.19211,-0.34393 3.30847,-0.36874c0.11118,-0.00218 0.22038,0.03622 0.30784,0.10825c1.57643,1.34301 0.12179,2.78074 -1.30918,3.13256c-0.09995,0.02423 -0.17994,0.09877 -0.2116,0.19717c-0.03165,0.0984 -0.01049,0.20674 0.05598,0.28659c0.38565,0.45556 0.61118,1.03742 0.67658,1.74557" fill="none" stroke="#e0b507" stroke-width="2"/><path d="M235.43454,188.57938c0.16915,0.37212 0.12066,0.72957 -0.14547,1.07238c-0.50067,0.64613 -2.32405,1.01149 -3.11227,1.22461c-0.48037,0.12855 -0.96299,0.3552 -1.44788,0.67996c-1.14342,0.76679 -2.40186,1.27987 -3.77532,1.53922c-0.08344,0.01579 -0.15674,0.053 -0.21989,0.11164c-0.1184,0.10825 -0.16915,0.14885 -0.33491,0.18944c-1.34639,0.31799 -2.40524,1.20431 -3.55205,1.56966c-1.07351,0.3428 -2.15942,0.63599 -3.25773,0.87956c-1.03517,0.23004 -2.12108,0.50406 -3.25773,0.82205c-1.86285,0.52322 -3.76855,0.88406 -5.7171,1.08252c-0.11276,0.01128 -0.21087,-0.02255 -0.29431,-0.10148c-1.11861,-1.08253 -2.22031,-2.1831 -3.30509,-3.30171c-0.6123,-0.6326 -0.86602,-1.23138 -1.24491,-1.99591c-0.2368,-0.47811 -0.55254,-0.97427 -0.94721,-1.48847c-1.05095,-1.3712 -1.79294,-2.89464 -2.22595,-4.5703c-0.11502,-0.4488 -0.28416,-0.8976 -0.50743,-1.34639c-0.21651,-0.43526 -0.40144,-0.88294 -0.55479,-1.34301c-0.07217,-0.22327 -0.20749,-0.3879 -0.40595,-0.4939c-0.09923,-0.05187 -0.15674,-0.13419 -0.17253,-0.24695c-0.08796,-0.69462 -0.30447,-1.3588 -0.64952,-1.99253c-0.0406,-0.07217 -0.08231,-0.07217 -0.12516,0c-0.08119,0.13983 -0.1387,0.29318 -0.17253,0.46007c0.03834,-0.09247 0.02593,-0.16464 -0.03721,-0.21651c-0.04736,-0.03834 -0.0733,-0.02593 -0.07781,0.03721l-0.23342,3.59941c-0.00902,0.1308 -0.06202,0.23906 -0.159,0.32476c-0.48262,0.42625 -0.80175,0.95849 -0.95736,1.59673c-0.02932,0.11727 -0.09472,0.20861 -0.19621,0.27402c-0.30446,0.20072 -0.43527,0.57622 -0.39242,1.12651" fill="none" stroke="#f7e10c" stroke-width="2"/><path d="M226.07068,172.196c-0.25259,0.2774 -0.57396,0.43865 -0.96412,0.48375c-0.11051,0.01353 -0.18268,0.0733 -0.21651,0.17929c-0.0778,0.24019 -0.19959,0.38226 -0.47361,0.40594c-0.7916,0.07104 -1.48509,0.11164 -2.31729,0.28078c-2.13123,0.43301 -4.23427,0.29994 -6.30911,-0.39919c-0.10825,-0.03608 -0.21764,-0.03947 -0.32815,-0.01015c-0.70139,0.1917 -1.37007,0.053 -2.00606,-0.4161c-0.02932,-0.02255 -0.04172,-0.05751 -0.03721,-0.10487c0.00676,-0.06766 -0.02143,-0.11389 -0.08457,-0.1387l-3.90725,-1.6035c-0.11502,-0.04736 -0.2244,-0.03608 -0.32814,0.03383c-0.12855,0.08796 -0.25484,0.07555 -0.37888,-0.03721c-0.06991,-0.06315 -0.08006,-0.13419 -0.03045,-0.21312c0.04736,-0.07443 0.03045,-0.12968 -0.05074,-0.16576c-0.29318,-0.13532 -0.83783,-0.35633 -1.63394,-0.66305c-0.45106,-0.17591 -0.97202,-0.43978 -1.5629,-0.7916c-0.79611,-0.47361 -1.63394,-0.86489 -2.5135,-1.17387c-0.20974,-0.07217 -0.34168,-0.17253 -0.3958,-0.30108c-0.07668,-0.16915 -0.06202,-0.35295 0.04398,-0.55141c0.00225,-0.00225 -0.00451,-0.01015 -0.0203,-0.02368c-0.01353,-0.00902 -0.01917,-0.0124 -0.01691,-0.01015c0.00225,0.00451 0.00338,0.00789 0.00338,0.01015c-0.33603,0.77581 -0.63598,1.56741 -0.89985,2.37479c-0.0406,0.12404 -0.11051,0.14321 -0.20974,0.05751c-0.07893,-0.06766 -0.1387,-0.14998 -0.17929,-0.24695c-0.02481,-0.05864 -0.06766,-0.10148 -0.12855,-0.12855l-2.18197,-0.92353" fill="none" stroke="#faf03b" stroke-width="2"/><path d="M227.55915,168.5154c1.25619,1.03517 2.02974,2.27669 2.32067,3.72457c0.27063,1.35654 -0.01014,2.64542 -1.61364,2.75706c-1.62379,0.11164 -1.57305,-1.74219 -2.1955,-2.80104" fill="none" stroke="#e0b507" stroke-width="2"/><path d="M234.2573,151.48588c-0.14659,0.97653 -0.0406,1.88089 0.31799,2.71309c0.04511,0.106 0.06089,0.21538 0.04736,0.32814c-0.06766,0.65629 -0.08232,1.3058 -0.04398,1.94855c0.02932,0.46459 -0.00225,0.9506 -0.09472,1.45803c-0.12179,0.67658 -0.06089,1.30241 -0.35858,1.92148c-1.17725,2.44696 -2.57552,4.76313 -4.1948,6.94848c-0.06991,0.09698 -0.16238,0.12743 -0.2774,0.09134c-0.02932,-0.00902 -0.05863,-0.02369 -0.08795,-0.04398c-0.03608,-0.02706 -0.06879,-0.02368 -0.09811,0.01015l-0.88293,1.00811c-0.07217,0.08344 -0.12179,0.17816 -0.14885,0.28416c-0.07668,0.2977 -0.36874,0.41835 -0.87617,0.36197" fill="none" stroke="#faf03b" stroke-width="2"/><path d="M226.39205,145.28841c2.21242,-0.59539 4.1948,-1.64747 6.47487,-1.85045c2.21242,-0.19621 3.76517,0.90662 4.18127,3.11565c0.40595,2.14814 -0.37212,4.4316 -2.79089,4.93227" fill="none" stroke="#faf35e" stroke-width="2"/><path d="M226.39205,145.28841c-2.66121,0.01128 -5.35175,0.08683 -8.0716,0.22666c-0.68334,0.03383 -1.82676,-0.09924 -3.43026,-0.39919" fill="none" stroke="#faf03b" stroke-width="2"/><path d="M248.27942,182.04023l-0.31461,3.6603" fill="none" stroke="#dfa905" stroke-width="2"/><path d="M259.83879,165.97484c1.04644,0.61343 1.42082,1.37008 1.12312,2.26993" fill="none" stroke="#dfa905" stroke-width="2"/><path d="M226.07068,172.196c-1.31595,-2.67249 -3.82606,-3.10212 -6.3294,-3.72119c-0.10288,-0.02557 -0.19046,-0.09587 -0.24019,-0.19283c-0.80513,-1.57305 0.64952,-2.3342 1.95532,-2.3342c2.40186,-0.00451 4.43611,0.85136 6.10275,2.56762" fill="none" stroke="#e1b734" stroke-width="2"/><path d="M234.2573,151.48588c-1.77489,0.35859 -3.51484,0.72845 -5.21982,1.10959c-1.48847,0.33152 -2.89238,0.33491 -4.37409,0.32138c-0.52998,-0.00451 -0.95398,-0.26499 -1.27197,-0.78145c-0.92466,-1.48847 -0.87053,-2.86757 0.16238,-4.13728c1.05095,-1.29001 1.99704,-2.19324 2.83825,-2.7097" fill="none" stroke="#fcf58b" stroke-width="2"/><path d="M243.39451,188.96165c-1.87413,0.14208 -3.77532,0.1838 -5.70357,0.12516c-0.82881,-0.02706 -1.46818,-0.28078 -2.25639,-0.50743" fill="none" stroke="#dfa905" stroke-width="2"/><path d="M218.36409,155.81586l0.0591,1.87995c0.02834,0.90195 -0.67986,1.6561 -1.58181,1.68445l-1.72443,0.05419c-0.90195,0.02834 -1.6561,-0.67986 -1.68445,-1.58181l-0.0591,-1.87995c-0.02834,-0.90195 0.67986,-1.6561 1.58181,-1.68445l1.72443,-0.0542c0.90195,-0.02834 1.6561,0.67986 1.68445,1.58181" fill="none" stroke="#fcf58b" stroke-width="2"/><path d="M240.63068,178.86031c0.05187,0.10825 0.12968,0.19395 0.23342,0.2571c1.02615,0.63147 1.82677,1.00923 2.40186,1.13327c0.66305,0.14208 1.09493,0.45669 1.29565,0.94383c0.42286,1.01487 0.66643,2.87884 -0.21989,3.83959c-1.0487,1.13327 -5.36867,1.02841 -6.80302,0.89309c-0.5999,-0.05864 -1.04983,-0.21989 -1.34978,-0.48375c-1.19755,-1.05547 -0.6529,-3.35246 -0.54126,-4.79357c0.00874,-0.11635 0.07448,-0.22129 0.17591,-0.28078c1.28212,-0.74762 2.64205,-0.76115 4.02565,-1.87751c0.08388,-0.06946 0.1975,-0.09116 0.30108,-0.05751c0.21876,0.06991 0.37888,0.21199 0.48037,0.42625" fill="none" stroke="#e3be80" stroke-width="2"/><path d="M231.19577,209.33348c-1.9666,-0.36535 -3.83057,-1.00924 -5.59193,-1.93164c-0.82092,-0.43075 -1.63733,-0.79498 -2.44922,-1.09268c-3.32539,-1.21446 -6.41397,-3.37952 -9.36725,-5.30777c-0.07694,-0.04865 -0.12428,-0.13263 -0.12631,-0.22416c-0.00203,-0.09153 0.04149,-0.17865 0.11616,-0.23253c1.53922,-1.11297 3.59602,-0.63598 5.21981,-1.25167c1.76362,-0.66981 3.55092,-1.27423 5.3619,-1.81324c1.5223,-0.45331 2.75368,-1.45803 4.24554,-1.80985c3.28141,-0.77807 6.24822,-2.57101 9.29959,-3.97491c0.65177,-0.29995 1.32159,-0.46797 2.00945,-0.50406c0.48939,-0.02481 1.01036,0.11953 1.5629,0.43301c2.01396,1.14793 4.00535,2.32066 5.9742,3.51821c0.97089,0.58862 2.43569,0.72056 3.48439,1.1671c1.77489,0.75552 3.60166,1.3385 5.4803,1.74896c0.11502,0.02481 1.04306,0.23455 2.78413,0.62922c0.96525,0.21876 1.94742,0.37325 2.94651,0.46346c0.14384,0.01257 0.27552,0.08582 0.36205,0.20141c0.08653,0.11559 0.11972,0.26257 0.09126,0.40413c-0.31799,1.58658 -1.66438,1.58996 -2.65557,2.51349c-1.61702,1.50878 -3.66707,3.31186 -5.7577,4.3335c-2.99725,1.46818 -5.8355,3.15624 -8.89026,4.51955c-0.84121,0.37663 -1.70611,0.64839 -2.59469,0.81528c-0.64726,0.12404 -1.38474,0.0981 -2.21242,-0.07781c-1.74332,-0.36535 -3.48439,-0.7183 -5.2232,-1.05884c-1.50878,-0.2977 -2.60821,-1.19755 -4.06963,-1.46818" fill="none" stroke="#f7e10c" stroke-width="2"/><path d="M232.84663,123.90171c1.65537,0.0203 3.2115,0.33378 4.6684,0.94045c1.23138,0.5142 2.5338,1.59673 3.79562,2.3545c0.19749,0.11884 0.44603,0.10954 0.6326,-0.02368c1.89104,-1.35654 3.32201,-2.52026 5.93699,-2.96342c1.76587,-0.2977 7.29015,-1.17386 8.01747,0.72733c0.98781,2.57777 -1.22461,3.89372 -2.87547,5.2232c-0.08004,0.06365 -0.11256,0.17004 -0.0818,0.26756c0.03076,0.09752 0.11844,0.166 0.22051,0.17222c3.33779,0.19395 6.34745,1.35316 9.02896,3.47763c1.06223,0.83896 1.27648,1.91021 0.64275,3.21375c-0.42286,0.87279 -1.069,1.07915 -2.07372,1.17387c-1.24716,0.11276 -2.55296,0.43752 -3.9174,0.97428l-2.23948,-0.67997c1.60801,-1.54937 3.43139,-2.38494 5.47015,-2.50673c0.30446,-0.01804 0.51645,-0.11502 0.63598,-0.29093c0.1136,-0.16737 0.08308,-0.3941 -0.07104,-0.52774c-1.47833,-1.24829 -3.37275,-1.65762 -5.18599,-2.17182c-2.37479,-0.66981 -4.33011,-0.77131 -6.6474,-0.18606c-0.0751,0.01852 -0.15373,-0.01227 -0.19628,-0.07686c-0.04255,-0.06459 -0.03982,-0.14898 0.00684,-0.21068c0.56156,-0.71492 1.09944,-1.46931 1.61364,-2.26316c1.0284,-1.5832 2.46614,-2.76383 3.64339,-4.23877c0.07409,-0.09355 0.09218,-0.21969 0.04738,-0.33029c-0.0448,-0.1106 -0.14558,-0.18859 -0.26389,-0.20421c-1.51554,-0.19959 -3.00402,0.21651 -4.49249,0.49052c-2.76045,0.50743 -5.28409,1.96546 -7.38487,3.78208c-0.07116,0.06098 -0.17461,0.06381 -0.24695,0.00677c-2.32405,-1.84706 -4.91535,-3.35922 -7.86862,-3.90725c-1.35993,-0.25259 -2.72662,-0.3834 -4.10008,-0.39242c-0.34957,-0.00225 -0.48601,0.16802 -0.40933,0.51082c0,0.00451 0.03044,0.07104 0.09134,0.19959c0.02932,0.06315 0.07104,0.1184 0.12516,0.16576c1.93728,1.68243 3.60279,3.71104 4.99654,6.08584c0.05379,0.09313 0.04567,0.20957 -0.02051,0.29433c-0.06618,0.08477 -0.17718,0.12089 -0.28057,0.09131c-3.68736,-1.09944 -8.35576,0.52774 -11.36316,2.12446c-0.43301,0.22779 -0.52548,0.50405 -0.2774,0.82881c0.13692,0.17737 0.34765,0.28211 0.57171,0.28416c1.91697,0.00451 3.53851,0.67771 4.86461,2.01959c-0.98329,0.6856 -1.87977,0.92015 -2.68941,0.70365l-4.28952,-0.94383c-0.11984,-0.02832 -0.22465,-0.0994 -0.29431,-0.19959c-0.72394,-1.06448 -0.83783,-2.18084 -0.34167,-3.34907c0.04846,-0.11657 0.13253,-0.21484 0.24019,-0.28078c0.64501,-0.39467 1.27761,-0.79837 1.89781,-1.21108c2.14476,-1.4242 4.63795,-2.19212 7.18528,-2.48305c0.1308,-0.01579 0.21876,-0.04849 0.26386,-0.09811c0.1126,-0.1243 0.11114,-0.31488 -0.00338,-0.43978c-0.65629,-0.7059 -1.3712,-1.36217 -2.14476,-1.96884c-0.55931,-0.43752 -0.84234,-1.07013 -0.84911,-1.89781c-0.00902,-1.29678 0.68559,-2.05793 2.08386,-2.28346z" fill="#448a00" stroke="none" stroke-width="1"/><path d="M254.60206,138.75941c-0.106,0 -0.18042,-0.04172 -0.22327,-0.12516c-0.5142,-0.26161 -1.07576,-0.45331 -1.68469,-0.5751c-2.97357,-0.58862 -6.05201,-1.55613 -8.98498,-1.65085c-4.40454,-0.14885 -8.47078,0.31123 -12.73323,1.41067c-1.09155,0.27965 -2.1301,0.45218 -3.11565,0.51758c-1.3261,-1.34188 -2.94764,-2.01508 -4.86461,-2.01959c-0.22406,-0.00205 -0.43479,-0.1068 -0.57171,-0.28416c-0.24808,-0.32476 -0.15561,-0.60103 0.2774,-0.82881c3.0074,-1.59673 7.6758,-3.22391 11.36316,-2.12446c0.10339,0.02958 0.21439,-0.00655 0.28057,-0.09131c0.06618,-0.08477 0.07429,-0.20121 0.02051,-0.29433c-1.39375,-2.37479 -3.05927,-4.40341 -4.99654,-6.08584c-0.05412,-0.04736 -0.09585,-0.10261 -0.12516,-0.16576c-0.06089,-0.12855 -0.09134,-0.19508 -0.09134,-0.19959c-0.07668,-0.3428 0.05976,-0.51307 0.40933,-0.51082c1.37346,0.00902 2.74015,0.13983 4.10008,0.39242c2.95327,0.54803 5.54457,2.06019 7.86862,3.90725c0.07234,0.05704 0.17579,0.05421 0.24695,-0.00677c2.10078,-1.81662 4.62442,-3.27465 7.38487,-3.78208c1.48847,-0.27402 2.97695,-0.69011 4.49249,-0.49052c0.1183,0.01561 0.21908,0.09361 0.26389,0.20421c0.0448,0.1106 0.02671,0.23675 -0.04738,0.33029c-1.17725,1.47494 -2.61499,2.65558 -3.64339,4.23877c-0.5142,0.79385 -1.05208,1.54824 -1.61364,2.26316c-0.04666,0.0617 -0.04939,0.14609 -0.00684,0.21068c0.04255,0.06459 0.12118,0.09538 0.19628,0.07686c2.31729,-0.58524 4.2726,-0.48375 6.6474,0.18606c1.81324,0.5142 3.70766,0.92353 5.18599,2.17182c0.15412,0.13363 0.18464,0.36036 0.07104,0.52774c-0.11953,0.17591 -0.33152,0.27289 -0.63598,0.29093c-2.03876,0.12179 -3.86214,0.95736 -5.47015,2.50673z" fill="#b3ef34" stroke="none" stroke-width="1"/><path d="M254.37879,138.63425c-0.31123,0.07443 -0.56608,0.02593 -0.76454,-0.14547c-0.05864,-0.04962 -0.09811,-0.03721 -0.1184,0.03721l-0.04398,0.17591c-0.0126,0.04676 0.00454,0.09648 0.04328,0.12553c0.03874,0.02906 0.09127,0.03159 0.13263,0.0064c0.05187,-0.02932 0.0936,-0.02706 0.12517,0.00676c0.06089,0.0654 0.04849,0.10938 -0.03721,0.13193l-0.18606,0.04398c-0.12404,0.03157 -0.16125,0.10712 -0.11164,0.22665c0.25259,0.60441 4.54866,1.76411 6.43632,2.75192c1.9587,1.0284 3.67566,2.28578 5.39079,3.75396c1.65424,1.41743 3.14455,1.61499 4.58904,3.16097c0.18103,0.19386 1.50715,1.10267 1.69165,1.29793c1.47036,1.55612 2.44771,4.44427 3.57186,6.12147c1.36444,2.03876 2.98076,4.57784 4.27754,7.33152c0.67884,1.44111 0.74079,2.70293 1.04299,3.78546c0.32138,1.1468 0.94383,2.35111 1.10959,3.29833c0.31799,1.81549 0.13637,4.38199 0.31228,7.69948c0.29995,5.7171 0.01099,11.21769 -2.00972,16.50179c-0.56833,1.49524 -2.43435,3.03108 -3.18874,4.53647c-0.65854,1.31933 -1.28663,2.40975 -1.88428,3.27126c-5.0518,7.28451 -11.69243,12.49306 -19.9219,15.62562c-7.4593,2.84164 -15.89286,3.08182 -23.68368,1.44111c-1.18402,-0.25034 -2.22595,-0.90324 -3.25773,-1.17725c-0.85249,-0.23004 -1.64409,-0.35858 -2.43907,-0.77468c-1.09606,-0.57284 -2.20452,-1.12087 -3.32539,-1.64409c-1.28325,-0.5999 -2.3545,-1.20093 -3.21376,-1.80309c-3.62196,-2.54394 -6.92367,-5.45887 -9.90513,-8.74479c-0.60667,-0.66756 -1.4118,-2.05455 -2.41539,-4.16097c1.54035,-0.27515 2.57326,-0.33942 3.09874,-0.19283c0.57058,0.16012 0.92918,0.29319 1.07577,0.39919c2.36803,1.70498 4.69546,3.54189 7.18866,4.91873c1.75009,0.96525 3.5216,1.88992 5.31454,2.77398c1.6937,0.83445 3.53513,1.59673 5.52428,2.28684c2.43343,0.84798 4.87589,1.66213 7.32736,2.44245c0.10482,0.03435 0.1783,0.12888 0.18573,0.23893c0.00743,0.11005 -0.05266,0.2136 -0.1519,0.26174c-0.69688,0.32814 -1.68807,0.28755 -2.25301,0.38227c-1.85383,0.31574 -3.70879,0.63373 -5.56487,0.95398c-1.09944,0.18944 -2.13461,0.07443 -3.24758,0.05751c-0.0654,0 -0.12292,0.01015 -0.17253,0.03045c-0.07217,0.03157 -0.12065,0.06089 -0.14546,0.08795c-0.04424,0.05259 -0.05774,0.12449 -0.0356,0.18954c0.02215,0.06505 0.07671,0.11378 0.14384,0.12845c1.89781,0.41271 3.84974,1.0284 5.72049,1.08929c2.34999,0.07893 4.68193,-0.10261 6.99584,-0.54465c1.15357,-0.21989 2.85179,-1.05546 4.23201,-0.95398c2.9341,0.22327 5.54344,0.02143 7.82803,-0.60554c0.62471,-0.16915 1.13102,-0.4691 1.51892,-0.89985c0.06544,-0.07335 0.08887,-0.17503 0.06214,-0.26962c-0.02673,-0.09459 -0.09992,-0.16897 -0.19407,-0.19722l-2.4323,-0.72056c-0.11364,-0.03515 -0.19495,-0.13526 -0.20605,-0.25369c-0.0111,-0.11844 0.05018,-0.23191 0.1553,-0.28757c3.15737,-1.66213 6.29558,-3.37839 9.41461,-5.14877c0.61569,-0.34731 1.49975,-0.98442 2.65219,-1.91134c0.26612,-0.21199 1.01825,-0.74198 2.25639,-1.58996c0.7059,-0.48488 1.35429,-1.04306 1.94517,-1.67454c0.97089,-1.03179 1.74557,-1.39375 3.03784,-1.62717c1.92487,-0.34844 1.99253,-2.7503 2.99387,-4.00874c1.35767,-1.70724 2.33646,-3.428 2.93636,-5.16231c0.69011,-2.00042 1.35767,-3.97604 2.00268,-5.92684c0.02794,-0.08108 -0.00427,-0.17068 -0.07745,-0.21539c-0.07317,-0.04472 -0.16761,-0.03251 -0.22701,0.02934c-0.68786,0.69913 -1.22912,1.49411 -1.62379,2.38494c-0.32476,0.72845 -0.91564,1.54599 -1.77264,2.4526c-0.86828,0.91789 -1.52005,1.67341 -1.95532,2.26655c-0.97428,1.3261 -2.77736,4.2929 -4.81725,4.24554c-0.57961,-0.01353 -0.98555,-0.07555 -1.21784,-0.18606c-2.08048,-0.98104 -4.14405,-0.81866 -6.09599,-1.5426c-0.81189,-0.30108 -1.95532,-0.31461 -2.93974,-0.69349c-2.57101,-0.98781 -5.13525,-1.4242 -7.66565,-2.89238c-1.05208,-0.6123 -2.22595,-0.99457 -3.32539,-1.56966c-0.59539,-0.31123 -0.82543,-0.67771 -0.69011,-1.09944c1.06561,-0.34506 3.09197,-0.54804 3.59602,-1.54937c0.4037,-0.80513 0.72846,-1.37571 0.97428,-1.71175c1.00811,-0.81641 2.60145,-2.14588 4.78004,-3.98844c2.11319,-1.78617 4.06624,-3.60166 5.85918,-5.44647c1.29903,-1.33286 3.75502,-3.56219 5.46677,-5.68327c0.44993,-0.55479 1.02502,-0.59878 1.67792,-0.2774c1.84368,0.91338 3.55543,1.7016 5.64606,2.11432c1.49975,0.29544 3.02995,0.5999 4.5906,0.91338c0.38114,0.07668 0.60892,-0.07556 0.68334,-0.45669c0.19621,-0.99457 -0.10487,-3.55205 -1.76587,-3.45394c-1.83579,0.11051 -3.587,-0.21086 -5.25364,-0.96412c-0.02003,-0.00889 -0.03971,-0.01353 -0.05751,-0.01353l-2.26993,-0.11164c-0.09177,-0.00393 -0.17581,-0.0525 -0.22504,-0.13005c-0.04922,-0.07755 -0.05741,-0.17427 -0.02191,-0.25899c0.56833,-1.37797 1.26859,-2.67474 2.10078,-3.89033c1.21446,-1.77602 1.99591,-3.41673 3.03784,-5.14539c0.62245,-1.03855 0.29432,-2.20903 -0.31122,-3.12242c-0.11516,-0.17248 -0.30687,-0.27839 -0.51368,-0.28377c-0.2068,-0.00539 -0.4027,0.09042 -0.52488,0.25671c-0.74649,1.00811 -1.36894,2.07597 -1.86736,3.20361c-0.27965,0.63147 -0.62132,1.23476 -1.02502,1.80985c-0.75439,1.07576 -1.15019,2.2158 -2.07372,3.20699c-0.44203,0.47361 -0.92692,1.07689 -1.45465,1.80985c-0.68334,0.9506 -1.87075,0.40933 -2.9093,-0.02706c-0.09945,-0.04336 -0.21284,-0.04458 -0.31461,-0.00338c-0.43526,0.18042 -0.89534,0.25258 -1.38022,0.2165c-3.7257,-0.22553 -6.60906,1.27987 -8.65008,4.51617c-0.81866,1.30242 -1.4039,3.88019 0.54803,4.59398c0.10508,0.03951 0.22191,0.04189 0.33152,0.00676c2.44583,-0.76453 1.82677,-4.26583 4.70223,-5.42617c1.3915,-0.55931 2.78864,-1.03292 4.19141,-1.42082c0.14659,-0.2571 0.31461,-0.2571 0.50405,0c0.6732,0.91 -1.75911,2.71309 -2.50673,3.35922c-0.36987,0.32025 -0.69688,0.73747 -0.98104,1.25167c-0.86151,1.5629 -2.01846,2.74805 -3.47086,3.55543c-1.17725,0.6529 -1.94178,1.59334 -2.73677,2.20227c-1.069,0.82205 -1.60011,1.2652 -2.13799,2.54394c-0.13306,0.31574 -0.30108,0.53337 -0.50406,0.6529c-0.26387,0.15561 -0.5469,0.23229 -0.84911,0.23003c-0.0654,-0.70815 -0.29093,-1.29001 -0.67658,-1.74557c-0.06647,-0.07985 -0.08764,-0.18819 -0.05598,-0.28659c0.03165,-0.0984 0.11164,-0.17294 0.2116,-0.19717c1.43097,-0.35182 2.88561,-1.78955 1.30918,-3.13256c-0.08746,-0.07203 -0.19666,-0.11043 -0.30784,-0.10825c-1.11636,0.02481 -2.21918,0.14772 -3.30847,0.36874c-1.45803,0.29431 -2.53718,0.17929 -3.47086,-0.91c-0.53224,-0.62245 -0.87504,-0.97653 -1.0284,-1.06223c-0.76679,-0.43526 -1.50539,-0.30672 -2.2158,0.38565c-1.71175,1.6689 -3.6727,2.32292 -5.88286,1.96208c-0.13983,-0.02255 -0.2571,-0.08457 -0.35182,-0.18606c-0.54352,-0.57058 -1.16372,-0.64049 -1.8606,-0.20974c-0.10858,0.06717 -0.18716,0.17114 -0.21989,0.29093c-0.34844,1.23814 0.52773,2.05004 1.55613,2.5135c0.106,0.04962 0.15674,0.13306 0.15223,0.25034c-0.07104,1.46818 -0.46007,4.45528 0.15223,5.73401c0.67433,1.41405 1.72528,2.37141 3.15286,2.87209c0.16915,0.37212 0.12066,0.72957 -0.14547,1.07238c-0.50067,0.64613 -2.32405,1.01149 -3.11227,1.22461c-0.48037,0.12855 -0.96299,0.3552 -1.44788,0.67996c-1.14342,0.76679 -2.40186,1.27987 -3.77532,1.53922c-0.08344,0.01579 -0.15674,0.053 -0.21989,0.11164c-0.1184,0.10825 -0.16915,0.14885 -0.33491,0.18944c-1.34639,0.31799 -2.40524,1.20431 -3.55205,1.56966c-1.07351,0.3428 -2.15942,0.63599 -3.25773,0.87956c-1.03517,0.23004 -2.12108,0.50406 -3.25773,0.82205c-1.86285,0.52322 -3.76855,0.88406 -5.7171,1.08252c-0.11276,0.01128 -0.21087,-0.02255 -0.29431,-0.10148c-1.11861,-1.08253 -2.22031,-2.1831 -3.30509,-3.30171c-0.6123,-0.6326 -0.86602,-1.23138 -1.24491,-1.99591c-0.2368,-0.47811 -0.55254,-0.97427 -0.94721,-1.48847c-1.05095,-1.3712 -1.79294,-2.89464 -2.22595,-4.5703c-0.11502,-0.4488 -0.28416,-0.8976 -0.50743,-1.34639c-0.21651,-0.43526 -0.40144,-0.88294 -0.55479,-1.34301c-0.07217,-0.22327 -0.20749,-0.3879 -0.40595,-0.4939c-0.09923,-0.05187 -0.15674,-0.13419 -0.17253,-0.24695c-0.08796,-0.69462 -0.30447,-1.3588 -0.64952,-1.99253c-0.0406,-0.07217 -0.08231,-0.07217 -0.12516,0c-0.08119,0.13983 -0.1387,0.29318 -0.17253,0.46007c0.03834,-0.09247 0.02593,-0.16464 -0.03721,-0.21651c-0.04736,-0.03834 -0.0733,-0.02593 -0.07781,0.03721l-0.23342,3.59941c-0.00902,0.1308 -0.06202,0.23906 -0.159,0.32476c-0.48262,0.42625 -0.80175,0.95849 -0.95736,1.59673c-0.02932,0.11727 -0.09472,0.20861 -0.19621,0.27402c-0.30446,0.20072 -0.43527,0.57622 -0.39242,1.12651c-0.31348,-5.63817 -0.20861,-11.26618 0.31461,-16.88406c0.10148,-1.07576 0.39242,-2.02636 0.6732,-3.06829l2.18197,0.92353c0.06089,0.02706 0.10374,0.06991 0.12855,0.12855c0.0406,0.09698 0.10036,0.17929 0.17929,0.24695c0.09923,0.0857 0.16915,0.06653 0.20974,-0.05751c0.26387,-0.80738 0.56382,-1.59898 0.89985,-2.37479c0,-0.00225 -0.00113,-0.00564 -0.00338,-0.01015c-0.00225,-0.00225 0.00338,0.00113 0.01691,0.01015c0.01579,0.01353 0.02256,0.02143 0.0203,0.02368c-0.106,0.19846 -0.12066,0.38226 -0.04398,0.55141c0.05412,0.12855 0.18606,0.22891 0.3958,0.30108c0.87956,0.30897 1.71738,0.70026 2.5135,1.17387c0.59088,0.35182 1.11184,0.61569 1.5629,0.7916c0.79611,0.30671 1.34076,0.52773 1.63394,0.66305c0.08119,0.03608 0.0981,0.09134 0.05074,0.16576c-0.04962,0.07893 -0.03946,0.14998 0.03045,0.21312c0.12404,0.11276 0.25034,0.12517 0.37888,0.03721c0.10374,-0.06991 0.21312,-0.08119 0.32814,-0.03383l3.90725,1.6035c0.06315,0.02481 0.09134,0.07104 0.08457,0.1387c-0.00451,0.04736 0.00789,0.08232 0.03721,0.10487c0.63598,0.4691 1.30467,0.60779 2.00606,0.4161c0.11051,-0.02932 0.21989,-0.02593 0.32815,0.01015c2.07484,0.69913 4.17788,0.8322 6.30911,0.39919c0.8322,-0.16915 1.52569,-0.20974 2.31729,-0.28078c0.27402,-0.02368 0.3958,-0.16576 0.47361,-0.40594c0.03383,-0.106 0.106,-0.16576 0.21651,-0.17929c0.39016,-0.04511 0.71153,-0.20635 0.96412,-0.48375c0.62245,1.05885 0.57171,2.91268 2.1955,2.80104c1.6035,-0.11164 1.88427,-1.40052 1.61364,-2.75706c-0.29093,-1.44788 -1.06448,-2.6894 -2.32067,-3.72457c0.50743,0.05638 0.79949,-0.06428 0.87617,-0.36197c0.02706,-0.106 0.07668,-0.20072 0.14885,-0.28416l0.88293,-1.00811c0.02932,-0.03383 0.06202,-0.03721 0.09811,-0.01015c0.02932,0.0203 0.05863,0.03496 0.08795,0.04398c0.11502,0.03608 0.20749,0.00563 0.2774,-0.09134c1.61928,-2.18535 3.01755,-4.50151 4.1948,-6.94848c0.2977,-0.61907 0.2368,-1.2449 0.35858,-1.92148c0.09247,-0.50743 0.12404,-0.99344 0.09472,-1.45803c-0.03834,-0.64275 -0.02367,-1.29227 0.04398,-1.94855c0.01353,-0.11276 -0.00225,-0.22214 -0.04736,-0.32814c-0.35859,-0.8322 -0.46458,-1.73656 -0.31799,-2.71309c2.41878,-0.50067 3.19684,-2.78412 2.79089,-4.93227c-0.4161,-2.20903 -1.96885,-3.31186 -4.18127,-3.11565c-2.28007,0.20297 -4.26245,1.25506 -6.47487,1.85045c-2.66121,0.01128 -5.35175,0.08683 -8.0716,0.22666c-0.68334,0.03383 -1.82676,-0.09924 -3.43026,-0.39919c1.36669,-1.16372 2.88223,-1.86397 4.24215,-2.87208c1.24265,-0.9224 2.44471,-1.52907 3.60618,-1.82c1.24265,-0.31123 2.05342,-0.77243 2.4323,-1.38361c0.80964,0.21651 1.70611,-0.01805 2.68941,-0.70365c0.98555,-0.0654 2.0241,-0.23793 3.11565,-0.51758c4.26245,-1.09944 8.3287,-1.55952 12.73323,-1.41067c2.93297,0.09472 6.01141,1.06223 8.98498,1.65085c0.60892,0.12179 1.17048,0.31348 1.68469,0.5751z" fill="#f8ed0e" stroke="none" stroke-width="1"/><path d="M234.2573,151.48588c-1.77489,0.35859 -3.51484,0.72845 -5.21982,1.10959c-1.48847,0.33152 -2.89238,0.33491 -4.37409,0.32138c-0.52998,-0.00451 -0.95398,-0.26499 -1.27197,-0.78145c-0.92466,-1.48847 -0.87053,-2.86757 0.16238,-4.13728c1.05095,-1.29001 1.99704,-2.19324 2.83825,-2.7097c2.21242,-0.59539 4.1948,-1.64747 6.47487,-1.85045c2.21242,-0.19621 3.76517,0.90662 4.18127,3.11565c0.40595,2.14814 -0.37212,4.4316 -2.79089,4.93227z" fill="#fcf8ae" stroke="none" stroke-width="1"/><path d="M214.89019,145.11588c1.6035,0.29995 2.74692,0.43301 3.43026,0.39919c2.71985,-0.13983 5.41039,-0.21538 8.0716,-0.22666c-0.84121,0.51646 -1.7873,1.41969 -2.83825,2.7097c-1.03292,1.26972 -1.08705,2.64881 -0.16238,4.13728c0.31799,0.51646 0.74199,0.77694 1.27197,0.78145c1.48171,0.01353 2.88561,0.01015 4.37409,-0.32138c1.70498,-0.38114 3.44493,-0.751 5.21982,-1.10959c-0.14659,0.97653 -0.0406,1.88089 0.31799,2.71309c0.04511,0.106 0.06089,0.21538 0.04736,0.32814c-0.06766,0.65629 -0.08232,1.3058 -0.04398,1.94855c0.02932,0.46459 -0.00225,0.9506 -0.09472,1.45803c-0.12179,0.67658 -0.06089,1.30241 -0.35858,1.92148c-1.17725,2.44696 -2.57552,4.76313 -4.1948,6.94848c-0.06991,0.09698 -0.16238,0.12743 -0.2774,0.09134c-0.02932,-0.00902 -0.05863,-0.02369 -0.08795,-0.04398c-0.03608,-0.02706 -0.06879,-0.02368 -0.09811,0.01015l-0.88293,1.00811c-0.07217,0.08344 -0.12179,0.17816 -0.14885,0.28416c-0.07668,0.2977 -0.36874,0.41835 -0.87617,0.36197c-1.66664,-1.71626 -3.70089,-2.57213 -6.10275,-2.56762c-1.3058,0 -2.76045,0.76115 -1.95532,2.3342c0.04972,0.09695 0.1373,0.16726 0.24019,0.19283c2.50335,0.61907 5.01346,1.0487 6.3294,3.72119c-0.25259,0.2774 -0.57396,0.43865 -0.96412,0.48375c-0.11051,0.01353 -0.18268,0.0733 -0.21651,0.17929c-0.0778,0.24019 -0.19959,0.38226 -0.47361,0.40594c-0.7916,0.07104 -1.48509,0.11164 -2.31729,0.28078c-2.13123,0.43301 -4.23427,0.29994 -6.30911,-0.39919c-0.10825,-0.03608 -0.21764,-0.03947 -0.32815,-0.01015c-0.70139,0.1917 -1.37007,0.053 -2.00606,-0.4161c-0.02932,-0.02255 -0.04172,-0.05751 -0.03721,-0.10487c0.00676,-0.06766 -0.02143,-0.11389 -0.08457,-0.1387l-3.90725,-1.6035c-0.11502,-0.04736 -0.2244,-0.03608 -0.32814,0.03383c-0.12855,0.08796 -0.25484,0.07555 -0.37888,-0.03721c-0.06991,-0.06315 -0.08006,-0.13419 -0.03045,-0.21312c0.04736,-0.07443 0.03045,-0.12968 -0.05074,-0.16576c-0.29318,-0.13532 -0.83783,-0.35633 -1.63394,-0.66305c-0.45106,-0.17591 -0.97202,-0.43978 -1.5629,-0.7916c-0.79611,-0.47361 -1.63394,-0.86489 -2.5135,-1.17387c-0.20974,-0.07217 -0.34168,-0.17253 -0.3958,-0.30108c-0.07668,-0.16915 -0.06202,-0.35295 0.04398,-0.55141c0.00225,-0.00225 -0.00451,-0.01015 -0.0203,-0.02368c-0.01353,-0.00902 -0.01917,-0.0124 -0.01691,-0.01015c0.00225,0.00451 0.00338,0.00789 0.00338,0.01015c-0.33603,0.77581 -0.63598,1.56741 -0.89985,2.37479c-0.0406,0.12404 -0.11051,0.14321 -0.20974,0.05751c-0.07893,-0.06766 -0.1387,-0.14998 -0.17929,-0.24695c-0.02481,-0.05864 -0.06766,-0.10148 -0.12855,-0.12855l-2.18197,-0.92353c0.04511,-0.47361 0.18154,-1.01036 0.40933,-1.61026c1.95532,-5.12509 4.41468,-10.06413 7.99041,-14.20818c2.31616,-2.68151 4.83191,-5.0766 7.54725,-7.18528zM218.36409,155.81586c-0.02834,-0.90195 -0.78249,-1.61015 -1.68445,-1.58181l-1.72443,0.0542c-0.90195,0.02834 -1.61015,0.78249 -1.58181,1.68445l0.0591,1.87995c0.02834,0.90195 0.78249,1.61015 1.68445,1.58181l1.72443,-0.05419c0.90195,-0.02834 1.61015,-0.78249 1.58181,-1.68445z" fill="#fbf268" stroke="none" stroke-width="1"/><path d="M247.96481,185.70053l0.31461,-3.6603c0.3022,0.00225 0.58524,-0.07442 0.84911,-0.23003c0.20297,-0.11953 0.37099,-0.33716 0.50406,-0.6529c0.53788,-1.27874 1.06899,-1.72189 2.13799,-2.54394c0.79498,-0.60892 1.55952,-1.54937 2.73677,-2.20227c1.45239,-0.80738 2.60935,-1.99253 3.47086,-3.55543c0.28416,-0.5142 0.61117,-0.93143 0.98104,-1.25167c0.74762,-0.64613 3.17992,-2.44922 2.50673,-3.35922c-0.18944,-0.2571 -0.35746,-0.2571 -0.50405,0c0.2977,-0.89985 -0.07668,-1.6565 -1.12312,-2.26993c0.48488,0.03608 0.94496,-0.03608 1.38022,-0.2165c0.10177,-0.0412 0.21516,-0.03998 0.31461,0.00338c1.03855,0.43639 2.22595,0.97766 2.9093,0.02706c0.52773,-0.73296 1.01261,-1.33624 1.45465,-1.80985c0.92353,-0.99119 1.31933,-2.13123 2.07372,-3.20699c0.4037,-0.57509 0.74536,-1.17838 1.02502,-1.80985c0.49842,-1.12764 1.12087,-2.1955 1.86736,-3.20361c0.12218,-0.16629 0.31808,-0.2621 0.52488,-0.25671c0.2068,0.00539 0.39852,0.11129 0.51368,0.28377c0.60554,0.91338 0.93367,2.08387 0.31122,3.12242c-1.04193,1.72866 -1.82338,3.36937 -3.03784,5.14539c-0.8322,1.21559 -1.53246,2.51237 -2.10078,3.89033c-0.0355,0.08472 -0.02731,0.18144 0.02191,0.25899c0.04922,0.07755 0.13327,0.12612 0.22504,0.13005l2.26993,0.11164c0.01779,0.00001 0.03748,0.00464 0.05751,0.01353c1.66664,0.75326 3.41786,1.07463 5.25364,0.96412c1.66101,-0.09811 1.96208,2.45937 1.76587,3.45394c-0.07443,0.38114 -0.3022,0.53337 -0.68334,0.45669c-1.56065,-0.31348 -3.09085,-0.61794 -4.5906,-0.91338c-2.09063,-0.41271 -3.80238,-1.20093 -5.64606,-2.11432c-0.6529,-0.32138 -1.22799,-0.27739 -1.67792,0.2774c-1.71175,2.12108 -4.16773,4.35041 -5.46677,5.68327c-1.79294,1.84481 -3.746,3.6603 -5.85918,5.44647c-2.17859,1.84255 -3.77193,3.17203 -4.78004,3.98844z" fill="#f6d50a" stroke="none" stroke-width="1"/><path d="M227.55915,168.5154c1.25619,1.03517 2.02974,2.27669 2.32067,3.72457c0.27063,1.35654 -0.01014,2.64542 -1.61364,2.75706c-1.62379,0.11164 -1.57305,-1.74219 -2.1955,-2.80104c-1.31595,-2.67249 -3.82606,-3.10212 -6.3294,-3.72119c-0.10288,-0.02557 -0.19046,-0.09587 -0.24019,-0.19283c-0.80513,-1.57305 0.64952,-2.3342 1.95532,-2.3342c2.40186,-0.00451 4.43611,0.85136 6.10275,2.56762z" fill="#c77c00" stroke="none" stroke-width="1"/><path d="M259.83879,165.97484c1.04644,0.61343 1.42082,1.37008 1.12312,2.26993c-1.40278,0.3879 -2.79991,0.86151 -4.19141,1.42082c-2.87546,1.16033 -2.2564,4.66164 -4.70223,5.42617c-0.10961,0.03513 -0.22644,0.03275 -0.33152,-0.00676c-1.95193,-0.71379 -1.36669,-3.29156 -0.54803,-4.59398c2.04101,-3.23631 4.92438,-4.7417 8.65008,-4.51617z" fill="#c77c00" stroke="none" stroke-width="1"/><path d="M248.27942,182.04023l-0.31461,3.6603c-0.24582,0.33603 -0.57058,0.90661 -0.97428,1.71175c-0.50405,1.00134 -2.53041,1.20432 -3.59602,1.54937c-1.87413,0.14208 -3.77532,0.1838 -5.70357,0.12516c-0.82881,-0.02706 -1.46818,-0.28078 -2.25639,-0.50743c-1.42758,-0.50067 -2.47854,-1.45803 -3.15286,-2.87209c-0.6123,-1.27874 -0.22327,-4.26583 -0.15223,-5.73401c0.00451,-0.11727 -0.04623,-0.20072 -0.15223,-0.25034c-1.0284,-0.46346 -1.90457,-1.27536 -1.55613,-2.5135c0.03273,-0.11978 0.11131,-0.22375 0.21989,-0.29093c0.69688,-0.43075 1.31708,-0.36084 1.8606,0.20974c0.09472,0.10148 0.21199,0.16351 0.35182,0.18606c2.21016,0.36084 4.17112,-0.29318 5.88286,-1.96208c0.71041,-0.69237 1.44901,-0.82091 2.2158,-0.38565c0.15336,0.0857 0.49616,0.43978 1.0284,1.06223c0.93368,1.08929 2.01283,1.20431 3.47086,0.91c1.08929,-0.22102 2.19211,-0.34393 3.30847,-0.36874c0.11118,-0.00218 0.22038,0.03622 0.30784,0.10825c1.57643,1.34301 0.12179,2.78074 -1.30918,3.13256c-0.09995,0.02423 -0.17994,0.09877 -0.2116,0.19717c-0.03165,0.0984 -0.01049,0.20674 0.05598,0.28659c0.38565,0.45556 0.61118,1.03742 0.67658,1.74557zM240.63068,178.86031c-0.10148,-0.21425 -0.26161,-0.35633 -0.48037,-0.42625c-0.10358,-0.03366 -0.2172,-0.01195 -0.30108,0.05751c-1.38361,1.11636 -2.74353,1.12989 -4.02565,1.87751c-0.10143,0.05949 -0.16717,0.16443 -0.17591,0.28078c-0.11164,1.44111 -0.65629,3.7381 0.54126,4.79357c0.29995,0.26387 0.74988,0.42512 1.34978,0.48375c1.43435,0.13532 5.75432,0.24018 6.80302,-0.89309c0.88632,-0.96074 0.64275,-2.82472 0.21989,-3.83959c-0.20072,-0.48714 -0.6326,-0.80175 -1.29565,-0.94383c-0.57509,-0.12404 -1.37572,-0.5018 -2.40186,-1.13327c-0.10374,-0.06315 -0.18155,-0.14885 -0.23342,-0.2571z" fill="#c77c00" stroke="none" stroke-width="1"/><path d="M240.8641,179.11741c1.02615,0.63147 1.82677,1.00923 2.40186,1.13327c0.66305,0.14208 1.09493,0.45669 1.29565,0.94383c0.42286,1.01487 0.66643,2.87884 -0.21989,3.83959c-1.0487,1.13327 -5.36867,1.02841 -6.80302,0.89309c-0.5999,-0.05864 -1.04983,-0.21989 -1.34978,-0.48375c-1.19755,-1.05547 -0.6529,-3.35246 -0.54126,-4.79357c0.00874,-0.11635 0.07448,-0.22129 0.17591,-0.28078c1.28212,-0.74762 2.64205,-0.76115 4.02565,-1.87751c0.08388,-0.06946 0.1975,-0.09116 0.30108,-0.05751c0.21876,0.06991 0.37888,0.21199 0.48037,0.42625c0.05187,0.10825 0.12968,0.19395 0.23342,0.2571z" fill="#ffffff" stroke="none" stroke-width="1"/><path d="M235.43454,188.57938c0.78821,0.22666 1.42758,0.48037 2.25639,0.50743c1.92825,0.05864 3.82945,0.01692 5.70357,-0.12516c-0.13532,0.42174 0.09472,0.78821 0.69011,1.09944c1.09944,0.57509 2.27331,0.95736 3.32539,1.56966c2.53041,1.46818 5.09465,1.90457 7.66565,2.89238c0.98442,0.37888 2.12785,0.39241 2.93974,0.69349c1.95193,0.72394 4.0155,0.56156 6.09599,1.5426c0.23229,0.11051 0.63824,0.17253 1.21784,0.18606c2.03989,0.04736 3.84297,-2.91944 4.81725,-4.24554c0.43526,-0.59314 1.08704,-1.34865 1.95532,-2.26655c0.857,-0.90661 1.44788,-1.72415 1.77264,-2.4526c0.39467,-0.89083 0.93593,-1.68581 1.62379,-2.38494c0.0594,-0.06185 0.15384,-0.07405 0.22701,-0.02934c0.07317,0.04472 0.10539,0.13431 0.07745,0.21539c-0.64501,1.9508 -1.31256,3.92642 -2.00268,5.92684c-0.5999,1.7343 -1.57869,3.45507 -2.93636,5.16231c-1.00134,1.25844 -1.069,3.6603 -2.99387,4.00874c-1.29227,0.23342 -2.06695,0.59539 -3.03784,1.62717c-0.59088,0.63147 -1.23927,1.18965 -1.94517,1.67454c-1.23814,0.84798 -1.99027,1.37797 -2.25639,1.58996c-1.15244,0.92692 -2.03651,1.56402 -2.65219,1.91134c-3.11904,1.77038 -6.25724,3.48664 -9.41461,5.14877c-0.10512,0.05566 -0.1664,0.16914 -0.1553,0.28757c0.0111,0.11844 0.09241,0.21854 0.20605,0.25369l2.4323,0.72056c0.09415,0.02825 0.16734,0.10263 0.19407,0.19722c0.02673,0.09459 0.0033,0.19627 -0.06214,0.26962c-0.3879,0.43075 -0.89422,0.7307 -1.51892,0.89985c-2.28459,0.62697 -4.89392,0.82881 -7.82803,0.60554c-1.38022,-0.10148 -3.07844,0.73409 -4.23201,0.95398c-2.31391,0.44203 -4.64585,0.62358 -6.99584,0.54465c-1.87074,-0.06089 -3.82268,-0.67658 -5.72049,-1.08929c-0.06713,-0.01467 -0.12169,-0.0634 -0.14384,-0.12845c-0.02215,-0.06505 -0.00864,-0.13695 0.0356,-0.18954c0.02481,-0.02706 0.07329,-0.05638 0.14546,-0.08795c0.04962,-0.0203 0.10713,-0.03045 0.17253,-0.03045c1.11297,0.01692 2.14814,0.13193 3.24758,-0.05751c1.85608,-0.32025 3.71104,-0.63824 5.56487,-0.95398c0.56494,-0.09472 1.55614,-0.05413 2.25301,-0.38227c0.09924,-0.04814 0.15934,-0.15169 0.1519,-0.26174c-0.00743,-0.11005 -0.08091,-0.20458 -0.18573,-0.23893c-2.45147,-0.78032 -4.89393,-1.59447 -7.32736,-2.44245c-1.98915,-0.69011 -3.83058,-1.45239 -5.52428,-2.28684c-1.79294,-0.88406 -3.56445,-1.80873 -5.31454,-2.77398c-2.4932,-1.37684 -4.82063,-3.21375 -7.18866,-4.91873c-0.14659,-0.106 -0.50519,-0.23906 -1.07577,-0.39919c-0.11242,-0.03136 -1.96317,2.56851 4.57502,7.91076c5.7161,4.67053 19.39955,12.23842 25.79707,11.43398c5.59156,-0.7031 16.5843,-2.56111 21.74241,-5.76049c13.74296,-8.52425 18.60052,-22.51126 17.92962,-22.39142c-0.21622,-0.16729 -3.65805,21.85393 -30.01431,29.68766c-17.72853,5.26935 -35.7572,-8.37962 -39.66272,-12.24912c-7.96215,-7.88871 -10.94142,-21.36994 -10.9488,-21.31724l-0.3349,2.7503l-0.82205,-3.31524c-0.04285,-0.55029 0.08796,-0.92579 0.39242,-1.12651c0.10148,-0.0654 0.16689,-0.15674 0.19621,-0.27402c0.15561,-0.63824 0.47474,-1.17048 0.95736,-1.59673c0.09698,-0.0857 0.14998,-0.19396 0.159,-0.32476l0.23342,-3.59941c0.00451,-0.06315 0.03045,-0.07556 0.07781,-0.03721c0.06315,0.05187 0.07556,0.12404 0.03721,0.21651c0.03383,-0.16689 0.09134,-0.32025 0.17253,-0.46007c0.04285,-0.07217 0.08457,-0.07217 0.12516,0c0.34506,0.63373 0.56156,1.29791 0.64952,1.99253c0.01579,0.11276 0.0733,0.19508 0.17253,0.24695c0.19846,0.106 0.33378,0.27063 0.40595,0.4939c0.15336,0.46007 0.33829,0.90775 0.55479,1.34301c0.22327,0.4488 0.39242,0.8976 0.50743,1.34639c0.43301,1.67566 1.175,3.1991 2.22595,4.5703c0.39467,0.5142 0.71041,1.01036 0.94721,1.48847c0.37888,0.76453 0.6326,1.36331 1.24491,1.99591c1.08479,1.11861 2.18648,2.21918 3.30509,3.30171c0.08344,0.07893 0.18155,0.11276 0.29431,0.10148c1.94855,-0.19846 3.85425,-0.5593 5.7171,-1.08252c1.13665,-0.31799 2.22256,-0.59201 3.25773,-0.82205c1.09831,-0.24357 2.18422,-0.53675 3.25773,-0.87956c1.1468,-0.36535 2.20565,-1.25167 3.55205,-1.56966c0.16576,-0.0406 0.21651,-0.08119 0.33491,-0.18944c0.06315,-0.05864 0.13645,-0.09585 0.21989,-0.11164c1.37346,-0.25935 2.6319,-0.77243 3.77532,-1.53922c0.48488,-0.32476 0.96751,-0.55141 1.44788,-0.67996c0.78821,-0.21312 2.6116,-0.57848 3.11227,-1.22461c0.26612,-0.3428 0.31461,-0.70026 0.14547,-1.07238zM231.19577,209.33348c1.46142,0.27063 2.56085,1.17048 4.06963,1.46818c1.73881,0.34054 3.47987,0.69349 5.2232,1.05884c0.82768,0.17591 1.56515,0.20185 2.21242,0.07781c0.88857,-0.16689 1.75347,-0.43865 2.59469,-0.81528c3.05476,-1.36331 5.89301,-3.05137 8.89026,-4.51955c2.09063,-1.02164 4.14067,-2.82472 5.7577,-4.3335c0.99119,-0.92353 2.33758,-0.92691 2.65557,-2.51349c0.02846,-0.14156 -0.00473,-0.28854 -0.09126,-0.40413c-0.08653,-0.11559 -0.21821,-0.18884 -0.36205,-0.20141c-0.99908,-0.09021 -1.98125,-0.2447 -2.94651,-0.46346c-1.74106,-0.39467 -2.66911,-0.60441 -2.78413,-0.62922c-1.87864,-0.41046 -3.70541,-0.99344 -5.4803,-1.74896c-1.0487,-0.44654 -2.5135,-0.57848 -3.48439,-1.1671c-1.96885,-1.19755 -3.96024,-2.37028 -5.9742,-3.51821c-0.55254,-0.31348 -1.07351,-0.45782 -1.5629,-0.43301c-0.68786,0.03608 -1.35768,0.2041 -2.00945,0.50406c-3.05137,1.4039 -6.01818,3.19684 -9.29959,3.97491c-1.49186,0.35182 -2.72323,1.35654 -4.24554,1.80985c-1.81098,0.53901 -3.59828,1.14342 -5.3619,1.81324c-1.62379,0.61569 -3.68059,0.1387 -5.21981,1.25167c-0.07467,0.05388 -0.11819,0.141 -0.11616,0.23253c0.00203,0.09153 0.04936,0.17551 0.12631,0.22416c2.95327,1.92825 6.04186,4.09331 9.36725,5.30777c0.81189,0.2977 1.62831,0.66192 2.44922,1.09268c1.76136,0.9224 3.62533,1.56628 5.59193,1.93164z" fill="#f6d50a" stroke="none" stroke-width="1"/><path d="M231.19577,209.33348c-1.9666,-0.36535 -3.83057,-1.00924 -5.59193,-1.93164c-0.82092,-0.43075 -1.63733,-0.79498 -2.44922,-1.09268c-3.32539,-1.21446 -6.41397,-3.37952 -9.36725,-5.30777c-0.07694,-0.04865 -0.12428,-0.13263 -0.12631,-0.22416c-0.00203,-0.09153 0.04149,-0.17865 0.11616,-0.23253c1.53922,-1.11297 3.59602,-0.63598 5.21981,-1.25167c1.76362,-0.66981 3.55092,-1.27423 5.3619,-1.81324c1.5223,-0.45331 2.75368,-1.45803 4.24554,-1.80985c3.28141,-0.77807 6.24822,-2.57101 9.29959,-3.97491c0.65177,-0.29995 1.32159,-0.46797 2.00945,-0.50406c0.48939,-0.02481 1.01036,0.11953 1.5629,0.43301c2.01396,1.14793 4.00535,2.32066 5.9742,3.51821c0.97089,0.58862 2.43569,0.72056 3.48439,1.1671c1.77489,0.75552 3.60166,1.3385 5.4803,1.74896c0.11502,0.02481 1.04306,0.23455 2.78413,0.62922c0.96525,0.21876 1.94742,0.37325 2.94651,0.46346c0.14384,0.01257 0.27552,0.08582 0.36205,0.20141c0.08653,0.11559 0.11972,0.26257 0.09126,0.40413c-0.31799,1.58658 -1.66438,1.58996 -2.65557,2.51349c-1.61702,1.50878 -3.66707,3.31186 -5.7577,4.3335c-2.99725,1.46818 -5.8355,3.15624 -8.89026,4.51955c-0.84121,0.37663 -1.70611,0.64839 -2.59469,0.81528c-0.64726,0.12404 -1.38474,0.0981 -2.21242,-0.07781c-1.74332,-0.36535 -3.48439,-0.7183 -5.2232,-1.05884c-1.50878,-0.2977 -2.60821,-1.19755 -4.06963,-1.46818z" fill="#f8ed0e" stroke="none" stroke-width="1"/><path d="M197.07736,180c0,-23.70552 19.21711,-42.92264 42.92264,-42.92264c23.70552,0 42.92264,19.21711 42.92264,42.92264c0,23.70552 -19.21711,42.92264 -42.92264,42.92264c-23.70552,0 -42.92264,-19.21711 -42.92264,-42.92264z" fill="none" stroke="url(#color-1)" stroke-width="3.5"/><path d="M218.83775,156.74545c0,1.6963 -1.24721,3.07143 -2.78571,3.07143c-1.53851,0 -2.78571,-1.37513 -2.78571,-3.07143c0,-1.6963 1.24721,-3.07143 2.78571,-3.07143c1.53851,0 2.78571,1.37513 2.78571,3.07143z" fill="#fcf8ae" stroke="none" stroke-width="0"/></g></g></svg>