<svg version="1.1" xmlns="http://www.w3.org/2000/svg" xmlns:xlink="http://www.w3.org/1999/xlink" width="40.96276" height="51.48" viewBox="0,0,40.96276,51.48"><defs><linearGradient x1="242.60554" y1="157.15497" x2="242.60554" y2="205.50696" gradientUnits="userSpaceOnUse" id="color-1"><stop offset="0" stop-color="#fdf4d4"/><stop offset="1" stop-color="#ffc549"/></linearGradient></defs><g transform="translate(-219.53724,-154.47212)"><g data-paper-data="{&quot;isPaintingLayer&quot;:true}" fill-rule="nonzero" stroke="none" stroke-linecap="butt" stroke-linejoin="miter" stroke-miterlimit="10" stroke-dasharray="" stroke-dashoffset="0" style="mix-blend-mode: normal"><path d="M233.72898,159.17565l17.32012,-2.88669c0,0 2.99641,1.3042 3.67404,3.87165c0.90772,3.43924 -2.68444,13.56214 -0.74609,23.19682c0.68701,3.4148 3.89115,2.59274 5.21045,5.62729c3.06874,7.0585 -6.40638,7.1405 -6.40638,7.1405c0,0 -0.81591,8.23831 -7.51934,7.69518c-4.50275,-0.36482 -5.64546,-8.66355 -5.64546,-8.66355c0,0 -16.07806,4.94398 -19.39276,-1.85761c-1.7398,-3.56997 6.52619,-15.97019 11.09141,-24.86197c2.5243,-4.91664 2.41403,-9.26163 2.41403,-9.26163zM239.64669,184.61177c4.00406,0 1.47663,-0.50358 1.47663,-4.50765c0,-4.00406 3.53778,-3.78598 -0.46629,-3.78598c-4.00406,0 -7.10567,2.95727 -7.10567,6.96133c0,4.00406 2.09126,1.33229 6.09533,1.33229z" fill="url(#color-1)" stroke-width="0"/><path d="M260.5,186.75v8.75c-0.35334,-0.01334 -0.41334,0.08667 -0.18,0.3c-1.07333,0.01334 -2.02,0.35 -2.84,1.01l-2.86,0.44c-0.41333,0.06667 -0.63667,0.30667 -0.67,0.72c-0.26,2.98666 -1.06333,5.09667 -2.41,6.33c-3.96667,1.30667 -7.68333,0.93666 -11.15,-1.11c-0.94,-1.50666 -1.58667,-3.26 -1.94,-5.26c-0.06,-0.36 -0.27333,-0.54334 -0.64,-0.55l-3.77,-0.07c-2.97333,0.46667 -6.02667,0.44334 -9.16,-0.07c-6.09,-1.94 -6.32,-9.48 -3.93,-14.36c2.34,-4.77334 4.06334,-7.78333 5.17,-9.03c0.88666,-0.99334 1.48666,-1.86 1.8,-2.6c0.12667,-0.30667 0.31,-0.57666 0.55,-0.81c1.63,-1.57 3.2,-3.54 3.03,-5.94c-0.02,-0.32 -0.13666,-0.59667 -0.35,-0.83c-0.78666,-0.88666 -0.99,-1.78 -0.61,-2.68c1.68667,-3.95334 4.81,-5.01334 9.37,-3.18c0.32704,0.1326 0.69394,0.12653 1.01642,-0.0168c0.32249,-0.14333 0.57284,-0.4116 0.69358,-0.7432c1.07,-2.96 5.75,-2.82 8.25,-2.25c11.28,2.55 7.22,15.22 5,22.88c-0.24,0.82666 -0.24334,2.49666 -0.01,5.01c0.03333,0.32 0.20666,0.52 0.52,0.6c2.32,0.59333 4.02666,1.74667 5.12,3.46zM245.9,163.85l-2.08,9.11l-1.57,11.41c-0.09882,0.74874 -0.69059,1.3364 -1.44,1.43c-2.36667,0.30667 -4.76666,0.72666 -7.2,1.26c-1.71334,0.37333 -2.81,-0.01667 -3.29,-1.17c-0.1803,-0.43448 -0.11957,-0.93168 0.16,-1.31l5.07,-6.87l2.2,-2.56c0.83334,-0.41333 1.49334,-1.14667 1.98,-2.2c5.35,-4.54 3.19,-10.9 -2.77,-13c-0.78666,-0.27334 -1.43667,-0.31667 -1.95,-0.13c-0.8,0.3 -1.11,1.02334 -0.93,2.17c0.28,1.81 1.21,3.88 0.18,5.53c-1.08667,1.75333 -2.59333,3.91 -4.52,6.47c-3.12,4.12 -10.75,14.89 -5.64,19.94c2.52,2.49 12.71,0.8 16.17,0.11c0.26997,-0.05598 0.5509,0.00938 0.76843,0.17878c0.21753,0.16941 0.34972,0.42576 0.36157,0.70122c0.16,3.77 0.28,8.62 5.65,8.26c4.44,-0.3 3.68,-5.21 3.91,-8.26c0.048,-0.63322 0.59623,-1.11014 1.23,-1.07l5.02,0.29c0.58875,0.03633 1.12811,-0.33422 1.31,-0.9c1.74,-5.39 -2.11,-6.96 -6.35,-7.83c-0.63231,-0.1313 -1.05591,-0.72523 -0.97,-1.36l1.13,-8.54c1.31333,-4.32666 1.93333,-8.58667 1.86,-12.78c-0.88,-3.37 -4.16,-5.72 -7.87,-5.42c-0.83409,0.0648 -1.5787,0.5474 -1.97846,1.28232c-0.39976,0.73492 -0.40034,1.62224 -0.00154,2.35768zM239.49,179c-0.01334,-0.79334 -0.28667,-0.89667 -0.82,-0.31l-3.14,3.47c-0.17282,0.19727 -0.23335,0.46926 -0.16012,0.71946c0.07323,0.2502 0.26986,0.44321 0.52012,0.51054c1.26,0.34 2.29667,0.08667 3.11,-0.76c0.36667,-0.38 0.54666,-0.83333 0.54,-1.36z" fill="#a46223" stroke-width="1"/><path d="M260.32,195.8c-0.38,0.58667 -1.32666,0.92333 -2.84,1.01c0.82,-0.66 1.76666,-0.99666 2.84,-1.01z" fill-opacity="0.878" fill="#834917" stroke-width="1"/><path d="M224.88,197.24c3.13333,0.51334 6.18667,0.53666 9.16,0.07c-3.02,1.49334 -6.07333,1.47 -9.16,-0.07z" fill-opacity="0.878" fill="#834917" stroke-width="1"/><path d="M240.39,203.19c3.46667,2.04666 7.18334,2.41667 11.15,1.11c-3.08,2.27 -8.46,2.47 -11.15,-1.11z" fill-opacity="0.878" fill="#834917" stroke-width="1"/></g></g></svg>