<svg version="1.1" xmlns="http://www.w3.org/2000/svg" xmlns:xlink="http://www.w3.org/1999/xlink" width="37" height="49.34465" viewBox="0,0,37,49.34465"><defs><linearGradient x1="240.44053" y1="165.97804" x2="240.44053" y2="205.09263" gradientUnits="userSpaceOnUse" id="color-1"><stop offset="0" stop-color="#fdf4d4"/><stop offset="1" stop-color="#ffc549"/></linearGradient></defs><g transform="translate(-221.5,-155.32767)"><g data-paper-data="{&quot;isPaintingLayer&quot;:true}" fill-rule="nonzero" stroke="none" stroke-linecap="butt" stroke-linejoin="miter" stroke-miterlimit="10" stroke-dasharray="" stroke-dashoffset="0" style="mix-blend-mode: normal"><path d="M258.12148,184.23633c0,10.8012 -8.10989,19.5573 -18.11395,19.5573c-10.00406,0 -18.11395,-8.7561 -18.11395,-19.5573c0,-10.8012 4.06853,-27.06268 25.61934,-26.77401c10.00316,0.13399 10.60857,15.97281 10.60857,26.77401zM240.22403,193.38988c5.52285,0 6.24731,-7.79684 6.24731,-13.31969c0,-5.52285 0.57455,-12.02068 -4.9483,-12.02068c-5.52285,0 -6.10297,6.64217 -6.10297,12.16501c0,5.52285 -0.71888,13.17535 4.80397,13.17535z" fill="url(#color-1)" stroke-width="2"/><path d="M246.85,155.32767h1.62c3.24,1.5 5.76667,3.73 7.58,6.69c1.1,1.8 1.43,4.51 2.45,6.69v0.35c-0.49334,1.18667 -0.58,2.77667 -0.26,4.77c0.44666,2.74667 0.23667,7.37 -0.63,13.87c-0.53334,4.02667 -2.22334,7.84667 -5.07,11.46c-4.39,5.58 -13,6.45 -19.34,4.71c-6.38,-1.74 -8.57,-6.42 -11.7,-12.11v-5.92c0.12,-2.14667 0.24667,-4.29 0.38,-6.43c0.53,-8.33 4.52,-18.06 12.7,-21.53c3.02667,-1.28 6.26,-1.81667 9.7,-1.61c1.01,0.06 1.78,-0.44 2.57,-0.94zM226.5,171.21767c-1.88666,5.77334 -2.48,11.7 -1.78,17.78c0.75,4.61 2.49,9.89 6.77,11.73c5.2,2.24 14.25,2.55 18.6,-2.31c1.92667,-2.15333 3.35333,-4.84667 4.28,-8.08c2.18,-7.68 1.41,-16.95 0.24,-25.49c-0.30667,-2.24667 -1.81334,-4.16333 -4.52,-5.75c-2.56,-1.14 -4.06,0.59 -6.34,0.4c-8.6,-0.72 -14.34,3.28 -17.25,11.72z" fill-opacity="0.996" fill="#9b6525" stroke-width="1"/><path d="M247.81,171.30767c0.67,6.17 0.72,23.38 -7.7,24.44c-4.63,0.59 -6.07,-6.73 -6.22,-9.9c-0.33,-5.75 -0.14,-12.13 2.29,-17c3.84,-6.39 9.57,-3.15 11.63,2.46zM239.7309,192.65547c1.24497,0.10235 2.54738,-1.11834 3.62071,-3.39351c1.07333,-2.27517 1.82965,-5.41847 2.10259,-8.73839c0.27295,-3.31995 0.04015,-6.5446 -0.64719,-8.96452c-0.68734,-2.41992 -1.77292,-3.83689 -3.01791,-3.93918c-1.24497,-0.10235 -2.54738,1.11834 -3.6207,3.39351c-1.07333,2.27517 -1.82966,5.41847 -2.1026,8.73839c-0.27295,3.31995 -0.04014,6.54459 0.6472,8.96451c0.68734,2.41992 1.77291,3.83689 3.0179,3.93919z" fill-opacity="0.996" fill="#9b6525" stroke-width="1"/></g></g></svg>