<svg version="1.1" xmlns="http://www.w3.org/2000/svg" xmlns:xlink="http://www.w3.org/1999/xlink" width="34.7236" height="37.46534" viewBox="0,0,34.7236,37.46534"><g transform="translate(-222.6382,-160.82871)"><g data-paper-data="{&quot;isPaintingLayer&quot;:true}" fill-rule="nonzero" stroke-linecap="butt" stroke-linejoin="miter" stroke-miterlimit="10" stroke-dasharray="" stroke-dashoffset="0" style="mix-blend-mode: normal"><path d="M223.38826,180.93225c0,-7.0883 4.4396,-13.13968 10.68985,-15.52517c1.83948,-0.70207 -1.48642,-3.02196 -0.8518,-3.82837c1.69115,-0.99325 1.22381,0.52502 3.06974,0.43788c0.4594,-0.02168 1.33549,-0.432 1.76761,-0.68395c0.37224,-0.21706 1.8958,0.92716 2.28319,0.84694c0.61283,-0.12693 1.8527,-1.21816 2.31228,-1.03666c0.56727,0.22402 -0.01583,1.1277 0.56743,1.10252c1.44854,-0.06253 2.11392,-0.66261 3.00459,-0.34209c0.76795,0.27635 -0.55761,3.40644 -0.20072,3.54555c0.36498,0.14226 0.72369,0.29704 1.07561,0.46384c5.61946,2.66339 9.50576,8.3876 9.50576,15.01951c0,9.17443 -7.43735,16.6118 -16.6118,16.6118c-9.17443,0 -16.6118,-7.43735 -16.6118,-16.6118z" fill="#ffb202" stroke="#d2841a" stroke-width="1.5"/><path d="M248.54494,179.55848c0,0.84618 -0.68598,1.53216 -1.53216,1.53216c-0.84618,0 -1.53216,-0.68596 -1.53216,-1.53216c0,-0.84618 0.68598,-1.53216 1.53216,-1.53216c0.84618,0 1.53216,0.68596 1.53216,1.53216z" fill="#ffffff" stroke="#d2841a" stroke-width="1"/><path d="M233.86559,179.39429c0,0.84618 -0.68598,1.53216 -1.53216,1.53216c-0.84618,0 -1.53216,-0.68598 -1.53216,-1.53216c0,-0.84618 0.68598,-1.53216 1.53216,-1.53216c0.84618,0 1.53216,0.68596 1.53216,1.53216z" fill="#ffffff" stroke="#d2841a" stroke-width="1"/><path d="M241.92664,181.81057c0,1.29155 -1.04701,2.33856 -2.33856,2.33856c-1.29155,0 -2.33856,-1.04701 -2.33856,-2.33856c0,-1.29155 1.04701,-2.33856 2.33856,-2.33856c1.29155,0 2.33856,1.04701 2.33856,2.33856z" fill="#ffffff" stroke="#d2841a" stroke-width="1"/><path d="M251.78139,169.95925c0,0 1.76124,1.93064 2.92755,4.44847c1.09178,2.35695 1.59355,5.28339 1.59355,6.06051c0,2.03908 -0.36738,3.99234 -1.03957,5.79722c-2.35221,6.31583 -8.43683,10.77091 -15.5722,10.77091c-1.26826,0 -3.69014,-0.52234 -3.69014,-0.52234c0,0 7.25213,0.5964 14.90914,-7.86524c5.68624,-6.28377 0.87169,-18.68953 0.87169,-18.68953z" fill="#fb9c0c" stroke="#d2841a" stroke-width="0"/><path d="M250.55538,186.543c0,0.45987 -0.39767,0.8327 -0.88821,0.8327c-0.49054,0 -0.88819,-0.37281 -0.88819,-0.8327c0,-0.45987 0.39765,-0.83268 0.88819,-0.83268c0.49054,0 0.88821,0.37281 0.88821,0.83268z" fill="#d2841a" stroke="none" stroke-width="1"/><path d="M253.10897,175.21841c0,0.39856 -0.34464,0.72168 -0.76978,0.72168c-0.42513,0 -0.76976,-0.3231 -0.76976,-0.72168c0,-0.39856 0.34464,-0.72166 0.76976,-0.72166c0.42513,0 0.76978,0.3231 0.76978,0.72166z" fill="#d2841a" stroke="none" stroke-width="1"/><path d="M251.60467,177.72586c0,0.33725 -0.29161,0.61066 -0.65136,0.61066c-0.35973,0 -0.65134,-0.27342 -0.65134,-0.61066c0,-0.33725 0.29161,-0.61062 0.65134,-0.61062c0.35973,0 0.65136,0.27338 0.65136,0.61062z" fill="#d2841a" stroke="none" stroke-width="1"/><path d="M245.88791,191.82086c0,0.24822 -0.21463,0.44948 -0.47943,0.44948c-0.26477,0 -0.4794,-0.20125 -0.4794,-0.44948c0,-0.24822 0.21463,-0.44943 0.4794,-0.44943c0.26477,0 0.47943,0.20121 0.47943,0.44943z" fill="#d2841a" stroke="none" stroke-width="1"/><path d="M230.00012,187.36847c0,0.26952 -0.23306,0.48803 -0.52058,0.48803c-0.28749,0 -0.52053,-0.2185 -0.52053,-0.48803c0,-0.26952 0.23304,-0.488 0.52053,-0.488c0.28749,0 0.52058,0.21848 0.52058,0.488z" fill="#d2841a" stroke="none" stroke-width="1"/></g></g></svg>