<svg version="1.1" xmlns="http://www.w3.org/2000/svg" xmlns:xlink="http://www.w3.org/1999/xlink" width="40.32591" height="52.10662" viewBox="0,0,40.32591,52.10662"><defs><linearGradient x1="239.16295" y1="153.88388" x2="239.16295" y2="205.9905" gradientUnits="userSpaceOnUse" id="color-1"><stop offset="0" stop-color="#fdf4d4"/><stop offset="1" stop-color="#ffc549"/></linearGradient></defs><g transform="translate(-219,-153.88388)"><g data-paper-data="{&quot;isPaintingLayer&quot;:true}" fill-rule="nonzero" stroke="none" stroke-width="1" stroke-linecap="butt" stroke-linejoin="miter" stroke-miterlimit="10" stroke-dasharray="" stroke-dashoffset="0" style="mix-blend-mode: normal"><path d="M234.38,156.95c2.25333,1.41333 3.3,1.18333 3.14,-0.69c1.21333,0.11333 2.45,0.02667 3.71,-0.26c6.02,-1.37 12.55,-1.38 15.83,3.99c1.06,1.74 1.39,5.81 -0.21,7.39c-3.42,3.36 -7.5,2.22 -11.87,2.41c-1.4,-0.44 -2.67,-0.39667 -3.81,0.13c-0.42667,0.19333 -0.40667,0.32 0.06,0.38l3.79,0.51c4.34,0.54667 7.93,2.44 10.77,5.68c1.01,1.16 1.48,2.57 2.26,3.99c0.91,1.68 0.93,4.18 1.22,6.09c0.24,1.64 -0.36,3.04 -0.53,4.68c-0.67,6.56 -6.89,11.09 -12.82,13.59c-0.31333,0.13333 -0.63667,0.17333 -0.97,0.12c-0.80667,-0.12667 -1.51667,0.05 -2.13,0.53c-0.25333,0.19333 -0.53667,0.3 -0.85,0.32c-3.98,0.25333 -6.88667,0.24 -8.72,-0.04c-6.62,-1 -11.37,-4.11333 -14.25,-9.34v-6.7c0.28667,-1.36667 1.19667,-1.96667 2.73,-1.8c0.42667,0.05333 0.75,0.01667 0.97,-0.11c0.18,-0.10667 0.31,-0.23333 0.39,-0.38c0.17333,-0.30667 0.11667,-0.56667 -0.17,-0.78c-8.13,-6.02 -0.03,-15.11 -0.41,-22.42c-0.08667,-1.64 -0.36,-2.79667 -0.82,-3.47c-2.05,-2.99 0.59,-6.44 3.78,-6.8c3.51333,-0.4 6.48333,0.59333 8.91,2.98zM237.18,183.9l-6.34,3.55c-0.12,0.06667 -0.13667,0.15333 -0.05,0.26c1.47,1.86 2.76,4.04 5.16,4.56c2.63333,0.56 4.88667,-0.28 6.76,-2.52c0.19333,-0.22 0.29,-0.47667 0.29,-0.77l0.01,-5.47c0,-0.33333 -0.16667,-0.5 -0.5,-0.5l-4.02,-0.01c-0.08,0 -0.14667,0.02333 -0.2,0.07l-0.35,0.29c-0.23333,0.20667 -0.48667,0.38667 -0.76,0.54z" fill="url(#color-1)"/><path d="M234.38,156.95c2.25333,1.41333 3.3,1.18333 3.14,-0.69c1.21333,0.11333 2.45,0.02667 3.71,-0.26c6.02,-1.37 12.55,-1.38 15.83,3.99c1.06,1.74 1.39,5.81 -0.21,7.39c-3.42,3.36 -7.5,2.22 -11.87,2.41c-1.4,-0.44 -2.67,-0.39667 -3.81,0.13c-0.42667,0.19333 -0.40667,0.32 0.06,0.38l3.79,0.51c4.34,0.54667 7.93,2.44 10.77,5.68c1.01,1.16 1.48,2.57 2.26,3.99c0.91,1.68 0.93,4.18 1.22,6.09c0.24,1.64 -0.36,3.04 -0.53,4.68c-0.67,6.56 -6.89,11.09 -12.82,13.59c-0.31333,0.13333 -0.63667,0.17333 -0.97,0.12c-0.80667,-0.12667 -1.51667,0.05 -2.13,0.53c-0.25333,0.19333 -0.53667,0.3 -0.85,0.32c-3.98,0.25333 -6.88667,0.24 -8.72,-0.04c-6.62,-1 -11.37,-4.11333 -14.25,-9.34v-6.7c0.28667,-1.36667 1.19667,-1.96667 2.73,-1.8c0.42667,0.05333 0.75,0.01667 0.97,-0.11c0.18,-0.10667 0.31,-0.23333 0.39,-0.38c0.17333,-0.30667 0.11667,-0.56667 -0.17,-0.78c-8.13,-6.02 -0.03,-15.11 -0.41,-22.42c-0.08667,-1.64 -0.36,-2.79667 -0.82,-3.47c-2.05,-2.99 0.59,-6.44 3.78,-6.8c3.51333,-0.4 6.48333,0.59333 8.91,2.98zM224.11,172.44c-1.06667,2.99333 -1.51667,5.84333 -1.35,8.55c0.1,1.72 1.62,3.13 3.48,3.21c4.55,0.2 7.38,-1.85 10.92,-3.78c1.44,-0.78667 2.73,-1.09333 3.87,-0.92c3.47333,0.52 5.21,2.51333 5.21,5.98c0.22667,5.46 -1.92333,8.81 -6.45,10.05c-7.68,2.12 -8.44,-6.01 -15.31,-5.25c-1.26667,0.14 -2.04,0.71333 -2.32,1.72c-1.41,5.04 3.71,8.69 7.97,9.61c7.64,1.65 16.54,1.58 22.5,-4.49c2.48,-2.52667 3.67667,-6.56333 3.59,-12.11c-4.20667,-11.70667 -12.26333,-14.67667 -24.17,-8.91c-0.28,0.14 -0.43333,0.05333 -0.46,-0.26c-0.11333,-1.16667 0.04667,-2.48667 0.48,-3.96l0.69,-3.3c0.09083,-0.44019 0.48056,-0.75449 0.93,-0.75c5.79,0.06 11.03,-1.58 16.93,-1.34c5.09,0.2 5.91,-4.55 1.83,-6.42c-5.82,-2.67 -12.32,-0.54 -18.24,0.58c-0.50958,0.09583 -1.02566,-0.12084 -1.31,-0.55c-1.31,-1.98 -5.06,-4.49 -7.57,-3.19c-0.93333,0.48667 -1.29333,1.39667 -1.08,2.73c0.05333,0.33333 0.19667,0.62 0.43,0.86c0.95333,0.96 1.31,2.04 1.07,3.24c-0.5,2.52 -1.04667,5.42 -1.64,8.7zM237.18,183.9l-6.34,3.55c-0.12,0.06667 -0.13667,0.15333 -0.05,0.26c1.47,1.86 2.76,4.04 5.16,4.56c2.63333,0.56 4.88667,-0.28 6.76,-2.52c0.19333,-0.22 0.29,-0.47667 0.29,-0.77l0.01,-5.47c0,-0.33333 -0.16667,-0.5 -0.5,-0.5l-4.02,-0.01c-0.08,0 -0.14667,0.02333 -0.2,0.07l-0.35,0.29c-0.23333,0.20667 -0.48667,0.38667 -0.76,0.54z" fill="#a56323"/></g></g></svg>