<svg version="1.1" xmlns="http://www.w3.org/2000/svg" xmlns:xlink="http://www.w3.org/1999/xlink" width="31.1049" height="30.88005" viewBox="0,0,31.1049,30.88005"><g transform="translate(-224.11422,-164.14984)"><g data-paper-data="{&quot;isPaintingLayer&quot;:true}" fill-rule="nonzero" stroke-linecap="butt" stroke-linejoin="miter" stroke-miterlimit="10" stroke-dasharray="" stroke-dashoffset="0" style="mix-blend-mode: normal"><path d="M226.65922,175.46498c0,0 -0.83095,-1.97002 -0.67067,-3.07949c0.11631,-0.80511 1.23819,-0.67346 1.23819,-1.34716c0,-0.64142 -3.54409,-2.12746 -2.07317,-3.0633c0.91557,-0.58252 2.21067,-0.88788 3.86343,-1.34343c0.26678,-0.07355 -0.68008,-1.24527 -0.06553,-1.49403c0.91819,-0.37168 3.50361,0.19801 4.21798,0.57704c1.66986,0.886 2.68352,2.71314 2.68352,2.71314l1.13502,7.03721z" fill="#b3f234" stroke="#679719" stroke-width="1"/><path d="M254.07165,176.97999c0,0 0.84524,1.99309 0.60423,4.08326c-0.28558,2.47687 -2.10263,3.42509 -2.10263,3.42509c0,0 2.60986,5.71753 -1.08499,8.72671c-3.50227,2.85234 -8.59267,0.17543 -8.59267,0.17543c0,0 -0.60245,1.50049 -4.38306,1.26868c-3.47472,-0.21303 -4.86923,-2.35571 -4.86923,-2.35571c0,0 -4.33727,0.43934 -6.8807,-2.63739c-2.58854,-3.1313 -0.21855,-7.73977 -0.21855,-7.73977c0,0 -3.56554,-3.97749 -1.00363,-7.77262c1.4584,-2.1604 3.71616,-2.96639 5.51628,-2.69494c2.22738,0.33588 2.96662,0.94523 2.96662,0.94523c0,0 -0.26636,-0.92113 -0.01215,-2.91454c0.26094,-2.04615 1.98447,-4.03836 4.67814,-4.62998c5.61595,-1.23348 7.88305,3.38012 7.88305,3.38012c0,0 3.31784,-0.03089 5.12377,1.81598c3.36129,3.43749 2.37547,6.9244 2.37547,6.9244z" fill="#904df8" stroke="#6d24ca" stroke-width="1"/><path d="M245.94987,172.89845c0,3.23879 -2.55782,5.86434 -5.71302,5.86434c-3.1552,0 -4.65579,-2.55004 -4.65579,-5.78883c0,-3.23879 1.50059,-5.93985 4.65579,-5.93985c3.1552,0 5.71302,2.62556 5.71302,5.86434z" fill="#a56aff" stroke="#904df8" stroke-width="1"/><path d="M253.38477,180.03128c0,3.23879 -2.55781,5.86436 -5.71301,5.86436c-3.1552,0 -5.71301,-2.62558 -5.71301,-5.86436c0,-3.23879 2.55781,-5.86434 5.71301,-5.86434c3.1552,0 5.71301,2.62555 5.71301,5.86434z" fill="#a56aff" stroke="#904df8" stroke-width="1"/><path d="M238.19894,185.09605c0,3.23879 -2.55781,5.86434 -5.71301,5.86434c-3.1552,0 -5.71301,-2.62555 -5.71301,-5.86434c0,-3.23879 2.55781,-5.86434 5.71301,-5.86434c3.1552,0 5.71301,2.62555 5.71301,5.86434z" fill="#a56aff" stroke="#904df8" stroke-width="1"/><path d="M251.81954,175.29436c0,3.23879 -2.55782,5.86435 -5.71302,5.86435c-3.1552,0 -5.71301,-2.62556 -5.71301,-5.86435c0,-3.23879 2.55781,-5.86434 5.71301,-5.86434c3.1552,0 5.71302,2.62555 5.71302,5.86434z" fill="#a56aff" stroke="#904df8" stroke-width="1"/><path d="M238.27462,179.1182c0,3.23879 -2.55782,5.86434 -5.71302,5.86434c-3.1552,0 -5.71301,-2.62556 -5.71301,-5.86434c0,-3.23879 2.55781,-5.86434 5.71301,-5.86434c3.1552,0 5.71302,2.62555 5.71302,5.86434z" fill="#a56aff" stroke="#904df8" stroke-width="1"/><path d="M244.55513,187.97148c0,3.23879 -2.55781,5.86436 -5.71301,5.86436c-3.1552,0 -5.71301,-2.62557 -5.71301,-5.86436c0,-3.23879 2.55781,-5.86434 5.71301,-5.86434c3.1552,0 5.71301,2.62556 5.71301,5.86434z" fill="#a56aff" stroke="#904df8" stroke-width="1"/><path d="M253.06211,186.80716c0,3.23879 -2.55781,5.86436 -5.71301,5.86436c-3.1552,0 -5.71301,-2.62557 -5.71301,-5.86436c0,-3.23879 2.55781,-5.86434 5.71301,-5.86434c3.1552,0 5.71301,2.62555 5.71301,5.86434z" fill="#a56aff" stroke="#904df8" stroke-width="1"/><path d="M247.4582,180.45888c0,4.17516 -3.2833,7.5598 -7.33345,7.5598c-4.05014,0 -7.33345,-3.38464 -7.33345,-7.5598c0,-4.17516 3.2833,-7.5598 7.33345,-7.5598c4.05014,0 7.33345,3.38464 7.33345,7.5598z" fill="#904df8" stroke="none" stroke-width="1"/><path d="M247.14191,180.8594c0,3.7568 -2.95431,6.80229 -6.59864,6.80229c-3.64433,0 -6.59864,-3.04549 -6.59864,-6.80229c0,-3.7568 2.95431,-6.80231 6.59864,-6.80231c3.64433,0 6.59864,3.04549 6.59864,6.80231z" fill="#a56aff" stroke="none" stroke-width="1"/><path d="M236.57877,182.82027c0,0.84627 -0.81307,1.5323 -1.81606,1.5323c-1.00298,0 -1.81606,-0.68602 -1.81606,-1.5323c0,-0.84627 0.81307,-1.5323 1.81606,-1.5323c1.00298,0 1.81606,0.68602 1.81606,1.5323z" fill="#7015e6" stroke="none" stroke-width="1"/><path d="M244.75102,176.01007c0,1.22239 -0.60981,2.21331 -1.36204,2.21331c-0.75224,0 -1.36203,-0.99092 -1.36203,-2.21331c0,-1.22239 0.60979,-2.21331 1.36203,-2.21331c0.75224,0 1.36204,0.99093 1.36204,2.21331z" fill="#7015e6" stroke="#7015e6" stroke-width="0"/><path d="M244.07,182.70675c0,0.75092 -0.09373,1.34485 -0.62548,1.84221c-0.46701,0.4368 -1.32372,0.82511 -2.04185,0.82511c-0.9454,0 -1.48315,-0.70331 -2.01865,-1.39849c-0.33443,-0.43413 -0.8757,-0.72663 -0.8757,-1.26884c0,-0.76907 1.27818,-0.6642 1.86383,-1.13241c0.48839,-0.39047 0.21863,-1.42142 0.91702,-1.42142c0.63496,0 0.99323,0.42246 1.46136,0.75144c0.66412,0.46669 1.31947,0.97511 1.31947,1.80239z" fill="#e6e6e6" stroke="#7015e6" stroke-width="1"/></g></g></svg>