<svg version="1.1" xmlns="http://www.w3.org/2000/svg" xmlns:xlink="http://www.w3.org/1999/xlink" width="55.86634" height="58.90977" viewBox="0,0,55.86634,58.90977"><g transform="translate(-212.06683,-150.50345)"><g data-paper-data="{&quot;isPaintingLayer&quot;:true}" fill-rule="nonzero" stroke-linecap="butt" stroke-linejoin="miter" stroke-miterlimit="10" stroke-dasharray="" stroke-dashoffset="0" style="mix-blend-mode: normal"><path d="M213.31683,181.17096c0,-14.90741 11.94645,-26.99222 26.68318,-26.99222c14.7367,0 26.68316,12.08482 26.68316,26.99222c0,14.90741 -11.94646,26.99226 -26.68316,26.99226c-14.7367,0 -26.68318,-12.08485 -26.68318,-26.99226z" fill="#f10e0d" stroke="#9d0100" stroke-width="2.5"/><path d="M225.60606,178.72271c0,-1.59315 1.29152,-2.88467 2.88467,-2.88467c1.59315,0 2.88465,1.29152 2.88465,2.88467c0,1.59315 -1.2915,2.88465 -2.88465,2.88465c-1.59315,0 -2.88467,-1.2915 -2.88467,-2.88465z" fill="#9d0100" stroke="none" stroke-width="1.5"/><path d="M248.47735,178.72271c0,-1.59315 1.29152,-2.88467 2.88467,-2.88467c1.59315,0 2.88465,1.29152 2.88465,2.88467c0,1.59315 -1.2915,2.88465 -2.88465,2.88465c-1.59315,0 -2.88467,-1.2915 -2.88467,-2.88465z" fill="#9d0100" stroke="none" stroke-width="1.5"/><path d="M230.43244,162.73305c1.39416,1.42204 0.18508,3.85414 -1.68389,5.68647c-1.86896,1.83233 -3.69007,2.37099 -5.08422,0.94893c-1.39416,-1.42204 -2.24552,-2.41186 0.85975,-5.89254c1.7424,-1.95309 4.51422,-2.16492 5.90838,-0.74286z" fill="#ffeab5" stroke="none" stroke-width="1.5"/><path d="M236.52659,162.13585c0,0.85348 -0.69187,1.54536 -1.54536,1.54536c-0.85348,0 -1.54537,-0.69187 -1.54537,-1.54536c0,-0.85348 0.69188,-1.54536 1.54537,-1.54536c0.85348,0 1.54536,0.69187 1.54536,1.54536z" fill="#ffeab5" stroke="none" stroke-width="1.5"/><path d="M251.83727,157.85666c0,0 1.15111,0.59441 1.70748,0.92253c7.7345,4.5615 12.93234,13.04316 12.93234,22.75289c0,14.53543 -11.64835,26.3187 -26.01734,26.3187c-4.68671,0 -9.08398,-1.25356 -12.88202,-3.44733c-0.46153,-0.26659 -1.35751,-0.84082 -1.35751,-0.84082c0,0 17.28809,7.54243 31.75165,-9.88587c12.27619,-14.79258 -6.13462,-35.82006 -6.13462,-35.82006z" fill="#e00302" stroke="#ea6008" stroke-width="0"/><path d="M236.84298,183.70594c-0.59801,-0.44403 2.52056,-3.94541 3.43446,-3.86676c0.80294,0.0691 3.24394,3.31337 2.64188,3.86676c-0.20341,0.18697 -5.9329,0.10651 -6.07634,0z" fill="#ffffff" stroke="#9d0100" stroke-width="1.5"/><path d="M248.10287,151.42411c0,0.71186 -1.06057,1.47306 -3.95882,1.47306c-1.34753,0 -1.56128,3.56761 -2.1924,4.55524c-0.72628,1.13654 -1.95056,-0.67587 -1.95056,-1.05675c0,-0.71186 0.87645,-5.89221 3.7747,-5.89221c2.89825,0 4.32708,0.2088 4.32708,0.92065z" fill="#95660f" stroke="none" stroke-width="1.5"/></g></g></svg>