<svg version="1.1" xmlns="http://www.w3.org/2000/svg" xmlns:xlink="http://www.w3.org/1999/xlink" width="25.19494" height="49.75254" viewBox="0,0,25.19494,49.75254"><defs><linearGradient x1="242.31688" y1="154.58204" x2="242.31688" y2="201.77935" gradientUnits="userSpaceOnUse" id="color-1"><stop offset="0" stop-color="#fdf4d4"/><stop offset="1" stop-color="#ffc549"/></linearGradient></defs><g transform="translate(-229.13569,-152.47256)"><g data-paper-data="{&quot;isPaintingLayer&quot;:true}" fill-rule="nonzero" stroke="none" stroke-linecap="butt" stroke-linejoin="miter" stroke-miterlimit="10" stroke-dasharray="" stroke-dashoffset="0" style="mix-blend-mode: normal"><path d="M249.89443,181.21171c0,13.03318 -3.55201,20.56764 -7.57755,20.56764c-2.15112,0 -4.90972,-0.19269 -5.66818,-4.10822c-0.6609,-3.41187 0.54431,-10.10209 0.54431,-16.17075c0,-3.54227 3.57065,-11.87497 2.57347,-14.78586c-0.8513,-2.48504 -4.70377,-0.1984 -6.25534,-1.28503c-2.9322,-2.05356 -3.58524,-6.13361 -1.9655,-6.81462c0.2131,-0.0896 10.539,-4.03284 10.77124,-4.03284c1.97935,0 8.17425,0.83352 9.55868,5.72463c1.43117,5.05626 -1.98113,14.28027 -1.98113,20.90504z" fill="url(#color-1)" stroke-width="0"/><path d="M238.17,168.56c0.06066,-0.33961 -0.01946,-0.68909 -0.22168,-0.96691c-0.20222,-0.27781 -0.50884,-0.45965 -0.84832,-0.50309c-3.68,-0.46667 -6.26667,-2.37333 -7.76,-5.72c-0.78,-1.75 0.81,-3.53 2.46,-4.36c3.13,-1.58 7.17,-4.71 10.58,-4.53c5.04,0.27 10.06,3.41 11.66,8.35c0.88,2.71 -0.46,5.88 -1.09,8.71c-0.34,1.5 -0.39,3.28 -0.82,4.94c-0.52,2.02 -0.46,4.06 -1.03,6.08c-0.6,2.09 -0.45,3.87 -0.5,5.94c-0.06,2.48 -0.57,5.76 -0.76,8.98c-0.3,5.16 -4.72,7.52 -9.39,6.52c-6.03,-1.29 -5.75,-8.33 -5.22,-13.23c0.74667,-6.87333 1.72667,-13.61 2.94,-20.21zM240.1,173.45c-0.86,4.54 -1.61,9.31333 -2.25,14.32c-0.49,3.83 -1.52,11.55 4.01,12.11c2.93,0.3 4.93,-1.11 5.17,-4.14c0.56,-7.33333 1.29667,-14.54667 2.21,-21.64c0.51333,-3.31333 1.15,-6.51 1.91,-9.59c1.57,-6.38 -6.38,-9.95 -11.35,-8.55c-2.15,0.6 -4.55,2.47 -6.76,3.6c-0.46691,0.24176 -0.79064,0.69157 -0.87163,1.21108c-0.08099,0.51951 0.09047,1.04651 0.46163,1.41892c2.56667,2.58 5.43667,3 8.61,1.26c0.20221,-0.11043 0.4502,-0.09305 0.63503,0.04449c0.18483,0.13755 0.27269,0.3701 0.22497,0.59551z" fill="#976324" stroke-width="1"/></g></g></svg>