<svg version="1.1" xmlns="http://www.w3.org/2000/svg" xmlns:xlink="http://www.w3.org/1999/xlink" width="42" height="56" viewBox="0,0,42,56"><defs><linearGradient x1="241.01015" y1="157.51407" x2="241.01015" y2="205.57739" gradientUnits="userSpaceOnUse" id="color-1"><stop offset="0" stop-color="#fdf4d4"/><stop offset="1" stop-color="#ffc549"/></linearGradient></defs><g transform="translate(-219,-155.38958)"><g data-paper-data="{&quot;isPaintingLayer&quot;:true}" fill-rule="nonzero" stroke="none" stroke-linecap="butt" stroke-linejoin="miter" stroke-miterlimit="10" stroke-dasharray="" stroke-dashoffset="0" style="mix-blend-mode: normal"><path d="M252.19605,179.66939c0,5.71118 7.23731,-3.85062 8.33934,12.64848c0.40456,6.05695 -12.64529,13.25952 -19.52524,13.25952c-7.97541,0 -16.57998,-5.05173 -17.87724,-12.40359c-0.66709,-3.78055 4.52632,-8.27549 4.52632,-12.78275c0,-5.47135 -5.26815,-9.4534 -4.16755,-13.26226c1.56922,-5.43063 10.42029,-9.61472 17.51847,-9.61472c7.98137,0 17.12816,3.58682 17.7365,10.05397c0.62421,6.63569 -6.5506,7.60064 -6.5506,12.10135zM237.79353,166.0412c-1.95084,0.13243 -3.49224,1.75685 -3.49224,3.74128c0,0.75194 0.22131,1.45218 0.60235,2.03915c0.0418,0.75243 1.03703,1.24243 1.99833,1.53144c0.07955,0.02559 0.16026,0.04859 0.24204,0.06891c0.52537,0.14153 1.01477,0.22299 1.30044,0.25483c2.66234,0.29673 7.54254,-1.02251 7.54254,-4.32734c0,-3.34167 -7.05257,-4.52424 -8.19345,-3.30828z" fill="url(#color-1)" stroke-width="0"/><path d="M219,155.38958h42v30c-1.13333,-0.74 -2.04667,-1.57667 -2.74,-2.51c-0.86,-1.29333 -1.94667,-2.34667 -3.26,-3.16c-0.29962,-0.18211 -0.48335,-0.50659 -0.48539,-0.85721c-0.00204,-0.35062 0.17791,-0.67721 0.47539,-0.86279c3.01,-1.88 4.44,-4.49 4.6,-8.13c0.31,-7.02 -2.28,-12.75 -10.13,-12.5c-1.37,0.04 -2.38,-0.95 -3.82,-0.96c-2.41333,-0.02 -4.83,-0.03333 -7.25,-0.04c-5.09,-0.01 -12.71,2.86 -14.81,8.04c-0.61,1.48 -0.79,3.55 -1.53,5.28c-0.40532,0.94434 -0.20008,2.0416 0.52,2.78c0.22667,0.23333 0.35667,0.65667 0.39,1.27c0.12,1.98 2.39,5.19 3.58,6.65c0.44,0.52667 0.42,1.03667 -0.06,1.53c-2.31333,2.37333 -3.96333,5.05 -4.95,8.03c-0.46,1.40667 -0.43667,2.86667 0.07,4.38c2.3,6.85 6.88,10.5 14.39,10.68c0.96,0.03 1.69,0.53 2.54,0.56c7.12,0.24 17.04,-0.22 20.99,-7.65c0.56667,-0.67333 1.06,-1.61333 1.48,-2.82v16.29h-42z" fill-opacity="0.004" fill="#010100" stroke-width="1"/><path d="M258.26,182.87958c-0.59333,-0.28 -1.12667,-0.71333 -1.6,-1.3c-0.22667,-0.28667 -0.52,-0.39667 -0.88,-0.33c-0.28667,0.05333 -0.54333,0.16333 -0.77,0.33c-0.30667,0.22 -0.61667,0.23 -0.93,0.03l-3.31,-2.05c-0.46667,-0.28667 -0.48667,-0.59667 -0.06,-0.93c0.10667,-0.08667 0.22667,-0.13333 0.36,-0.14c0.36,0 0.55,-0.18 0.57,-0.54c0.04667,-0.56 -0.07333,-0.83667 -0.36,-0.83c0.50667,-0.26 0.90333,-0.60333 1.19,-1.03c3.94,-1.69 4.06,-5.18 4.07,-8.7c0.01,-2.43 -1.42,-6.38 -4.25,-6.62c-3.13,-0.27 -6.4,-1.31 -8.73,-1.53c-5.48,-0.52 -12.63,0.51 -16.16,4.81c-2.18,2.64667 -2.64333,5.93 -1.39,9.85c0.62,1.68667 1.52333,2.97333 2.71,3.86l2.74,2.71c0.15183,0.15425 0.2198,0.37249 0.18189,0.58401c-0.03791,0.21151 -0.17689,0.38939 -0.37189,0.47599c-1.68,0.74667 -2.95,1.86667 -3.81,3.36c-2.63,3.41 -3.92,7.53 -1.72,11.47c0.18,3.89 8.07,6.38 11.22,6.15c0.16667,-0.00667 0.17,-0.03667 0.01,-0.09c-0.12,-0.03333 -0.20333,-0.05333 -0.25,-0.06c-0.01438,-0.00572 -0.02603,-0.02156 -0.02603,-0.03536c0,-0.01381 0.01165,-0.02036 0.02603,-0.01464l9.8,0.37c1.83333,0.16 3.62667,0.04 5.38,-0.36c1.77,-0.4 3.21,-2.02 4.86,-2.96c0.04418,-0.03314 0.10686,-0.02418 0.14,0.02c0.03314,0.04418 0.02418,0.10686 -0.02,0.14c-0.77333,0.76 -1.67,1.28667 -2.69,1.58c-0.2432,0.07381 -0.40673,0.30474 -0.3948,0.55753c0.01192,0.25279 0.19616,0.46092 0.4448,0.50247c0.72667,0.12667 1.40667,-0.16333 2.04,-0.87c1.02,-1.13333 2.1,-2.25667 3.24,-3.37c-3.95,7.43 -13.87,7.89 -20.99,7.65c-0.85,-0.03 -1.58,-0.53 -2.54,-0.56c-7.51,-0.18 -12.09,-3.83 -14.39,-10.68c-0.50667,-1.51333 -0.53,-2.97333 -0.07,-4.38c0.98667,-2.98 2.63667,-5.65667 4.95,-8.03c0.48,-0.49333 0.5,-1.00333 0.06,-1.53c-1.19,-1.46 -3.46,-4.67 -3.58,-6.65c-0.03333,-0.61333 -0.16333,-1.03667 -0.39,-1.27c-0.72008,-0.7384 -0.92532,-1.83566 -0.52,-2.78c0.74,-1.73 0.92,-3.8 1.53,-5.28c2.1,-5.18 9.72,-8.05 14.81,-8.04c2.42,0.00667 4.83667,0.02 7.25,0.04c1.44,0.01 2.45,1 3.82,0.96c7.85,-0.25 10.44,5.48 10.13,12.5c-0.16,3.64 -1.59,6.25 -4.6,8.13c-0.29748,0.18558 -0.47743,0.51217 -0.47539,0.86279c0.00204,0.35062 0.18577,0.67509 0.48539,0.85721c1.31333,0.81333 2.4,1.86667 3.26,3.16z" fill="#946a2f" stroke-width="1"/><path d="M232.63,168.84958c0.35,-4.1 6.02,-4.45 9.37,-4.36c2.88,0.08667 5.18667,1.26667 6.92,3.54c0.52,0.68 0.45333,1.3 -0.2,1.86c-2.07333,1.76667 -4.15333,3.43667 -6.24,5.01c-2.45,1.86 -6.25,-0.3 -8.09,-2.02c-1.3,-1.22 -1.88667,-2.56333 -1.76,-4.03zM245.06,168.73958c0.23333,-0.19333 0.23,-0.37667 -0.01,-0.55c-2.93,-2.21 -4.96,-0.35 -8.04,-0.51c-0.3098,-0.01169 -0.59746,0.16564 -0.73,0.45c-1.19,2.63 1.89,3.28 3.49,4.21c0.32,0.18667 0.62333,0.16667 0.91,-0.06z" fill="#946a2f" stroke-width="1"/><path d="M245.06,168.73958l-4.38,3.54c-0.28667,0.22667 -0.59,0.24667 -0.91,0.06c-1.6,-0.93 -4.68,-1.58 -3.49,-4.21c0.13254,-0.28436 0.4202,-0.46169 0.73,-0.45c3.08,0.16 5.11,-1.7 8.04,0.51c0.24,0.17333 0.24333,0.35667 0.01,0.55z" fill-opacity="0.004" fill="#010100" stroke-width="1"/><path d="M251.28,177.11958c0.28667,-0.00667 0.40667,0.27 0.36,0.83c-0.02,0.36 -0.21,0.54 -0.57,0.54c-0.13333,0.00667 -0.25333,0.05333 -0.36,0.14c-0.42667,0.33333 -0.40667,0.64333 0.06,0.93l3.31,2.05c0.31333,0.2 0.62333,0.19 0.93,-0.03c0.22667,-0.16667 0.48333,-0.27667 0.77,-0.33c0.36,-0.06667 0.65333,0.04333 0.88,0.33c0.47333,0.58667 1.00667,1.02 1.6,1.3c0.69333,0.93333 1.60667,1.77 2.74,2.51v9.71c-0.42,1.20667 -0.91333,2.14667 -1.48,2.82c-1.14,1.11333 -2.22,2.23667 -3.24,3.37c-0.63333,0.70667 -1.31333,0.99667 -2.04,0.87c-0.24864,-0.04156 -0.43288,-0.24968 -0.4448,-0.50247c-0.01192,-0.25279 0.1516,-0.48372 0.3948,-0.55753c1.02,-0.29333 1.91667,-0.82 2.69,-1.58c0.04418,-0.03314 0.05314,-0.09582 0.02,-0.14c-0.03314,-0.04418 -0.09582,-0.05314 -0.14,-0.02c-1.65,0.94 -3.09,2.56 -4.86,2.96c-1.75333,0.4 -3.54667,0.52 -5.38,0.36c5.65,-1.31 10.15,-2.8 11.75,-8.15c0.91333,-5.11333 -0.47333,-9.06 -4.16,-11.84c-1.45,-1.1 -3.67,-1.91 -5.55,-3.02c-0.13765,-0.08015 -0.22262,-0.22669 -0.22465,-0.38749c-0.00204,-0.1608 0.07914,-0.31303 0.21465,-0.40251z" fill="#9f6921" stroke-width="1"/><path d="M244.84,190.74958c0.28667,0.27333 0.34,0.58667 0.16,0.94c-1.96,3.78 -4.84,2.57 -8.2,2.64c-0.68276,0.01847 -1.30632,-0.38206 -1.57486,-1.01159c-0.26854,-0.62952 -0.12804,-1.36139 0.35486,-1.84841l4.33,-4.36c0.30244,-0.29907 0.78427,-0.30791 1.09,-0.02z" fill="#9f6921" stroke-width="1"/><path d="M241,187.08958l3.84,3.66c0.28667,0.27333 0.34,0.58667 0.16,0.94c-1.96,3.78 -4.84,2.57 -8.2,2.64c-0.68277,0.01847 -1.30632,-0.38206 -1.57486,-1.01159c-0.26854,-0.62953 -0.12803,-1.36139 0.35486,-1.84841l4.33,-4.36c0.30244,-0.29907 0.78427,-0.30791 1.09,-0.02z" fill-opacity="0.004" fill="#010100" stroke-width="1"/></g></g></svg>