<svg version="1.1" xmlns="http://www.w3.org/2000/svg" xmlns:xlink="http://www.w3.org/1999/xlink" width="38.0071" height="50.02388" viewBox="0,0,38.0071,50.02388"><defs><linearGradient x1="240" y1="153.22599" x2="240" y2="206.77401" gradientUnits="userSpaceOnUse" id="color-1"><stop offset="0" stop-color="#fdf4d4"/><stop offset="1" stop-color="#ffc549"/></linearGradient><linearGradient x1="240" y1="153.22599" x2="240" y2="206.77401" gradientUnits="userSpaceOnUse" id="color-2"><stop offset="0" stop-color="#fdf4d4"/><stop offset="1" stop-color="#ffc549"/></linearGradient><linearGradient x1="240" y1="153.22599" x2="240" y2="206.77401" gradientUnits="userSpaceOnUse" id="color-3"><stop offset="0" stop-color="#fdf4d4"/><stop offset="1" stop-color="#ffc549"/></linearGradient></defs><g transform="translate(-218,-155.48991)"><g data-paper-data="{&quot;isPaintingLayer&quot;:true}" fill-rule="nonzero" stroke="none" stroke-linecap="butt" stroke-linejoin="miter" stroke-miterlimit="10" stroke-dasharray="" stroke-dashoffset="0" style="mix-blend-mode: normal"><path d="M227.82571,160.60713c0.56866,-0.46185 1.17765,-0.88735 1.97342,-1.1461c2.48607,-0.80836 5.19343,-1.3628 7.7516,-1.95725c2.12515,-0.49382 6.15682,1.60387 8.39978,1.77953c2.75704,0.21593 8.29132,2.29569 8.41324,5.85829c0.13976,4.08411 0.81115,7.41248 0.72167,11.74993c-0.02123,1.02911 -1.97957,3.29963 -2.3497,4.40028c-0.79943,2.37724 -0.79531,5.13915 -1.67402,7.51452c-1.3741,3.71455 -1.74626,7.62133 -3.03299,11.31461c-0.23289,0.66846 -0.89316,1.19161 -1.478,1.74688c-0.62378,0.00265 -1.21162,0.15761 -1.72824,0.4296l-0.03954,0.01977c-3.08098,0.237 -4.00645,0.9093 -7.36396,-0.63084c-0.09218,-0.04229 -1.09036,-0.28676 -1.10241,-0.36765c-0.48,-3.22299 2.77463,-8.28436 -1.15333,-10.52891c-1.15615,-0.66066 -5.13569,-1.15292 -6.78185,-1.19042c-3.40062,-0.07747 -7.12738,-6.62717 -7.5661,-9.7755c-0.43444,-3.11763 -0.62411,-6.95963 0.70647,-9.92262c1.12429,-2.50362 3.00911,-4.42965 3.02019,-7.24766c1.43327,-0.02177 2.67157,-0.84763 3.28374,-2.04646zM233.13806,180.5872c1.362,2.38351 4.29627,0.4245 5.53923,-0.75422c2.86935,-2.72106 6.79711,-11.27447 2.21883,-14.02143c-5.22947,-3.13768 -9.16573,3.97391 -9.57577,8.11493c-0.04986,0.50354 -0.61349,4.70172 0.4276,5.29663z" fill="url(#color-1)" stroke-width="0"/><path d="" fill="url(#color-2)" stroke-width="0"/><path d="" fill="url(#color-3)" stroke-width="0"/><path d="M235.18,155.74c1.81333,-0.34 3.74667,-0.33333 5.8,0.02c2.76,1.23 7.1,1.78 10.06,1.67c1.60667,1.82667 2.94333,3.85 4.01,6.07c0.62667,1.28667 0.91667,2.85333 0.87,4.7c-0.04,1.76667 -0.01333,3.53333 0.08,5.3c0.04667,0.8 -0.13667,1.51667 -0.55,2.15c-0.17333,0.26 -0.28667,0.54667 -0.34,0.86c-0.45,2.63 -1.78,5.04 -2.28,7.38c-1.7,7.94 -3.14,13.4 -4.32,16.38c-0.39333,0.99333 -1.50667,2.17 -3.34,3.53c-1.17,0.87 -2.16,0.59 -3.42,1.52c-0.25696,0.19347 -0.59761,0.24588 -0.91,0.14c-4.22,-1.49 -7.54,-3.31 -6.89,-8.31c0.2,-1.54 1.56,-2.8 0.97,-5.05c-0.08,-0.32 -0.28667,-0.47333 -0.62,-0.46c-6.28,0.31333 -11.13667,-2.14 -14.57,-7.36c-0.72667,-1.09333 -1.30333,-3.32333 -1.73,-6.69v-3.06l0.54,-3.91c1.54,-1.86 2.05,-3.52 1.53,-4.98l4.5,-4.98c3.09333,-2.06667 6.63,-3.70667 10.61,-4.92zM221.27,179.99c1.33,8.1 9.57,9.92 16.92,9.11c0.1,1.86667 -0.19667,3.90667 -0.89,6.12c-0.97,3.11 -1.41,6.14 2.19,7.21c7.14,2.11 8.26,-8.34 9.41,-13.78l3.13,-10.67c1.16,-2.59333 1.30333,-5.14333 0.43,-7.65c-0.11333,-0.32667 -0.10667,-0.65333 0.02,-0.98c0.6,-1.49333 0.52333,-3.18 -0.23,-5.06c-2.01,-5.01 -4.17,-3.8 -8.33,-4.73c-7.33,-1.64 -13.91,-0.93 -18.88,4.97c-3.69333,4.37333 -4.95,9.52667 -3.77,15.46z" fill="#9e6125" stroke-width="1"/><path d="M243.4,176.58c-1.24,2.91 -3.07,6.28 -6.65,6.64c-2.56,0.25333 -4.7,-0.48667 -6.42,-2.22c-3.97,-8.82 1.93,-21.16 13.01,-16.1c1.57333,0.72 1.99333,1.87667 1.26,3.47c-0.14,0.29333 -0.19,0.60333 -0.15,0.93c0.31333,2.46 -0.03667,4.88667 -1.05,7.28zM233.65,169.88c-1.96,3.02667 -2.24667,6.05667 -0.86,9.09c1.07,2.37 3.93,1.98 5.41,0.27c2.68,-3.09333 3.56,-6.71 2.64,-10.85l0.43,-0.63c0.11721,-0.16169 0.14792,-0.37038 0.0825,-0.56067c-0.06542,-0.1903 -0.21895,-0.33893 -0.4125,-0.39933c-3.68667,-1.13333 -6.11667,-0.10667 -7.29,3.08z" fill="#9e6125" stroke-width="1"/></g></g></svg>