<svg version="1.1" xmlns="http://www.w3.org/2000/svg" xmlns:xlink="http://www.w3.org/1999/xlink" width="40" height="52.13111" viewBox="0,0,40,52.13111"><defs><linearGradient x1="240" y1="153.79155" x2="240" y2="205.92266" gradientUnits="userSpaceOnUse" id="color-1"><stop offset="0" stop-color="#fdf4d4"/><stop offset="1" stop-color="#ffc549"/></linearGradient></defs><g transform="translate(-220,-153.79155)"><g data-paper-data="{&quot;isPaintingLayer&quot;:true}" fill-rule="nonzero" stroke="none" stroke-width="1" stroke-linecap="butt" stroke-linejoin="miter" stroke-miterlimit="10" stroke-dasharray="" stroke-dashoffset="0" style="mix-blend-mode: normal"><path d="M260,162.1v6.37c-4.98666,7.39334 -7.94333,12.37 -8.87,14.93c-1.49334,4.13333 -2.91666,9.58666 -4.27,16.36c-0.47333,2.36 -1.67334,4.11667 -3.6,5.27c-1.82,1.08 -3.70333,1.18 -5.65,0.3c-1.66666,-0.76 -2.94666,-1.96667 -3.84,-3.62c-1.05,-1.96 -1.24,-7.08 -0.33,-9.16c0.69,-1.61 0.92,-3.83 1.32,-5.04c0.79334,-2.37333 1.63666,-4.73333 2.53,-7.08c0.06587,-0.16435 0.1685,-0.31144 0.3,-0.43c0.36,-0.32 0.5,-0.72334 0.42,-1.21c-0.06667,-0.37333 0.08,-0.62667 0.44,-0.76c0.48,-0.17334 0.65,-0.52667 0.51,-1.06c-0.01306,-0.06449 -0.00607,-0.13088 0.02,-0.19l2.58,-5.64c0.15133,-0.33759 0.03882,-0.73766 -0.26601,-0.94584c-0.30483,-0.20818 -0.71257,-0.16341 -0.96399,0.10584c-0.27334,0.28666 -0.39334,0.47666 -0.36,0.57c0.00701,0.02243 0.00395,0.04686 -0.00814,0.06499c-0.01209,0.01813 -0.03158,0.02753 -0.05186,0.02501l-5.39,0.06c-0.39368,0.00547 -0.70996,0.32175 -0.71,0.71l-0.02,5.51c0,0.34667 -0.11334,0.65333 -0.34,0.92c-2.61,3.01 -7.48,4.25 -10.85,1.69c-2.04,-1.55 -1.75,-4.22 -2.6,-5.96v-7.62c0.68,-0.96667 0.68,-2.10333 0,-3.41v-3.67c1.76,-4.21334 4.63666,-5.23666 8.63,-3.07c1.16666,0.63333 2.13666,1.1 2.91,1.4c0.38666,0.15333 0.76333,0.14 1.13,-0.04c0.88,-0.42 1.81,-0.57666 2.79,-0.47c0.31976,0.03189 0.63991,-0.06523 0.89,-0.27c0.74,-0.62 1.60666,-0.86334 2.6,-0.73c0.33795,0.0497 0.67949,-0.07416 0.91,-0.33c0.61334,-0.68 1.40333,-0.88666 2.37,-0.62c0.29626,0.07714 0.60887,0.04516 0.88,-0.09c2.42,-1.20666 4.42666,-1.48667 6.02,-0.84c1.78,0.72 3.93,0.89 5.4,1.79c2.35333,1.42667 4.17666,3.48667 5.47,6.18z" fill="url(#color-1)"/><path d="M260,162.1v6.37c-4.98666,7.39334 -7.94333,12.37 -8.87,14.93c-1.49334,4.13333 -2.91666,9.58666 -4.27,16.36c-0.47333,2.36 -1.67334,4.11667 -3.6,5.27c-1.82,1.08 -3.70333,1.18 -5.65,0.3c-1.66666,-0.76 -2.94666,-1.96667 -3.84,-3.62c-1.05,-1.96 -1.24,-7.08 -0.33,-9.16c0.69,-1.61 0.92,-3.83 1.32,-5.04c0.79334,-2.37333 1.63666,-4.73333 2.53,-7.08c0.06587,-0.16435 0.1685,-0.31144 0.3,-0.43c0.36,-0.32 0.5,-0.72334 0.42,-1.21c-0.06667,-0.37333 0.08,-0.62667 0.44,-0.76c0.48,-0.17334 0.65,-0.52667 0.51,-1.06c-0.01306,-0.06449 -0.00607,-0.13088 0.02,-0.19l2.58,-5.64c0.15133,-0.33759 0.03882,-0.73766 -0.26601,-0.94584c-0.30483,-0.20818 -0.71257,-0.16341 -0.96399,0.10584c-0.27334,0.28666 -0.39334,0.47666 -0.36,0.57c0.00701,0.02243 0.00395,0.04686 -0.00814,0.06499c-0.01209,0.01813 -0.03158,0.02753 -0.05186,0.02501l-5.39,0.06c-0.39368,0.00547 -0.70996,0.32175 -0.71,0.71l-0.02,5.51c0,0.34667 -0.11334,0.65333 -0.34,0.92c-2.61,3.01 -7.48,4.25 -10.85,1.69c-2.04,-1.55 -1.75,-4.22 -2.6,-5.96v-7.62c0.68,-0.96667 0.68,-2.10333 0,-3.41v-3.67c1.76,-4.21334 4.63666,-5.23666 8.63,-3.07c1.16666,0.63333 2.13666,1.1 2.91,1.4c0.38666,0.15333 0.76333,0.14 1.13,-0.04c0.88,-0.42 1.81,-0.57666 2.79,-0.47c0.31976,0.03189 0.63991,-0.06523 0.89,-0.27c0.74,-0.62 1.60666,-0.86334 2.6,-0.73c0.33795,0.0497 0.67949,-0.07416 0.91,-0.33c0.61334,-0.68 1.40333,-0.88666 2.37,-0.62c0.29626,0.07714 0.60887,0.04516 0.88,-0.09c2.42,-1.20666 4.42666,-1.48667 6.02,-0.84c1.78,0.72 3.93,0.89 5.4,1.79c2.35333,1.42667 4.17666,3.48667 5.47,6.18zM249.76,164.76c-7.82666,10.02 -12.46333,20.76667 -13.91,32.24c-0.8,6.36 6.89,8.93 8.05,2.07c1.58,-9.24 3.76,-16.68 8.98,-24.47c1.32666,-1.98 2.62333,-3.99334 3.89,-6.04c1.44666,-2.77334 1.2,-5.30666 -0.74,-7.6c-5.93,-7 -15.86,-2.34 -22.78,-0.26c-1.6,0.48 -2.58,0.38 -4.03,-0.67c-1.51,-1.09 -4.3,-2.62 -5.88,-1.14c-0.55017,0.52026 -0.75263,1.30677 -0.52,2.02c0.52,1.65 0.95,3.01 0.7,4.82c-0.5,3.65 -2.07,16.19 5.97,12.48c0.58845,-0.27358 0.95515,-0.869 0.93,-1.51l-0.3,-7.69c-0.01028,-0.25133 0.10128,-0.49218 0.29962,-0.64689c0.19834,-0.15471 0.45911,-0.20427 0.70038,-0.13311c3.58,1.04666 7.02333,0.66667 10.33,-1.14c2.79334,-1.52667 5.56333,-2.30334 8.31,-2.33z" fill="#9c6121"/></g></g></svg>