<svg version="1.1" xmlns="http://www.w3.org/2000/svg" xmlns:xlink="http://www.w3.org/1999/xlink" width="21.27836" height="23.60047" viewBox="0,0,21.27836,23.60047"><g transform="translate(-229.36082,-167.99143)"><g data-paper-data="{&quot;isPaintingLayer&quot;:true}" fill-rule="nonzero" stroke-linecap="butt" stroke-linejoin="miter" stroke-miterlimit="10" stroke-dasharray="" stroke-dashoffset="0" style="mix-blend-mode: normal"><path d="M250.13918,178.83645c0,5.5125 -5.11184,12.25545 -10.17076,12.25545c-5.05894,0 -10.1076,-6.36392 -10.1076,-11.87642c0,-5.5125 5.04867,-8.08608 10.1076,-8.08608c5.05894,0 10.17076,2.19455 10.17076,7.70705z" fill="#fc6a4e" stroke="#d9241f" stroke-width="1"/><path d="M234.58756,177.75557c0,0.68549 -0.35239,1.2412 -0.78711,1.2412c-0.43472,0 -0.78711,-0.55571 -0.78711,-1.2412c0,-0.68549 0.35239,-1.2412 0.78711,-1.2412c0.43472,0 0.78711,0.55569 0.78711,1.2412z" fill="#ffdda3" stroke="none" stroke-width="0.5"/><path d="M249.83644,178.72138c0,1.84038 -0.35423,3.93902 -1.31295,5.76127c-1.87011,3.55449 -5.41151,6.37176 -8.70597,6.37176c-2.10073,0 -4.29552,-1.5926 -4.29552,-1.5926c0,0 3.70433,0.10103 6.18346,-1.06568c1.66123,-0.7818 4.30079,-3.8464 5.2457,-6.92557c0.68535,-2.23332 -0.03728,-4.70386 -0.17652,-5.20774c-0.87743,-3.17542 -2.72861,-4.2072 -1.46124,-3.74738c2.69436,0.97758 4.52304,3.11073 4.52304,6.40589z" fill="#d9241f" stroke="#d9241f" stroke-width="0.5"/><path d="M240.27889,177.51339c0,0.51831 -0.31174,0.93846 -0.69629,0.93846c-0.38455,0 -0.69627,-0.42017 -0.69627,-0.93846c0,-0.51831 0.31172,-0.93848 0.69627,-0.93848c0.38455,0 0.69629,0.42017 0.69629,0.93848z" fill="#ffdda3" stroke="none" stroke-width="0.5"/><path d="M245.72805,177.24091c0,0.56847 -0.35239,1.02929 -0.78709,1.02929c-0.43472,0 -0.78709,-0.46084 -0.78709,-1.02929c0,-0.56847 0.35239,-1.02927 0.78709,-1.02927c0.43472,0 0.78709,0.46082 0.78709,1.02927z" fill="#ffdda3" stroke="none" stroke-width="0.5"/><path d="M248.21044,180.11687c0,0.48486 -0.25752,0.87792 -0.5752,0.87792c-0.31768,0 -0.5752,-0.39306 -0.5752,-0.87792c0,-0.48486 0.25752,-0.87792 0.5752,-0.87792c0.31768,0 0.5752,0.39306 0.5752,0.87792z" fill="#ffdda3" stroke="none" stroke-width="0.5"/><path d="M246.21241,183.87074c0,0.41797 -0.23041,0.75681 -0.51465,0.75681c-0.28424,0 -0.51465,-0.33884 -0.51465,-0.75681c0,-0.41797 0.23043,-0.75683 0.51465,-0.75683c0.28424,0 0.51465,0.33886 0.51465,0.75683z" fill="#ffdda3" stroke="none" stroke-width="0.5"/><path d="M243.54837,186.8375c0,0.38455 -0.16265,0.69629 -0.36328,0.69629c-0.20063,0 -0.36328,-0.31174 -0.36328,-0.69629c0,-0.38455 0.16265,-0.69627 0.36328,-0.69627c0.20063,0 0.36328,0.31172 0.36328,0.69627z" fill="#ffdda3" stroke="none" stroke-width="0.5"/><path d="M239.2496,187.92732c0,0.48486 -0.27108,0.87792 -0.60546,0.87792c-0.33438,0 -0.60546,-0.39306 -0.60546,-0.87792c0,-0.48486 0.27108,-0.8779 0.60546,-0.8779c0.33438,0 0.60546,0.39306 0.60546,0.8779z" fill="#ffdda3" stroke="none" stroke-width="0.5"/><path d="M236.58556,184.08264c0,0.56847 -0.27108,1.02929 -0.60546,1.02929c-0.33438,0 -0.60546,-0.46082 -0.60546,-1.02929c0,-0.56847 0.27108,-1.02929 0.60546,-1.02929c0.33438,0 0.60546,0.46082 0.60546,1.02929z" fill="#ffdda3" stroke="none" stroke-width="0.5"/><path d="M233.31608,181.78188c0,0.6019 -0.3253,1.08983 -0.72655,1.08983c-0.40125,0 -0.72655,-0.48793 -0.72655,-1.08983c0,-0.6019 0.3253,-1.08983 0.72655,-1.08983c0.40125,0 0.72655,0.48793 0.72655,1.08983z" fill="#ffdda3" stroke="none" stroke-width="0.5"/><path d="M245.849,171.58958c0,0.2158 -0.24689,1.0548 -0.78552,1.35178c-0.6299,0.34731 -1.56588,0.1391 -1.56588,0.1391c0,0 -0.86547,0.95021 -1.49413,1.00358c-0.95425,0.08104 -1.65046,-1.16784 -1.65046,-1.16784c0,0 -0.82488,0.75145 -2.02395,0.77917c-0.58589,0.01354 -1.21177,-0.8495 -1.21177,-0.8495c0,0 -1.13983,0.18669 -1.89837,0.02365c-0.64696,-0.13906 -0.93046,-0.6014 -0.93046,-0.9009c0,-1.57592 3.37702,-1.49703 4.62352,-2.39451c0.9547,-0.68737 -0.03206,-1.33268 1.31467,-1.33268c1.45714,0 0.69554,1.00442 1.59299,1.53646c1.54425,0.9155 4.02936,1.03938 4.02936,1.81169z" fill="#b3f234" stroke="#679719" stroke-width="0.5"/><path d="M237.91324,181.53593c0,0.89387 -0.43844,1.079 -1.12717,1.079c-0.68873,0 -1.24705,-0.72463 -1.24705,-1.6185c0,-0.54726 0.20925,-0.80923 0.52961,-1.10218c0.07269,-0.06647 0.33005,0.01065 0.63041,0.17813c0.53808,0.29999 1.21418,0.88989 1.21418,1.46353z" fill="#da0f06" stroke="none" stroke-width="0.5"/><path d="M243.92431,181.03445c0,0.84226 -0.50899,1.52506 -1.13685,1.52506c-0.62786,0 -1.0814,-0.29459 -1.0814,-1.13685c0,-0.84226 1.55919,-1.74056 1.71589,-1.63131c0.36436,0.25408 0.50234,0.65414 0.50234,1.2431z" fill="#da0f06" stroke="none" stroke-width="0.5"/><path d="M241.37333,183.36359c0,0.53598 -0.64553,0.97048 -1.44184,0.97048c-0.79631,0 -1.44186,-0.4345 -1.44186,-0.97048c0,-0.53598 0.64555,-0.97048 1.44186,-0.97048c0.79631,0 1.44184,0.4345 1.44184,0.97048z" fill="#ffffff" stroke="#da0f06" stroke-width="0.5"/></g></g></svg>