<svg version="1.1" xmlns="http://www.w3.org/2000/svg" xmlns:xlink="http://www.w3.org/1999/xlink" width="128.8661" height="128.83387" viewBox="0,0,128.8661,128.83387"><g transform="translate(-175.56695,-115.58306)"><g data-paper-data="{&quot;isPaintingLayer&quot;:true}" fill-rule="nonzero" stroke-linecap="butt" stroke-linejoin="miter" stroke-miterlimit="10" stroke-dasharray="" stroke-dashoffset="0" style="mix-blend-mode: normal"><path d="M179.23841,180.64524c-0.2181,-3.07581 -0.05453,-6.10547 0.49073,-9.089c0.57602,-3.15969 0.86962,-4.77309 0.8808,-4.8402c0.64592,-3.74549 2.06778,-6.75698 3.27154,-10.09982c0.67668,-1.88183 1.37992,-3.47566 2.10972,-4.78148c1.7616,-3.1541 3.64903,-6.11665 5.66228,-8.88768" fill="none" stroke="#138609" stroke-width="2"/><path d="M180.37926,190.98413c-0.96748,-3.41974 -1.34777,-6.86603 -1.14085,-10.3389" fill="none" stroke="#32970a" stroke-width="2"/><path d="M183.42011,201.53694c-1.36734,-3.34704 -2.38095,-6.86464 -3.04085,-10.55281" fill="none" stroke="#117b08" stroke-width="2"/><path d="M197.67227,222.41187c-2.21038,-1.93356 -4.34527,-3.80841 -6.07751,-6.19914c-2.41031,-3.32187 -4.65565,-6.90658 -6.73601,-10.75413c-0.67947,-1.25828 -1.15902,-2.5655 -1.43864,-3.92165" fill="none" stroke="#268e0a" stroke-width="2"/><path d="M275.30418,227.4492c-0.5872,0.53966 -1.14224,1.1003 -1.66513,1.68191c-0.53966,0.59838 -1.12267,1.07654 -1.74902,1.43445c-2.57948,1.48058 -4.82342,3.09957 -7.79716,4.30752c-2.1978,0.89757 -5.05411,1.52253 -7.54971,2.4201c-0.87521,0.31317 -1.9084,0.5858 -3.09957,0.81788c-1.468,0.28941 -2.68434,0.79691 -4.19428,0.89757c-1.22193,0.08109 -2.43408,0.2223 -3.63644,0.42363c-0.12303,0.02237 -0.18734,-0.02936 -0.19294,-0.15519c-0.00279,-0.10346 0.02097,-0.16218 0.07131,-0.17616c3.06182,-0.89338 5.92232,-2.20619 8.88348,-3.3722c0.37329,-0.15099 0.46557,-0.31876 0.78014,-0.52428c0.09587,-0.05958 0.13481,-0.17839 0.09293,-0.28358c-0.04188,-0.10519 -0.15285,-0.16738 -0.2649,-0.14843c-2.14747,0.40265 -4.17331,1.06116 -6.25367,1.47639c-1.59942,0.32156 -3.17227,0.74238 -4.71856,1.26247c-0.79132,0.26564 -1.56587,0.39566 -2.32363,0.39007c-2.97374,-0.01258 -6.3837,0.34813 -9.25677,-0.43621c-1.87065,-0.50891 -3.76367,-0.90177 -5.67905,-1.17859c-3.03666,-0.4404 -4.39561,-1.09052 -6.75279,-2.72628c-1.8315,-1.26667 -3.98876,-2.2733 -6.47177,-3.01988c-0.69066,-0.20972 -1.41487,-0.45018 -2.17264,-0.72142c-0.72421,-0.26005 -1.45682,-0.48794 -2.19781,-0.68367c-0.56483,-0.1482 -1.30861,-0.41803 -2.23135,-0.80949c-0.71023,-0.29919 -1.45402,-0.5131 -2.23136,-0.64173c-0.10626,-0.01957 -0.19574,-0.0699 -0.26844,-0.15099c-0.29919,-0.33834 -0.68506,-0.51729 -1.15762,-0.53687c-0.15099,-0.00839 -0.27263,-0.0727 -0.36491,-0.19294c-0.37748,-0.5145 -0.85284,-0.90457 -1.42605,-1.17021c-0.65711,-0.30478 -1.11148,-0.57322 -1.36314,-0.8053c-0.84445,-0.77734 -1.65814,-1.58264 -2.44107,-2.41591" fill="none" stroke="#138609" stroke-width="2"/><path d="M291.80447,210.05971c-0.74938,1.12407 -1.49735,2.26351 -2.24394,3.41834c-0.81089,1.26108 -1.6092,2.36278 -2.39493,3.30509c-2.48301,2.97794 -4.70458,5.34351 -6.66471,7.09672c-1.04298,0.93393 -2.77521,2.12371 -5.19671,3.56933" fill="none" stroke="#268e0a" stroke-width="2"/><path d="M298.95992,189.92298c0.12863,1.42046 -0.08109,2.72348 -0.62914,3.90907c-0.46696,1.00663 -0.75497,1.70707 -0.86402,2.10134c-0.57462,2.13489 -1.03599,4.14814 -1.94615,6.20334c-0.87241,1.9797 -1.56446,3.97198 -2.68434,5.8678c-0.38308,0.64872 -0.72701,1.33378 -1.03179,2.0552" fill="none" stroke="#138609" stroke-width="2"/><path d="M298.95992,189.92298l0.70464,-4.53401" fill="none" stroke="#268e0a" stroke-width="2"/><path d="M299.50936,171.99244c0.36351,4.51304 0.41524,8.97855 0.15519,13.39653" fill="none" stroke="#138609" stroke-width="2"/><path d="M296.16233,158.54978c0.60397,2.28169 1.30722,4.59134 2.10972,6.92895c0.74239,2.16844 0.85563,4.27816 1.23731,6.51372" fill="none" stroke="#268e0a" stroke-width="2"/><path d="M278.91965,133.95452c0.97587,0.76336 1.9042,1.65255 2.785,2.66756c0.47395,0.54945 1.49316,1.05696 1.76998,1.468c0.96468,1.42605 2.10133,2.48301 3.0828,3.97198c0.49073,0.73819 1.19956,1.19117 1.65674,1.9084c0.92274,1.44703 2.09714,2.53335 2.82694,4.06006c1.1744,2.44946 2.69273,4.65984 3.58611,7.22674c0.36351,1.05416 0.87521,2.15167 1.53511,3.29251" fill="none" stroke="#138609" stroke-width="2"/><path d="M252.97803,120.83062c1.26667,0.42222 2.65918,0.82068 4.17751,1.19537c1.29184,0.31876 2.49839,0.72282 3.61966,1.21215c2.22716,0.97307 4.32849,1.74482 6.56824,2.97374c0.75497,0.41384 1.75741,0.94371 3.0073,1.58963c2.16984,1.12407 5.02614,3.17507 8.56891,6.15301" fill="none" stroke="#32970a" stroke-width="2"/><path d="M191.65348,142.94706c0.66269,-0.91715 1.33797,-1.69729 2.02584,-2.34041c0.70883,-0.66269 1.0989,-1.44703 1.61899,-2.03003c1.38971,-1.56027 4.0321,-3.91326 7.92719,-7.05897c0.59838,-0.48094 1.42186,-1.05137 2.47043,-1.71127c1.15343,-0.72561 2.18103,-1.57285 3.38898,-2.17263c1.04577,-0.5145 2.07057,-1.06814 3.07441,-1.66094c1.81612,-1.06954 3.61966,-1.54769 5.52386,-2.39493c2.74725,-1.22892 5.72939,-1.93776 8.62763,-2.71789c2.13069,-0.57602 4.17751,-0.94511 6.14043,-1.10729c6.86603,-0.56623 13.7824,-0.52428 20.5268,1.07793" fill="none" stroke="#3c9f0b" stroke-width="2"/><path d="M252.97803,120.83062c0.13422,1.41207 0.55365,2.52076 1.25828,3.32606c0.34393,0.39706 0.55225,0.67947 0.62495,0.84724c0.2181,0.52009 0.15519,0.89478 -0.18874,1.12407" fill="none" stroke="#61c80f" stroke-width="2"/><path d="M206.94162,132.19292c0.80251,-0.20412 1.60082,-0.50891 2.39494,-0.91435c2.36557,-1.20376 4.77728,-1.62738 7.22674,-2.58787c2.39913,-0.93952 5.28899,-1.2457 7.3316,-1.79935c2.61723,-0.70464 5.2093,-1.49316 7.87266,-1.7574c7.59584,-0.75497 15.43494,-0.74658 22.90496,0.99404" fill="none" stroke="#3c9f0b" stroke-width="2"/><path d="M191.65348,142.94706c1.08213,-0.25445 2.01046,-0.8109 2.785,-1.66933c1.01921,-1.13245 2.17683,-1.72385 3.02407,-3.01988c0.07687,-0.11533 0.18097,-0.20785 0.30199,-0.26843c0.71023,-0.35512 1.33657,-0.8081 1.87904,-1.35895c0.5872,-0.59559 1.0989,-1.01642 1.53511,-1.26248c1.86226,-1.05136 3.78324,-2.10972 5.76294,-3.17507" fill="none" stroke="#42b70e" stroke-width="2"/><path d="M272.95119,135.8c-0.32715,-0.97727 -1.53091,-0.85983 -2.10972,-1.65255c-0.55924,-0.76895 -1.13106,-1.37992 -1.71546,-1.8329c-0.61796,-0.47535 -1.06255,-0.88918 -1.33378,-1.24151c-0.55924,-0.72701 -1.14783,-1.43584 -1.76579,-2.1265" fill="none" stroke="#138609" stroke-width="2"/><path d="M268.35006,140.53115c0.22928,-1.59662 1.05276,-2.83673 2.47043,-3.72033c0.52568,-0.32715 1.23592,-0.66409 2.13069,-1.01082" fill="none" stroke="#86b782" stroke-width="2"/><path d="M252.37825,138.21591c2.29007,0 4.46691,0.11325 6.82409,0.19294c3.29111,0.10905 6.34035,0.81648 9.14772,2.12231" fill="none" stroke="#268e0a" stroke-width="2"/><path d="M202.66765,147.88372c2.08316,-1.45682 3.80561,-2.30685 5.16735,-2.55012c3.85874,-0.68367 7.96913,-1.33378 11.19453,-3.27154c1.58544,-0.9535 3.01708,-1.62878 4.29494,-2.02584c1.43165,-0.44459 2.87727,-0.83047 4.33688,-1.15762c1.30023,-0.29081 2.77941,-0.46416 4.43755,-0.52009c3.90627,-0.13422 7.80835,-0.26704 11.70623,-0.39846c2.89126,-0.09787 5.74896,-0.01258 8.57311,0.25585" fill="none" stroke="#3c9f0b" stroke-width="2"/><path d="M206.94162,132.19292c0.50611,0.70184 0.44319,1.57565 -0.18874,2.62143c-0.08109,0.13142 -0.12163,0.42921 -0.12163,0.89338c0,0.14261 -0.04474,0.26983 -0.13422,0.38168c-0.79132,0.9535 -1.27366,2.17124 -1.44702,3.65322c-0.2181,1.86505 -0.89478,3.69516 -2.03003,5.49031c-0.53687,0.85144 -0.49912,1.74063 -0.35232,2.65078" fill="none" stroke="#138609" stroke-width="2"/><path d="M278.91965,133.95452c-0.39986,0.34953 -0.95629,0.32576 -1.66932,-0.0713c-0.7354,-0.41384 -1.48338,-0.80251 -2.24394,-1.16601c-0.65711,-0.31038 -1.40228,-0.70604 -2.23555,-1.18698c-2.08875,-1.20236 -4.33688,-2.06359 -6.7444,-2.58368" fill="none" stroke="#37ae0d" stroke-width="2"/><path d="M254.67252,126.128c1.35895,0.1454 3.08559,0.39706 5.17994,0.75497c2.29567,0.39426 4.35366,1.08212 6.17398,2.06358" fill="none" stroke="#32970a" stroke-width="2"/><path d="M197.80649,164.18269c-2.73467,1.22753 -5.51408,2.18941 -8.33823,2.88566c-2.73467,0.67108 -4.81503,1.50155 -7.15963,2.58367c-0.59559,0.27403 -0.67947,0.16078 -0.25166,-0.33974c0.71582,-0.83886 1.37992,-1.80494 1.99228,-2.89825c0.79971,-1.43444 1.40648,-2.4215 1.82032,-2.96116c2.85491,-3.73011 6.37111,-7.10791 10.54861,-10.13338c1.76719,-1.28065 3.85035,-3.09258 6.24947,-5.43579" fill="none" stroke="#42b70e" stroke-width="2"/><path d="M194.59786,176.70681c-0.21251,-2.25652 0.29919,-4.19428 1.53511,-5.81327c0.49493,-0.65012 0.57881,-1.16181 0.50331,-1.9042c-0.03076,-0.30478 -0.00978,-0.57042 0.06292,-0.79691c0.41104,-1.28904 0.78014,-2.62562 1.10729,-4.00973" fill="none" stroke="#17930c" stroke-width="2"/><path d="M179.23841,180.64524c1.61061,-0.28801 3.1541,-0.75357 4.63048,-1.39669c1.37852,-0.60397 2.44247,-0.99684 3.19185,-1.17859c2.39353,-0.58161 4.90591,-1.03598 7.53712,-1.36314" fill="none" stroke="#37ae0d" stroke-width="2"/><path d="M284.04087,150.3206c1.87904,-0.34393 2.95696,0.25585 4.30752,1.69868c0.67388,0.72142 1.3939,1.39809 2.16005,2.03003c0.46417,0.38308 0.9549,0.90876 1.47219,1.57705c1.05136,1.35895 2.44526,2.33342 4.1817,2.92342" fill="none" stroke="#2ba60d" stroke-width="2"/><path d="M272.95119,135.8c2.97794,-1.00663 4.28655,0.35652 6.70246,1.74063c1.13245,0.65012 1.43864,1.59383 2.29846,2.45365c2.74306,2.73886 2.80597,6.66471 2.08875,10.32632" fill="none" stroke="#8cce85" stroke-width="2"/><path d="M284.04087,150.3206c-0.54246,2.00207 -1.75881,3.11635 -3.64903,3.34284c-1.21075,0.14261 -2.45085,-0.06571 -3.72032,-0.62495c-2.46204,-1.09051 -3.44351,-2.62142 -5.24705,-4.89053c-1.82591,-2.29007 -2.85071,-4.82902 -3.07441,-7.61681" fill="none" stroke="#9fd786" stroke-width="2"/><path d="M252.37825,138.21591c-0.41523,0.87241 -0.72142,1.79515 -1.08632,2.70112c-0.18455,0.46137 -0.26004,0.93952 -0.22649,1.43444c0.05033,0.70743 0.05593,1.1758 0.01678,1.40508c-0.22649,1.37013 -0.61656,2.68713 -1.17021,3.95101c-0.35512,0.8081 -0.64872,1.64695 -0.8808,2.51657c-0.31317,1.18838 -0.75916,2.32503 -1.33797,3.40995c-0.17057,0.32156 -0.26284,0.62495 -0.27682,0.91016c-0.01398,0.32156 -0.00279,0.64592 0.03355,0.97307" fill="none" stroke="#55bf0f" stroke-width="2"/><path d="M212.44452,159.11181c2.36977,-0.59559 4.67662,-1.01921 7.12608,-1.65255c5.34351,-1.37153 11.28261,-2.3446 16.81906,-1.6861c3.5931,0.42782 7.27987,0.34254 11.06031,-0.25585" fill="none" stroke="#3c9f0b" stroke-width="2"/><path d="M197.80649,164.18269c1.35056,-0.54106 2.44526,-1.49736 3.70774,-2.00487c3.51481,-1.42046 7.15823,-2.44247 10.93029,-3.06602" fill="none" stroke="#40ac0e" stroke-width="2"/><path d="M299.50936,171.99244l-0.17196,0.13841c-0.06152,0.05033 -0.09926,0.03635 -0.11325,-0.04194c-0.01398,-0.08388 -0.06711,-0.13282 -0.15938,-0.1468c-1.56866,-0.24746 -2.80598,-1.26667 -3.84196,-1.73224c-1.34636,-0.60397 -2.7137,-0.96049 -3.9594,-1.75741c-0.66549,-0.42502 -1.35755,-0.84585 -2.07617,-1.26248" fill="none" stroke="#2ba60d" stroke-width="2"/><path d="M289.18725,167.18999l-1.15343,-1.10729c-0.09095,-0.08841 -0.21385,-0.13545 -0.33974,-0.13002c-0.37748,0.01398 -0.63613,-0.14261 -0.77594,-0.46976c-0.03076,-0.06991 -0.01818,-0.13282 0.03775,-0.18874c0.03635,-0.03355 0.06711,-0.07131 0.09227,-0.11325c0.05033,-0.08109 0.06571,-0.16358 0.04614,-0.24746c-0.03076,-0.11744 -0.10625,-0.20272 -0.22649,-0.25585" fill="none" stroke="#268e0a" stroke-width="2"/><path d="M284.41416,163.57871c-0.78014,-2.08875 -1.36314,-4.1062 0.59558,-5.75874c1.33797,-1.12826 2.88147,-1.25828 4.24461,-0.08388c0.62495,0.54106 1.27926,0.8766 1.61061,1.64835c1.24151,2.85631 -0.95629,5.47354 -3.99715,5.29318" fill="none" stroke="#9fd786" stroke-width="2"/><path d="M247.44997,155.51731c2.91642,-0.31317 5.92232,-0.39986 9.0177,-0.26005c2.72208,0.12583 5.83844,0.66689 8.77443,1.11148c1.28345,0.19573 2.43268,0.46556 3.4477,0.80949c2.75704,0.93393 5.42041,2.08176 7.9901,3.44351c1.50155,0.79691 2.75704,1.37013 3.76646,1.71965c1.30302,0.45298 2.62562,0.86542 3.96779,1.23731" fill="none" stroke="#268e0a" stroke-width="2"/><path d="M211.88668,173.84631l1.38411,-1.27086c0.10324,-0.09774 0.10884,-0.26028 0.01258,-0.36491c-1.45961,-1.57705 -3.19185,-2.75704 -5.19672,-3.53997c-0.15379,-0.05872 -0.27822,-0.15659 -0.37329,-0.2936c-0.50891,-0.71582 -1.14923,-1.28485 -1.92098,-1.70707c-0.11185,-0.06152 -0.16637,-0.15519 -0.16358,-0.28102l0.00419,-1.50155c0,-0.15659 0.06292,-0.28102 0.18874,-0.37329c2.202,-1.58544 3.64483,-0.20552 5.61614,0.69625" fill="none" stroke="#0d5c06" stroke-width="2"/><path d="M194.59786,176.70681c2.91363,-0.72142 4.77868,-1.13106 5.59516,-1.22893c5.74057,-0.69345 9.63846,-1.23731 11.69365,-1.63157" fill="none" stroke="#36a40d" stroke-width="2"/><path d="M233.88987,184.23554l-1.58124,-3.79163c-0.05872,-0.14261 -0.05313,-0.28242 0.01677,-0.41943l0.78853,-1.48897c0.06711,-0.13142 0.17336,-0.21391 0.31876,-0.24746c0.93393,-0.22928 1.57845,-0.10765 1.93356,0.3649c0.97307,1.28345 2.07756,2.57389 3.31348,3.87132" fill="none" stroke="#2e7708" stroke-width="2"/><path d="M201.20385,200.42126l-4.90311,-0.57042" fill="none" stroke="#32970a" stroke-width="2"/><path d="M196.30074,199.85084c-4.26139,-1.26248 -8.22917,-3.10796 -11.90336,-5.63292c-1.45122,-0.99824 -3.01988,-1.72804 -4.01812,-3.23379" fill="none" stroke="#36a40d" stroke-width="2"/><path d="M286.86781,164.67762c-0.93113,-0.17336 -1.74902,-0.53967 -2.45365,-1.09891" fill="none" stroke="#86b782" stroke-width="2"/><path d="M289.18725,167.18999c-0.09507,3.01429 0.01817,6.16699 0.33974,9.4581c0.03915,0.39706 -0.00979,0.83047 -0.1468,1.30023c-0.04194,0.1454 -0.13701,0.21112 -0.28521,0.19713c-1.6861,-0.13701 -3.33725,-0.44319 -4.95345,-0.91855c-1.42186,-0.41523 -2.74725,-0.47395 -4.18589,-1.02341c-2.01885,-0.76615 -4.06705,-1.55747 -6.14462,-2.37396" fill="none" stroke="#138609" stroke-width="2"/><path d="M260.39771,171.86661c0.42502,-1.21914 1.07933,-2.36277 1.96293,-3.43092c0.63753,-0.77454 1.40508,-1.31002 2.30266,-1.60641c1.96572,-0.65431 3.85734,-0.56064 5.67486,0.28102c2.6424,1.22753 3.80002,3.46727 3.47286,6.71924" fill="none" stroke="#094f03" stroke-width="2"/><path d="M245.8939,174.25735c3.15829,-0.4404 6.23689,-1.32958 9.27774,-1.69029c1.77558,-0.20972 3.5176,-0.4432 5.22607,-0.70045" fill="none" stroke="#268e0a" stroke-width="2"/><path d="M220.21233,172.36992c3.1541,0.03915 6.28723,0.02656 9.39938,-0.03775c1.32539,-0.02936 3.27154,0.15518 4.56337,0.54945c3.814,1.1744 7.72027,1.63297 11.71882,1.37573" fill="none" stroke="#32970a" stroke-width="2"/><path d="M211.43789,165.21029c0.83886,0.78573 1.75741,1.46521 2.75564,2.03842c0.45857,0.26284 0.96888,0.64452 1.53091,1.14504c1.60222,1.43025 3.22121,2.03423 4.48788,3.97618" fill="none" stroke="#094f03" stroke-width="2"/><path d="M212.44452,159.11181c-0.00279,0.03355 0.03775,0.06152 0.12163,0.08388c0.10346,0.02516 0.11744,0.0755 0.04195,0.15099l-0.09227,0.09227c-0.01118,0.01118 -0.01258,0.02377 -0.00419,0.03775c0.03915,0.09507 0.06711,0.17476 0.08388,0.23907c0.03076,0.14261 0.03495,0.23628 0.01258,0.28102c-0.53687,1.04298 -0.5872,2.11392 -0.15099,3.21282c0.05466,0.13419 0.03044,0.28763 -0.06292,0.39846c-0.18734,0.22649 -0.25585,0.47535 -0.20552,0.74658c0.03076,0.17057 -0.01118,0.32156 -0.12583,0.45298c-0.19853,0.22649 -0.40685,0.36071 -0.62495,0.40265" fill="none" stroke="#117b08" stroke-width="2"/><path d="M298.95992,189.92298c-1.40089,0.85563 -2.1978,2.14328 -3.56933,2.91503c-1.43165,0.80251 -2.80737,1.6861 -4.12717,2.65078c-0.54805,0.39986 -1.22054,0.75497 -2.01745,1.06535c-0.79132,0.31038 -1.5365,0.69205 -2.23555,1.14504c-0.16183,0.10315 -0.3699,0.09852 -0.52699,-0.01171c-0.15709,-0.11024 -0.2322,-0.30434 -0.19023,-0.4916c0.34813,-1.52672 0.67947,-2.79339 1.37153,-4.38722c0.49213,-1.12407 0.78573,-2.15865 0.8808,-3.10376c0.2209,-2.18662 0.49073,-4.36904 0.80949,-6.54727c0.15519,-1.06954 0.02936,-2.53754 0.24327,-3.80002c0.01087,-0.06771 0.0548,-0.12554 0.11712,-0.15417c0.06231,-0.02863 0.1348,-0.02429 0.19326,0.01156c1.66932,1.03598 3.46866,1.44703 4.97441,2.57948c1.57425,1.18558 3.16808,2.38375 4.78148,3.5945" fill="none" stroke="#2ba60d" stroke-width="2"/><path d="M291.80447,210.05971c-0.11185,-0.25445 -0.22788,-0.41244 -0.34812,-0.47395c-0.10905,-0.05593 -0.24327,0.00979 -0.40265,0.19713c-1.21634,1.43864 -2.4201,1.98809 -3.89229,2.785c-0.91855,0.50332 -1.81193,1.40928 -2.91503,1.94615c-1.02341,0.49493 -1.64416,1.35056 -2.75564,1.87484c-1.15483,0.54526 -2.23135,1.21074 -3.22959,1.99647c-0.7354,0.57602 -2.16984,1.05975 -4.30333,1.45122" fill="none" stroke="#2ba60d" stroke-width="2"/><path d="M239.62345,204.77492c1.95873,-0.1468 3.50222,-0.06711 5.33093,0.89338c2.21877,1.16601 5.57001,0.81368 8.10754,0.39845c5.01636,-0.81788 9.83559,-0.57462 14.74289,-1.70707c3.19185,-0.74239 6.86184,-2.26491 10.32212,-3.29671c2.50398,-0.74658 4.6934,-1.98389 7.1135,-3.03246c0.153,-0.06701 0.32978,-0.0501 0.4673,0.04471c0.13752,0.09481 0.2162,0.25402 0.20798,0.42086c-0.05313,1.029 -0.439,1.89023 -1.15762,2.58368c-0.11272,0.10716 -0.19655,0.24446 -0.24327,0.39845c-0.30199,1.01502 -0.62774,2.01745 -0.97727,3.0073c-0.69625,1.98389 -1.99648,3.85874 -2.90664,5.88038c-0.65431,1.45122 -1.70707,2.60045 -2.47462,4.03909c-0.58301,1.10309 -1.27087,1.82032 -2.03423,2.72209c-0.62914,0.74658 -1.08632,1.92517 -2.16425,2.7095" fill="none" stroke="#138609" stroke-width="2"/><path d="M264.9527,179.68475c0.19294,0.16777 0.09926,0.46696 -0.28102,0.89757c-0.03993,0.04442 -0.10279,0.06021 -0.15897,0.03995c-0.05618,-0.02026 -0.09449,-0.07255 -0.09688,-0.13222v-0.18455c0.00148,-0.03598 -0.02137,-0.06849 -0.05573,-0.07929c-0.03436,-0.0108 -0.07169,0.00279 -0.09107,0.03315c-0.53407,0.75217 -1.06255,1.50575 -1.58544,2.26072c-0.39426,0.56763 -0.94232,1.25828 -1.64416,2.07197c-0.54526,0.63474 -1.17161,1.40928 -1.87904,2.32363c-0.74658,0.97028 -2.14607,2.63401 -4.19847,4.99119c-2.11811,2.43687 -4.5466,4.78148 -6.85345,7.15125c-0.52848,0.54526 -1.35475,1.30861 -2.47882,2.29007c-0.85843,0.75217 -1.67631,1.54909 -2.45365,2.39074c-0.09649,0.10446 -0.23283,0.16505 -0.37748,0.16777c-0.36071,0 -0.65711,0.12723 -0.88919,0.38168c-0.07829,0.08948 -0.17756,0.14401 -0.29779,0.16358l-1.98808,0.32296" fill="none" stroke="#2ba60d" stroke-width="2"/><path d="M220.21233,172.36992c0.30199,1.47638 0.23907,2.73047 -1.27087,3.41834c-1.40928,0.64312 -2.80178,1.32539 -4.1775,2.04681c-0.64592,0.34114 -1.34776,0.85843 -2.10553,1.55188c-0.88639,0.81369 -1.84688,1.53651 -2.88147,2.16844c-0.59978,0.3649 -1.04437,0.27683 -1.58124,-0.08388c-3.89648,-2.62981 1.06954,-6.19915 3.69097,-7.6252" fill="none" stroke="#2e7708" stroke-width="2"/><path d="M193.51154,209.08245c0.40824,-1.12966 0.57602,-2.22437 0.50332,-3.28412c-0.01118,-0.12863 0.00978,-0.25305 0.06291,-0.37329c0.65431,-1.52951 1.11009,-3.11495 1.36734,-4.75632c0.02237,-0.1454 0.10626,-0.2181 0.25166,-0.2181h0.39007c0.13981,0 0.22649,-0.06711 0.26004,-0.20133c0.04194,-0.17336 0.02656,-0.30618 -0.04614,-0.39846" fill="none" stroke="#117b08" stroke-width="2"/><path d="M193.51154,209.08245c-2.6424,-1.40928 -4.26978,-2.40752 -4.88214,-2.99472c-1.62738,-1.56027 -3.36381,-3.07721 -5.20929,-4.5508" fill="none" stroke="#2a9b0d" stroke-width="2"/><path d="M239.62345,204.77492c-1.26667,-0.04474 -2.65358,0.32995 -4.16073,1.12407c-1.79236,0.94232 -3.76646,0.97167 -5.92232,0.08808c-1.18698,-0.48654 -2.22296,-0.97726 -3.53997,-1.09471c-3.18486,-0.28801 -6.37111,-0.55644 -9.55876,-0.80531c-2.49979,-0.19713 -5.02474,-1.88323 -7.07155,-2.47462c-2.68853,-0.77594 -5.60356,-0.54106 -8.16626,-1.19118" fill="none" stroke="#268e0a" stroke-width="2"/><path d="M233.88987,184.23554c-1.2443,1.21075 -2.81157,2.25233 -4.70179,3.12474c-0.39706,0.18455 -0.77594,0.24606 -1.13665,0.18455c-0.17616,-0.02796 -0.2209,0.03495 -0.13422,0.18874l0.06291,0.11744c0.05313,0.09787 0.03216,0.17756 -0.06291,0.23907c-6.80312,4.43195 -14.04244,7.98032 -21.71798,10.64508c-0.24327,0.08388 -0.55225,0.26704 -0.92694,0.54945c-0.31876,0.24327 -0.67248,0.40964 -1.06115,0.49912c-0.13981,0.03355 -0.24047,0.11604 -0.30199,0.24746c-0.12583,0.27403 -0.3635,0.37328 -0.71303,0.29779c-0.11744,-0.02516 -0.23628,-0.02237 -0.35652,0.00839c-0.49213,0.13701 -1.03738,0.16497 -1.63577,0.08388" fill="none" stroke="#4ab70e" stroke-width="2"/><path d="M238.67973,182.52427l1.0989,1.9797c0.06951,0.12311 0.20262,0.19639 0.34382,0.18928c0.1412,-0.0071 0.26627,-0.09337 0.32308,-0.22283c0.65431,-1.50994 2.69272,-5.85102 4.2488,-6.4508c1.3212,-0.51589 2.69692,-0.0042 2.76823,1.59382c0.08948,1.96292 -0.44879,3.68817 -1.6148,5.17574c-0.66549,0.84445 -1.10729,1.4624 -1.32539,1.85387c-0.91016,1.6148 -1.97131,4.53402 -4.3998,4.05587c-1.15762,-0.23068 -3.03666,-2.20619 -3.79163,-3.2254c-0.83326,-1.12686 -1.64695,-2.20619 -2.44107,-3.23798" fill="none" stroke="#226f08" stroke-width="2"/><path d="M238.67973,182.52427c0.62075,-0.16218 1.173,-0.59559 1.65674,-1.30023c0.19014,-0.27682 0.37608,-0.82487 0.55784,-1.64416c0.2209,-0.99265 0.74239,-1.74902 1.56447,-2.26911c0.76895,-0.48374 1.3226,-0.93673 1.66093,-1.35895c0.08109,-0.10066 0.17896,-0.17895 0.2936,-0.23488c0.37748,-0.18175 0.59419,-0.48654 0.65012,-0.91435c0.01657,-0.12513 0.12342,-0.21951 0.25166,-0.22229c0.58999,-0.01398 0.78293,-0.12163 0.57881,-0.32296" fill="none" stroke="#4ab70e" stroke-width="2"/><path d="M273.50903,220.12598c0.00839,-0.0727 0.15798,-0.16917 0.44879,-0.28941" fill="none" stroke="#268e0a" stroke-width="2"/><path d="M273.50903,220.12598c-1.67771,0.41523 -3.3009,1.25409 -4.75212,1.63996c-3.66161,0.98146 -7.71747,2.48302 -11.53008,2.3488c-5.48891,-0.19294 -11.32315,-0.02936 -17.50272,0.49073c-4.1775,0.34953 -8.37598,0.01118 -12.59542,-1.01502c-3.42253,-0.83047 -6.84087,-1.01082 -10.25082,-2.02164" fill="none" stroke="#138609" stroke-width="2"/><path d="M216.87787,221.56882c-2.71789,-1.24989 -5.07507,-2.33202 -7.83072,-4.0307c-2.32363,-1.43724 -4.75352,-2.67175 -7.28966,-3.70355c-1.29463,-0.52568 -4.04328,-2.10972 -8.24595,-4.75212" fill="none" stroke="#268e0a" stroke-width="2"/><path d="M273.81102,173.82954c-0.07829,1.10449 -0.38028,2.16285 -0.90596,3.17507c-0.46556,0.89757 -1.35056,1.30442 -2.16425,1.85806c-1.77418,1.19956 -3.77905,1.36734 -5.78811,0.82208" fill="none" stroke="#0f6607" stroke-width="2"/><path d="M264.9527,179.68475c-3.36381,-1.66094 -4.88214,-4.26698 -4.55499,-7.81814" fill="none" stroke="#226f08" stroke-width="2"/><path d="M275.30418,227.4492c-0.53966,0.12024 -1.0276,0.37329 -1.46381,0.75917c-0.10346,0.09227 -0.22229,0.15099 -0.35651,0.17616c-0.92834,0.15938 -1.97831,0.56343 -3.14991,1.21215c-0.83326,0.46137 -1.96293,0.91435 -3.38898,1.35895c-0.93952,0.29081 -2.08315,0.69625 -3.43092,1.21634c-1.34217,0.5145 -2.72208,0.91435 -4.13975,1.19956c-0.49493,0.10066 -0.93533,0.50751 -1.40089,0.54526c-0.09774,0.00998 -0.18888,-0.05062 -0.21748,-0.14462c-0.02861,-0.09399 0.01332,-0.19509 0.10004,-0.24126c2.1265,-1.19117 3.90907,-2.28588 5.85941,-3.91326c1.92937,-1.61061 3.85873,-3.2226 5.7881,-4.836c1.40928,-1.17719 2.74446,-2.72908 4.00554,-4.65565" fill="none" stroke="#2ba60d" stroke-width="2"/><path d="M216.87787,221.56882c-0.01398,0.12863 0.09087,0.23069 0.31457,0.30618c0.12024,0.03915 0.13562,0.10486 0.04614,0.19713c-1.07653,1.12686 -2.14327,1.85946 -3.20023,2.1978c-1.45402,0.46417 -2.91083,0.93113 -4.37044,1.40089c-0.08668,0.02796 -0.1482,0.08249 -0.18455,0.16358c-0.01398,0.03355 -0.01957,0.06991 -0.01677,0.10905c0.00279,0.05033 -0.02097,0.07969 -0.07131,0.08808l-4.20686,0.71303c-0.06858,0.01099 -0.13846,0.00225 -0.20133,-0.02517l-4.27816,-1.90001c-0.10626,-0.04754 -0.19714,-0.11604 -0.27263,-0.20552c-0.78573,-0.91995 -1.70707,-1.65394 -2.76403,-2.202" fill="none" stroke="#2ba60d" stroke-width="2"/><path d="M303.55265,171.4304c0.15659,0.18175 0.25865,0.43062 0.30618,0.74658c0.79132,5.29597 0.76476,10.49409 -0.07969,15.59433c-0.01678,0.08948 -0.06292,0.16637 -0.13841,0.23068c-0.10626,0.08948 -0.16917,0.20552 -0.18874,0.34813c-0.35232,2.43268 -0.91435,5.5043 -1.6861,9.21483c-0.26284,1.25269 -0.60817,2.38934 -1.03599,3.40995c-0.90596,2.16005 -1.37153,4.03909 -2.41171,5.77133c-1.04437,1.73224 -1.84548,3.77485 -2.76403,5.31835c-7.65036,12.84288 -18.37513,22.07868 -32.17432,27.7074c-1.33378,0.54246 -2.88007,1.06815 -4.63887,1.57705c-3.14571,0.91016 -5.95588,1.81193 -9.3113,2.16005c-4.86117,0.50751 -9.6762,1.32958 -14.58351,0.65011c-3.54836,-0.49073 -7.07575,-0.72561 -10.49409,-1.67352c-1.71965,-0.47535 -3.43791,-0.96049 -5.15477,-1.45542c-1.72804,-0.49772 -3.39317,-1.12127 -4.99539,-1.87065c-3.94542,-1.85387 -6.63954,-3.2268 -8.08237,-4.11878c-8.65979,-5.3547 -15.7621,-12.29903 -21.30694,-20.83299c-1.06535,-1.64416 -2.60046,-4.58854 -4.60532,-8.83315c-0.61516,-1.30302 -1.15622,-2.7151 -1.62318,-4.23622c-0.83466,-2.72628 -1.82032,-5.33093 -2.26491,-8.17465c-0.27682,-1.75321 -0.64173,-3.45189 -0.67528,-5.21768c-0.09507,-4.98001 -0.10206,-9.96002 -0.02097,-14.94002c0.02237,-1.30023 0.12583,-2.61304 0.31038,-3.93843c0.24327,-1.7616 0.41104,-3.46447 0.94371,-5.17155c1.09051,-3.48964 2.04262,-6.93734 3.60708,-10.21307c1.72804,-3.60987 3.09677,-6.21173 4.1062,-7.80555c5.59936,-8.82896 13.31264,-16.63031 22.46876,-21.70959c1.54909,-0.85843 3.10237,-1.70987 4.65984,-2.55432c3.05763,-1.65674 6.14881,-2.4956 9.43293,-3.54417c1.85107,-0.59279 3.63225,-1.029 5.34351,-1.30862c6.16979,-1.01082 13.71529,-1.11148 18.78198,-0.86402c3.95661,0.19294 7.27708,0.63893 9.96142,1.33798c3.38478,0.8808 8.35081,2.46624 12.00402,4.27397c8.9464,4.43335 16.18153,10.01594 22.59878,17.77955c0.99824,1.20376 2.07617,2.92341 3.18346,4.37044c0.52288,0.67668 0.93812,1.26387 1.2457,1.7616c3.19884,5.17854 5.53645,10.11521 7.01284,14.81c0.87241,2.76263 1.57565,6.44241 2.10972,11.03934c0.01678,0.13701 0.0699,0.25725 0.15938,0.36071zM191.65348,142.94706c-2.01325,2.77102 -3.90068,5.73357 -5.66228,8.88768c-0.72981,1.30582 -1.43304,2.89965 -2.10972,4.78148c-1.20376,3.34284 -2.62562,6.35433 -3.27154,10.09982c-0.01118,0.06711 -0.30478,1.68051 -0.8808,4.8402c-0.54526,2.98353 -0.70883,6.0132 -0.49073,9.089c-0.20692,3.47286 0.17337,6.91916 1.14085,10.3389c0.6599,3.68817 1.67352,7.20577 3.04085,10.55281c0.27962,1.35615 0.75916,2.66337 1.43864,3.92165c2.08036,3.84755 4.3257,7.43226 6.73601,10.75413c1.73224,2.39074 3.86713,4.26558 6.07751,6.19914c0.78293,0.83326 1.59662,1.63856 2.44107,2.41591c0.25166,0.23208 0.70604,0.50052 1.36314,0.8053c0.57322,0.26564 1.04857,0.65571 1.42605,1.17021c0.09227,0.12024 0.21391,0.18455 0.36491,0.19294c0.47255,0.01957 0.85842,0.19853 1.15762,0.53687c0.0727,0.08109 0.16218,0.13142 0.26844,0.15099c0.77734,0.12863 1.52113,0.34253 2.23136,0.64173c0.92274,0.39147 1.66653,0.6613 2.23135,0.80949c0.74099,0.19573 1.47359,0.42362 2.19781,0.68367c0.75776,0.27123 1.48198,0.5117 2.17264,0.72142c2.48301,0.74658 4.64027,1.75321 6.47177,3.01988c2.35718,1.63577 3.71613,2.28588 6.75279,2.72628c1.91538,0.27682 3.80841,0.66968 5.67905,1.17859c2.87308,0.78433 6.28303,0.42362 9.25677,0.43621c0.75776,0.00559 1.53231,-0.12443 2.32363,-0.39007c1.54629,-0.52009 3.11914,-0.94091 4.71856,-1.26247c2.08036,-0.41523 4.1062,-1.07374 6.25367,-1.47639c0.11204,-0.01895 0.22302,0.04324 0.2649,0.14843c0.04188,0.10519 0.00294,0.22401 -0.09293,0.28358c-0.31457,0.20552 -0.40685,0.37329 -0.78014,0.52428c-2.96116,1.16601 -5.82166,2.47882 -8.88348,3.3722c-0.05033,0.01398 -0.0741,0.0727 -0.07131,0.17616c0.00559,0.12583 0.06991,0.17756 0.19294,0.15519c1.20236,-0.20133 2.41451,-0.34254 3.63644,-0.42363c1.50994,-0.10066 2.72628,-0.60817 4.19428,-0.89757c1.19117,-0.23208 2.22436,-0.50471 3.09957,-0.81788c2.4956,-0.89757 5.35191,-1.52253 7.54971,-2.4201c2.97374,-1.20795 5.21768,-2.82694 7.79716,-4.30752c0.62635,-0.35791 1.20935,-0.83606 1.74902,-1.43445c0.52288,-0.58161 1.07793,-1.14224 1.66513,-1.68191c2.4215,-1.44563 4.15373,-2.63541 5.19671,-3.56933c1.96013,-1.75321 4.1817,-4.11878 6.66471,-7.09672c0.78573,-0.94232 1.58404,-2.04402 2.39493,-3.30509c0.74658,-1.15483 1.49456,-2.29427 2.24394,-3.41834c0.30478,-0.72142 0.64872,-1.40648 1.03179,-2.0552c1.11987,-1.89582 1.81193,-3.8881 2.68434,-5.8678c0.91016,-2.0552 1.37153,-4.06845 1.94615,-6.20334c0.10905,-0.39426 0.39706,-1.09471 0.86402,-2.10134c0.54805,-1.18558 0.75777,-2.48861 0.62914,-3.90907l0.70464,-4.53401c0.26005,-4.41797 0.20832,-8.88349 -0.15519,-13.39653c-0.38168,-2.23555 -0.49492,-4.34527 -1.23731,-6.51372c-0.80251,-2.33761 -1.50575,-4.64726 -2.10972,-6.92895c-0.6599,-1.14084 -1.1716,-2.23835 -1.53511,-3.29251c-0.89338,-2.5669 -2.41171,-4.77728 -3.58611,-7.22674c-0.72981,-1.52672 -1.9042,-2.61304 -2.82694,-4.06006c-0.45718,-0.71722 -1.16601,-1.1702 -1.65674,-1.9084c-0.98146,-1.48897 -2.11811,-2.54593 -3.0828,-3.97198c-0.27682,-0.41104 -1.29603,-0.91855 -1.76998,-1.468c-0.8808,-1.01502 -1.80913,-1.90421 -2.785,-2.66756c-3.54277,-2.97794 -6.39907,-5.02894 -8.56891,-6.15301c-1.24989,-0.64592 -2.25233,-1.1758 -3.0073,-1.58963c-2.23975,-1.22892 -4.34107,-2.00067 -6.56824,-2.97374c-1.12127,-0.48933 -2.32783,-0.89338 -3.61966,-1.21215c-1.51833,-0.37469 -2.91083,-0.77315 -4.17751,-1.19537c-6.7444,-1.60222 -13.66077,-1.64416 -20.5268,-1.07793c-1.96292,0.16218 -4.00973,0.53127 -6.14043,1.10729c-2.89825,0.78014 -5.88038,1.48897 -8.62763,2.71789c-1.9042,0.84724 -3.70774,1.32539 -5.52386,2.39493c-1.00383,0.59279 -2.02863,1.14644 -3.07441,1.66094c-1.20795,0.59978 -2.23555,1.44702 -3.38898,2.17263c-1.04857,0.6599 -1.87205,1.23033 -2.47043,1.71127c-3.89509,3.14571 -6.53748,5.4987 -7.92719,7.05897c-0.52009,0.58301 -0.91016,1.36734 -1.61899,2.03003c-0.68786,0.64312 -1.36314,1.42326 -2.02584,2.34041z" fill="#0d6e05" stroke="none" stroke-width="1"/><path d="M252.97803,120.83062c0.13422,1.41207 0.55365,2.52076 1.25828,3.32606c0.34393,0.39706 0.55225,0.67947 0.62495,0.84724c0.2181,0.52009 0.15519,0.89478 -0.18874,1.12407c-7.47001,-1.74063 -15.30912,-1.74901 -22.90496,-0.99404c-2.66337,0.26424 -5.25543,1.05276 -7.87266,1.7574c-2.04262,0.55365 -4.93247,0.85983 -7.3316,1.79935c-2.44946,0.96049 -4.86116,1.38411 -7.22674,2.58787c-0.79412,0.40545 -1.59243,0.71023 -2.39494,0.91435c-1.9797,1.06535 -3.90068,2.12371 -5.76294,3.17507c-0.43621,0.24606 -0.94791,0.66689 -1.53511,1.26248c-0.54246,0.55085 -1.16881,1.00383 -1.87904,1.35895c-0.12102,0.06058 -0.22512,0.15311 -0.30199,0.26843c-0.84724,1.29603 -2.00486,1.88743 -3.02407,3.01988c-0.77454,0.85843 -1.70287,1.41487 -2.785,1.66933c0.66269,-0.91715 1.33797,-1.69729 2.02584,-2.34041c0.70883,-0.66269 1.0989,-1.44703 1.61899,-2.03003c1.38971,-1.56027 4.0321,-3.91326 7.92719,-7.05897c0.59838,-0.48094 1.42186,-1.05137 2.47043,-1.71127c1.15343,-0.72561 2.18103,-1.57285 3.38898,-2.17263c1.04577,-0.5145 2.07057,-1.06814 3.07441,-1.66094c1.81612,-1.06954 3.61966,-1.54769 5.52386,-2.39493c2.74725,-1.22892 5.72939,-1.93776 8.62763,-2.71789c2.13069,-0.57602 4.17751,-0.94511 6.14043,-1.10729c6.86603,-0.56623 13.7824,-0.52428 20.5268,1.07793z" fill="#6bd010" stroke="none" stroke-width="1"/><path d="M252.97803,120.83062c1.26667,0.42222 2.65918,0.82068 4.17751,1.19537c1.29184,0.31876 2.49839,0.72282 3.61966,1.21215c2.22716,0.97307 4.32849,1.74482 6.56824,2.97374c0.75497,0.41384 1.75741,0.94371 3.0073,1.58963c2.16984,1.12407 5.02614,3.17507 8.56891,6.15301c-0.39986,0.34953 -0.95629,0.32576 -1.66932,-0.0713c-0.7354,-0.41384 -1.48338,-0.80251 -2.24394,-1.16601c-0.65711,-0.31038 -1.40228,-0.70604 -2.23555,-1.18698c-2.08875,-1.20236 -4.33688,-2.06359 -6.7444,-2.58368c-1.82032,-0.98146 -3.87831,-1.66932 -6.17398,-2.06358c-2.09434,-0.35791 -3.82099,-0.60957 -5.17994,-0.75497c0.34393,-0.22928 0.40684,-0.60398 0.18874,-1.12407c-0.0727,-0.16777 -0.28102,-0.45018 -0.62495,-0.84724c-0.70464,-0.8053 -1.12407,-1.91399 -1.25828,-3.32606z" fill="#56bf0e" stroke="none" stroke-width="1"/><path d="M254.67252,126.128c1.35895,0.1454 3.08559,0.39706 5.17994,0.75497c2.29567,0.39426 4.35366,1.08212 6.17398,2.06358c0.61796,0.69066 1.20655,1.39949 1.76579,2.1265c0.27123,0.35232 0.71582,0.76615 1.33378,1.24151c0.58441,0.45298 1.15623,1.06395 1.71546,1.8329c0.57881,0.79272 1.78257,0.67528 2.10972,1.65255c-0.89478,0.34673 -1.60501,0.68367 -2.13069,1.01082c-1.41767,0.88359 -2.24115,2.12371 -2.47043,3.72033c-2.80737,-1.30582 -5.85661,-2.01325 -9.14772,-2.12231c-2.35718,-0.07969 -4.53402,-0.19294 -6.82409,-0.19294c-2.82415,-0.26843 -5.68185,-0.35372 -8.57311,-0.25585c-3.89788,0.13142 -7.79996,0.26424 -11.70623,0.39846c-1.65814,0.05593 -3.13732,0.22928 -4.43755,0.52009c-1.45961,0.32715 -2.90524,0.71303 -4.33688,1.15762c-1.27786,0.39706 -2.70951,1.07234 -4.29494,2.02584c-3.2254,1.93776 -7.33579,2.58787 -11.19453,3.27154c-1.36174,0.24327 -3.0842,1.09331 -5.16735,2.55012c-0.1468,-0.91016 -0.18455,-1.79935 0.35232,-2.65078c1.13525,-1.79515 1.81193,-3.62526 2.03003,-5.49031c0.17336,-1.48198 0.6557,-2.69972 1.44702,-3.65322c0.08948,-0.11185 0.13422,-0.23907 0.13422,-0.38168c0,-0.46417 0.04054,-0.76196 0.12163,-0.89338c0.63194,-1.04577 0.69485,-1.91958 0.18874,-2.62143c0.80251,-0.20412 1.60082,-0.50891 2.39494,-0.91435c2.36557,-1.20376 4.77728,-1.62738 7.22674,-2.58787c2.39913,-0.93952 5.28899,-1.2457 7.3316,-1.79935c2.61723,-0.70464 5.2093,-1.49316 7.87266,-1.7574c7.59584,-0.75497 15.43494,-0.74658 22.90496,0.99404z" fill="#0d6e05" stroke="none" stroke-width="1"/><path d="M266.02644,128.94655c2.40752,0.52009 4.65565,1.38132 6.7444,2.58368c0.83326,0.48094 1.57844,0.8766 2.23555,1.18698c0.76056,0.36351 1.50854,0.75217 2.24394,1.16601c0.71303,0.39706 1.26946,0.42083 1.66932,0.0713c0.97587,0.76336 1.9042,1.65255 2.785,2.66756c0.47395,0.54945 1.49316,1.05696 1.76998,1.468c0.96468,1.42605 2.10133,2.48301 3.0828,3.97198c0.49073,0.73819 1.19956,1.19117 1.65674,1.9084c0.92274,1.44703 2.09714,2.53335 2.82694,4.06006c1.1744,2.44946 2.69273,4.65984 3.58611,7.22674c0.36351,1.05416 0.87521,2.15167 1.53511,3.29251c-1.73643,-0.58999 -3.13033,-1.56447 -4.1817,-2.92342c-0.51729,-0.66829 -1.00803,-1.19397 -1.47219,-1.57705c-0.76615,-0.63194 -1.48617,-1.30862 -2.16005,-2.03003c-1.35056,-1.44283 -2.42848,-2.04261 -4.30752,-1.69868c0.71722,-3.66161 0.65431,-7.58745 -2.08875,-10.32632c-0.85983,-0.85983 -1.16601,-1.80354 -2.29846,-2.45365c-2.41591,-1.38411 -3.72452,-2.74725 -6.70246,-1.74063c-0.32715,-0.97727 -1.53091,-0.85983 -2.10972,-1.65255c-0.55924,-0.76895 -1.13106,-1.37992 -1.71546,-1.8329c-0.61796,-0.47535 -1.06255,-0.88918 -1.33378,-1.24151c-0.55924,-0.72701 -1.14783,-1.43584 -1.76579,-2.1265z" fill="#189d0c" stroke="none" stroke-width="1"/><path d="M206.94162,132.19292c0.50611,0.70184 0.44319,1.57565 -0.18874,2.62143c-0.08109,0.13142 -0.12163,0.42921 -0.12163,0.89338c0,0.14261 -0.04474,0.26983 -0.13422,0.38168c-0.79132,0.9535 -1.27366,2.17124 -1.44702,3.65322c-0.2181,1.86505 -0.89478,3.69516 -2.03003,5.49031c-0.53687,0.85144 -0.49912,1.74063 -0.35232,2.65078c-2.39913,2.34321 -4.48229,4.15513 -6.24947,5.43579c-4.1775,3.02547 -7.69371,6.40327 -10.54861,10.13338c-0.41384,0.53966 -1.02061,1.52672 -1.82032,2.96116c-0.61236,1.09331 -1.27646,2.05939 -1.99228,2.89825c-0.42782,0.50052 -0.34393,0.61376 0.25166,0.33974c2.3446,-1.08213 4.42496,-1.91259 7.15963,-2.58367c2.82415,-0.69625 5.60356,-1.65814 8.33823,-2.88566c-0.32715,1.38411 -0.69625,2.72069 -1.10729,4.00973c-0.0727,0.22649 -0.09367,0.49213 -0.06292,0.79691c0.07549,0.74239 -0.00838,1.25408 -0.50331,1.9042c-1.23592,1.61899 -1.74762,3.55675 -1.53511,5.81327c-2.63121,0.32715 -5.14359,0.78153 -7.53712,1.36314c-0.74938,0.18175 -1.81333,0.57462 -3.19185,1.17859c-1.47638,0.64312 -3.01988,1.10869 -4.63048,1.39669c-0.2181,-3.07581 -0.05453,-6.10547 0.49073,-9.089c0.57602,-3.15969 0.86962,-4.77309 0.8808,-4.8402c0.64592,-3.74549 2.06778,-6.75698 3.27154,-10.09982c0.67668,-1.88183 1.37992,-3.47566 2.10972,-4.78148c1.7616,-3.1541 3.64903,-6.11665 5.66228,-8.88768c1.08213,-0.25445 2.01046,-0.8109 2.785,-1.66933c1.01921,-1.13245 2.17683,-1.72385 3.02407,-3.01988c0.07687,-0.11533 0.18097,-0.20785 0.30199,-0.26843c0.71023,-0.35512 1.33657,-0.8081 1.87904,-1.35895c0.5872,-0.59559 1.0989,-1.01642 1.53511,-1.26248c1.86226,-1.05136 3.78324,-2.10972 5.76294,-3.17507z" fill="#189d0c" stroke="none" stroke-width="1"/><path d="M284.04087,150.3206c-0.54246,2.00207 -1.75881,3.11635 -3.64903,3.34284c-1.21075,0.14261 -2.45085,-0.06571 -3.72032,-0.62495c-2.46204,-1.09051 -3.44351,-2.62142 -5.24705,-4.89053c-1.82591,-2.29007 -2.85071,-4.82902 -3.07441,-7.61681c0.22928,-1.59662 1.05276,-2.83673 2.47043,-3.72033c0.52568,-0.32715 1.23592,-0.66409 2.13069,-1.01082c2.97794,-1.00663 4.28655,0.35652 6.70246,1.74063c1.13245,0.65012 1.43864,1.59383 2.29846,2.45365c2.74306,2.73886 2.80597,6.66471 2.08875,10.32632z" fill="#fffffe" stroke="none" stroke-width="1"/><path d="M252.37825,138.21591c-0.41523,0.87241 -0.72142,1.79515 -1.08632,2.70112c-0.18455,0.46137 -0.26004,0.93952 -0.22649,1.43444c0.05033,0.70743 0.05593,1.1758 0.01678,1.40508c-0.22649,1.37013 -0.61656,2.68713 -1.17021,3.95101c-0.35512,0.8081 -0.64872,1.64695 -0.8808,2.51657c-0.31317,1.18838 -0.75916,2.32503 -1.33797,3.40995c-0.17057,0.32156 -0.26284,0.62495 -0.27682,0.91016c-0.01398,0.32156 -0.00279,0.64592 0.03355,0.97307c-3.78044,0.59838 -7.46721,0.68366 -11.06031,0.25585c-5.53645,-0.6585 -11.47555,0.31457 -16.81906,1.6861c-2.44946,0.63334 -4.75631,1.05696 -7.12608,1.65255c-3.77206,0.62355 -7.41549,1.64555 -10.93029,3.06602c-1.26248,0.50751 -2.35718,1.46381 -3.70774,2.00487c-2.73467,1.22753 -5.51408,2.18941 -8.33823,2.88566c-2.73467,0.67108 -4.81503,1.50155 -7.15963,2.58367c-0.59559,0.27403 -0.67947,0.16078 -0.25166,-0.33974c0.71582,-0.83886 1.37992,-1.80494 1.99228,-2.89825c0.79971,-1.43444 1.40648,-2.4215 1.82032,-2.96116c2.85491,-3.73011 6.37111,-7.10791 10.54861,-10.13338c1.76719,-1.28065 3.85035,-3.09258 6.24947,-5.43579c2.08316,-1.45682 3.80561,-2.30685 5.16735,-2.55012c3.85874,-0.68367 7.96913,-1.33378 11.19453,-3.27154c1.58544,-0.9535 3.01708,-1.62878 4.29494,-2.02584c1.43165,-0.44459 2.87727,-0.83047 4.33688,-1.15762c1.30023,-0.29081 2.77941,-0.46416 4.43755,-0.52009c3.90627,-0.13422 7.80835,-0.26704 11.70623,-0.39846c2.89126,-0.09787 5.74896,-0.01258 8.57311,0.25585z" fill="#6bd010" stroke="none" stroke-width="1"/><path d="M252.37825,138.21591c2.29007,0 4.46691,0.11325 6.82409,0.19294c3.29111,0.10905 6.34035,0.81648 9.14772,2.12231c0.22369,2.7878 1.2485,5.32674 3.07441,7.61681c1.80354,2.26911 2.78501,3.80002 5.24705,4.89053c1.26947,0.55924 2.50957,0.76755 3.72032,0.62495c1.89022,-0.22649 3.10656,-1.34077 3.64903,-3.34284c1.87904,-0.34393 2.95696,0.25585 4.30752,1.69868c0.67388,0.72142 1.3939,1.39809 2.16005,2.03003c0.46417,0.38308 0.9549,0.90876 1.47219,1.57705c1.05136,1.35895 2.44526,2.33342 4.1817,2.92342c0.60397,2.28169 1.30722,4.59134 2.10972,6.92895c0.74239,2.16844 0.85563,4.27816 1.23731,6.51372l-0.17196,0.13841c-0.06152,0.05033 -0.09926,0.03635 -0.11325,-0.04194c-0.01398,-0.08388 -0.06711,-0.13282 -0.15938,-0.1468c-1.56866,-0.24746 -2.80598,-1.26667 -3.84196,-1.73224c-1.34636,-0.60397 -2.7137,-0.96049 -3.9594,-1.75741c-0.66549,-0.42502 -1.35755,-0.84585 -2.07617,-1.26248l-1.15343,-1.10729c-0.09095,-0.08841 -0.21385,-0.13545 -0.33974,-0.13002c-0.37748,0.01398 -0.63613,-0.14261 -0.77594,-0.46976c-0.03076,-0.06991 -0.01818,-0.13282 0.03775,-0.18874c0.03635,-0.03355 0.06711,-0.07131 0.09227,-0.11325c0.05033,-0.08109 0.06571,-0.16358 0.04614,-0.24746c-0.03076,-0.11744 -0.10625,-0.20272 -0.22649,-0.25585c3.04085,0.18035 5.23865,-2.43688 3.99715,-5.29318c-0.33135,-0.77175 -0.98566,-1.10728 -1.61061,-1.64835c-1.36314,-1.1744 -2.90664,-1.04438 -4.24461,0.08388c-1.95873,1.65255 -1.37572,3.66999 -0.59558,5.75874c-1.34217,-0.37189 -2.66477,-0.78433 -3.96779,-1.23731c-1.00942,-0.34953 -2.26491,-0.92274 -3.76646,-1.71965c-2.5697,-1.36174 -5.23306,-2.50958 -7.9901,-3.44351c-1.01502,-0.34393 -2.16425,-0.61376 -3.4477,-0.80949c-2.936,-0.44459 -6.05235,-0.98566 -8.77443,-1.11148c-3.09538,-0.13981 -6.10128,-0.05313 -9.0177,0.26005c-0.03635,-0.32715 -0.04754,-0.65151 -0.03355,-0.97307c0.01398,-0.28521 0.10625,-0.5886 0.27682,-0.91016c0.57881,-1.08492 1.0248,-2.22157 1.33797,-3.40995c0.23208,-0.86962 0.52568,-1.70847 0.8808,-2.51657c0.55365,-1.26388 0.94372,-2.58088 1.17021,-3.95101c0.03915,-0.22928 0.03355,-0.69765 -0.01678,-1.40508c-0.03355,-0.49493 0.04194,-0.97307 0.22649,-1.43444c0.3649,-0.90596 0.67109,-1.82871 1.08632,-2.70112z" fill="#3eae0e" stroke="none" stroke-width="1"/><path d="M284.41416,163.57871c0.70464,0.55924 1.52252,0.92554 2.45365,1.09891c0.12024,0.05313 0.19573,0.13841 0.22649,0.25585c0.01957,0.08388 0.00419,0.16637 -0.04614,0.24746c-0.02516,0.04194 -0.05593,0.07969 -0.09227,0.11325c-0.05593,0.05593 -0.06851,0.11884 -0.03775,0.18874c0.13981,0.32715 0.39846,0.48374 0.77594,0.46976c0.12589,-0.00543 0.24879,0.04161 0.33974,0.13002l1.15343,1.10729c-0.09507,3.01429 0.01817,6.16699 0.33974,9.4581c0.03915,0.39706 -0.00979,0.83047 -0.1468,1.30023c-0.04194,0.1454 -0.13701,0.21112 -0.28521,0.19713c-1.6861,-0.13701 -3.33725,-0.44319 -4.95345,-0.91855c-1.42186,-0.41523 -2.74725,-0.47395 -4.18589,-1.02341c-2.01885,-0.76615 -4.06705,-1.55747 -6.14462,-2.37396c0.32715,-3.25196 -0.83047,-5.49171 -3.47286,-6.71924c-1.81752,-0.84165 -3.70914,-0.93532 -5.67486,-0.28102c-0.89757,0.29639 -1.66513,0.83187 -2.30266,1.60641c-0.88359,1.06814 -1.53791,2.21178 -1.96293,3.43092c-1.70847,0.25725 -3.45049,0.49073 -5.22607,0.70045c-3.04085,0.36071 -6.11945,1.24989 -9.27774,1.69029c-3.99855,0.25725 -7.90482,-0.20133 -11.71882,-1.37573c-1.29184,-0.39426 -3.23798,-0.57881 -4.56337,-0.54945c-3.11215,0.06431 -6.24528,0.07689 -9.39938,0.03775c-1.26667,-1.94195 -2.88566,-2.54593 -4.48788,-3.97618c-0.56203,-0.50052 -1.07234,-0.8822 -1.53091,-1.14504c-0.99824,-0.57322 -1.91678,-1.25269 -2.75564,-2.03842c0.2181,-0.04194 0.42642,-0.17616 0.62495,-0.40265c0.11464,-0.13142 0.15658,-0.28242 0.12583,-0.45298c-0.05033,-0.27123 0.01818,-0.52009 0.20552,-0.74658c0.09335,-0.11082 0.11758,-0.26427 0.06292,-0.39846c-0.43621,-1.0989 -0.38587,-2.16984 0.15099,-3.21282c0.02237,-0.04474 0.01817,-0.13841 -0.01258,-0.28102c-0.01678,-0.06431 -0.04474,-0.14401 -0.08388,-0.23907c-0.00839,-0.01398 -0.00699,-0.02657 0.00419,-0.03775l0.09227,-0.09227c0.07549,-0.07549 0.06151,-0.12583 -0.04195,-0.15099c-0.08388,-0.02237 -0.12443,-0.05033 -0.12163,-0.08388c2.36977,-0.59559 4.67662,-1.01921 7.12608,-1.65255c5.34351,-1.37153 11.28261,-2.3446 16.81906,-1.6861c3.5931,0.42782 7.27987,0.34254 11.06031,-0.25585c2.91642,-0.31317 5.92232,-0.39986 9.0177,-0.26005c2.72208,0.12583 5.83844,0.66689 8.77443,1.11148c1.28345,0.19573 2.43268,0.46556 3.4477,0.80949c2.75704,0.93393 5.42041,2.08176 7.9901,3.44351c1.50155,0.79691 2.75704,1.37013 3.76646,1.71965c1.30302,0.45298 2.62562,0.86542 3.96779,1.23731z" fill="#0d6e05" stroke="none" stroke-width="1"/><path d="M286.86781,164.67762c-0.93113,-0.17336 -1.74902,-0.53967 -2.45365,-1.09891c-0.78014,-2.08875 -1.36314,-4.1062 0.59558,-5.75874c1.33797,-1.12826 2.88147,-1.25828 4.24461,-0.08388c0.62495,0.54106 1.27926,0.8766 1.61061,1.64835c1.24151,2.85631 -0.95629,5.47354 -3.99715,5.29318z" fill="#fffffe" stroke="none" stroke-width="1"/><path d="M212.44452,159.11181c-0.00279,0.03355 0.03775,0.06152 0.12163,0.08388c0.10346,0.02516 0.11744,0.0755 0.04195,0.15099l-0.09227,0.09227c-0.01118,0.01118 -0.01258,0.02377 -0.00419,0.03775c0.03915,0.09507 0.06711,0.17476 0.08388,0.23907c0.03076,0.14261 0.03495,0.23628 0.01258,0.28102c-0.53687,1.04298 -0.5872,2.11392 -0.15099,3.21282c0.05466,0.13419 0.03044,0.28763 -0.06292,0.39846c-0.18734,0.22649 -0.25585,0.47535 -0.20552,0.74658c0.03076,0.17057 -0.01118,0.32156 -0.12583,0.45298c-0.19853,0.22649 -0.40685,0.36071 -0.62495,0.40265c-1.97131,-0.90177 -3.41415,-2.28168 -5.61614,-0.69625c-0.12583,0.09227 -0.18874,0.2167 -0.18874,0.37329l-0.00419,1.50155c-0.00279,0.12583 0.05173,0.2195 0.16358,0.28102c0.77175,0.42222 1.41207,0.99125 1.92098,1.70707c0.09507,0.13701 0.2195,0.23488 0.37329,0.2936c2.00486,0.78293 3.73711,1.96292 5.19672,3.53997c0.09626,0.10462 0.09065,0.26716 -0.01258,0.36491l-1.38411,1.27086c-2.0552,0.39426 -5.95308,0.93812 -11.69365,1.63157c-0.81648,0.09787 -2.68154,0.50751 -5.59516,1.22893c-0.21251,-2.25652 0.29919,-4.19428 1.53511,-5.81327c0.49493,-0.65012 0.57881,-1.16181 0.50331,-1.9042c-0.03076,-0.30478 -0.00978,-0.57042 0.06292,-0.79691c0.41104,-1.28904 0.78014,-2.62562 1.10729,-4.00973c1.35056,-0.54106 2.44526,-1.49736 3.70774,-2.00487c3.51481,-1.42046 7.15823,-2.44247 10.93029,-3.06602z" fill="#15880b" stroke="none" stroke-width="1"/><path d="M211.43789,165.21029c0.83886,0.78573 1.75741,1.46521 2.75564,2.03842c0.45857,0.26284 0.96888,0.64452 1.53091,1.14504c1.60222,1.43025 3.22121,2.03423 4.48788,3.97618c0.30199,1.47638 0.23907,2.73047 -1.27087,3.41834c-1.40928,0.64312 -2.80178,1.32539 -4.1775,2.04681c-0.64592,0.34114 -1.34776,0.85843 -2.10553,1.55188c-0.88639,0.81369 -1.84688,1.53651 -2.88147,2.16844c-0.59978,0.3649 -1.04437,0.27683 -1.58124,-0.08388c-3.89648,-2.62981 1.06954,-6.19915 3.69097,-7.6252l1.38411,-1.27086c0.10324,-0.09774 0.10884,-0.26028 0.01258,-0.36491c-1.45961,-1.57705 -3.19185,-2.75704 -5.19672,-3.53997c-0.15379,-0.05872 -0.27822,-0.15659 -0.37329,-0.2936c-0.50891,-0.71582 -1.14923,-1.28485 -1.92098,-1.70707c-0.11185,-0.06152 -0.16637,-0.15519 -0.16358,-0.28102l0.00419,-1.50155c0,-0.15659 0.06292,-0.28102 0.18874,-0.37329c2.202,-1.58544 3.64483,-0.20552 5.61614,0.69625z" fill="#052f01" stroke="none" stroke-width="1"/><path d="M273.81102,173.82954c-0.07829,1.10449 -0.38028,2.16285 -0.90596,3.17507c-0.46556,0.89757 -1.35056,1.30442 -2.16425,1.85806c-1.77418,1.19956 -3.77905,1.36734 -5.78811,0.82208c-3.36381,-1.66094 -4.88214,-4.26698 -4.55499,-7.81814c0.42502,-1.21914 1.07933,-2.36277 1.96293,-3.43092c0.63753,-0.77454 1.40508,-1.31002 2.30266,-1.60641c1.96572,-0.65431 3.85734,-0.56064 5.67486,0.28102c2.6424,1.22753 3.80002,3.46727 3.47286,6.71924z" fill="#052f01" stroke="none" stroke-width="1"/><path d="M289.18725,167.18999c0.71862,0.41663 1.41068,0.83746 2.07617,1.26248c1.2457,0.79691 2.61303,1.15343 3.9594,1.75741c1.03598,0.46556 2.27331,1.48477 3.84196,1.73224c0.09227,0.01398 0.1454,0.06292 0.15938,0.1468c0.01398,0.07829 0.05173,0.09227 0.11325,0.04194l0.17196,-0.13841c0.36351,4.51304 0.41524,8.97855 0.15519,13.39653c-1.6134,-1.21075 -3.20723,-2.40892 -4.78148,-3.5945c-1.50575,-1.13245 -3.30509,-1.54349 -4.97441,-2.57948c-0.05846,-0.03586 -0.13095,-0.04019 -0.19326,-0.01156c-0.06231,0.02863 -0.10624,0.08645 -0.11712,0.15417c-0.21391,1.26248 -0.08808,2.73047 -0.24327,3.80002c-0.31876,2.17823 -0.5886,4.36065 -0.80949,6.54727c-0.09507,0.94511 -0.38867,1.9797 -0.8808,3.10376c-0.69206,1.59383 -1.0234,2.8605 -1.37153,4.38722c-0.04197,0.18727 0.03314,0.38136 0.19023,0.4916c0.15709,0.11024 0.36515,0.11486 0.52699,0.01171c0.69905,-0.45298 1.44423,-0.83466 2.23555,-1.14504c0.79691,-0.31038 1.4694,-0.66549 2.01745,-1.06535c1.3198,-0.96468 2.69552,-1.84828 4.12717,-2.65078c1.37153,-0.77175 2.16844,-2.05939 3.56933,-2.91503c0.12863,1.42046 -0.08109,2.72348 -0.62914,3.90907c-0.46696,1.00663 -0.75497,1.70707 -0.86402,2.10134c-0.57462,2.13489 -1.03599,4.14814 -1.94615,6.20334c-0.87241,1.9797 -1.56446,3.97198 -2.68434,5.8678c-0.38308,0.64872 -0.72701,1.33378 -1.03179,2.0552c-0.11185,-0.25445 -0.22788,-0.41244 -0.34812,-0.47395c-0.10905,-0.05593 -0.24327,0.00979 -0.40265,0.19713c-1.21634,1.43864 -2.4201,1.98809 -3.89229,2.785c-0.91855,0.50332 -1.81193,1.40928 -2.91503,1.94615c-1.02341,0.49493 -1.64416,1.35056 -2.75564,1.87484c-1.15483,0.54526 -2.23135,1.21074 -3.22959,1.99647c-0.7354,0.57602 -2.16984,1.05975 -4.30333,1.45122c1.07793,-0.78433 1.53511,-1.96292 2.16425,-2.7095c0.76336,-0.90177 1.45122,-1.61899 2.03423,-2.72209c0.76755,-1.43864 1.82032,-2.58787 2.47462,-4.03909c0.91016,-2.02164 2.21038,-3.89648 2.90664,-5.88038c0.34953,-0.98985 0.67528,-1.99228 0.97727,-3.0073c0.04671,-0.15399 0.13055,-0.29129 0.24327,-0.39845c0.71862,-0.69345 1.10449,-1.55468 1.15762,-2.58368c0.00822,-0.16683 -0.07045,-0.32604 -0.20798,-0.42086c-0.13752,-0.09481 -0.3143,-0.11172 -0.4673,-0.04471c-2.4201,1.04857 -4.60952,2.28588 -7.1135,3.03246c-3.46028,1.03179 -7.13027,2.55432 -10.32212,3.29671c-4.90731,1.13245 -9.72653,0.88918 -14.74289,1.70707c-2.53754,0.41523 -5.88877,0.76756 -8.10754,-0.39845c-1.82871,-0.96049 -3.3722,-1.04018 -5.33093,-0.89338l1.98808,-0.32296c0.12024,-0.01957 0.2195,-0.0741 0.29779,-0.16358c0.23208,-0.25445 0.52848,-0.38168 0.88919,-0.38168c0.14465,-0.00272 0.28099,-0.06331 0.37748,-0.16777c0.77734,-0.84165 1.59523,-1.63857 2.45365,-2.39074c1.12407,-0.98146 1.95034,-1.74482 2.47882,-2.29007c2.30685,-2.36977 4.73534,-4.71437 6.85345,-7.15125c2.0524,-2.35718 3.45189,-4.02091 4.19847,-4.99119c0.70743,-0.91435 1.33378,-1.6889 1.87904,-2.32363c0.70184,-0.81369 1.24989,-1.50435 1.64416,-2.07197c0.52288,-0.75497 1.05136,-1.50854 1.58544,-2.26072c0.01938,-0.03036 0.05671,-0.04395 0.09107,-0.03315c0.03436,0.0108 0.05721,0.0433 0.05573,0.07929v0.18455c0.00239,0.05968 0.0407,0.11196 0.09688,0.13222c0.05618,0.02026 0.11904,0.00447 0.15897,-0.03995c0.38028,-0.43061 0.47395,-0.7298 0.28102,-0.89757c2.00906,0.54526 4.01393,0.37748 5.78811,-0.82208c0.81369,-0.55365 1.69868,-0.96049 2.16425,-1.85806c0.52568,-1.01222 0.82767,-2.07057 0.90596,-3.17507c2.07757,0.81648 4.12577,1.60781 6.14462,2.37396c1.43864,0.54945 2.76403,0.60817 4.18589,1.02341c1.6162,0.47535 3.26735,0.78154 4.95345,0.91855c0.1482,0.01398 0.24327,-0.05173 0.28521,-0.19713c0.13701,-0.46976 0.18595,-0.90317 0.1468,-1.30023c-0.32156,-3.29111 -0.43481,-6.44381 -0.33974,-9.4581z" fill="#189d0c" stroke="none" stroke-width="1"/><path d="M260.39771,171.86661c-0.32715,3.55115 1.19118,6.1572 4.55499,7.81814c0.19294,0.16777 0.09926,0.46696 -0.28102,0.89757c-0.03993,0.04442 -0.10279,0.06021 -0.15897,0.03995c-0.05618,-0.02026 -0.09449,-0.07255 -0.09688,-0.13222v-0.18455c0.00148,-0.03598 -0.02137,-0.06849 -0.05573,-0.07929c-0.03436,-0.0108 -0.07169,0.00279 -0.09107,0.03315c-0.53407,0.75217 -1.06255,1.50575 -1.58544,2.26072c-0.39426,0.56763 -0.94232,1.25828 -1.64416,2.07197c-0.54526,0.63474 -1.17161,1.40928 -1.87904,2.32363c-0.74658,0.97028 -2.14607,2.63401 -4.19847,4.99119c-2.11811,2.43687 -4.5466,4.78148 -6.85345,7.15125c-0.52848,0.54526 -1.35475,1.30861 -2.47882,2.29007c-0.85843,0.75217 -1.67631,1.54909 -2.45365,2.39074c-0.09649,0.10446 -0.23283,0.16505 -0.37748,0.16777c-0.36071,0 -0.65711,0.12723 -0.88919,0.38168c-0.07829,0.08948 -0.17756,0.14401 -0.29779,0.16358l-1.98808,0.32296c-1.26667,-0.04474 -2.65358,0.32995 -4.16073,1.12407c-1.79236,0.94232 -3.76646,0.97167 -5.92232,0.08808c-1.18698,-0.48654 -2.22296,-0.97726 -3.53997,-1.09471c-3.18486,-0.28801 -6.37111,-0.55644 -9.55876,-0.80531c-2.49979,-0.19713 -5.02474,-1.88323 -7.07155,-2.47462c-2.68853,-0.77594 -5.60356,-0.54106 -8.16626,-1.19118c0.59838,0.08109 1.14364,0.05313 1.63577,-0.08388c0.12024,-0.03076 0.23907,-0.03355 0.35652,-0.00839c0.34953,0.07549 0.5872,-0.02376 0.71303,-0.29779c0.06152,-0.13142 0.16218,-0.21391 0.30199,-0.24746c0.38867,-0.08948 0.74239,-0.25585 1.06115,-0.49912c0.37469,-0.28242 0.68367,-0.46557 0.92694,-0.54945c7.67553,-2.66476 14.91485,-6.21313 21.71798,-10.64508c0.09507,-0.06152 0.11604,-0.14121 0.06291,-0.23907l-0.06291,-0.11744c-0.08668,-0.15379 -0.04194,-0.21671 0.13422,-0.18874c0.36071,0.06152 0.73959,0 1.13665,-0.18455c1.89022,-0.87241 3.45749,-1.91399 4.70179,-3.12474c0.79412,1.03179 1.60781,2.11112 2.44107,3.23798c0.75497,1.01921 2.63401,2.99472 3.79163,3.2254c2.42849,0.47815 3.48964,-2.44107 4.3998,-4.05587c0.2181,-0.39147 0.6599,-1.00942 1.32539,-1.85387c1.16601,-1.48757 1.70428,-3.21282 1.6148,-5.17574c-0.07131,-1.59802 -1.44703,-2.10972 -2.76823,-1.59382c-1.55608,0.59978 -3.5945,4.94086 -4.2488,6.4508c-0.05681,0.12947 -0.18188,0.21573 -0.32308,0.22283c-0.1412,0.0071 -0.2743,-0.06617 -0.34382,-0.18928l-1.0989,-1.9797c0.62075,-0.16218 1.173,-0.59559 1.65674,-1.30023c0.19014,-0.27682 0.37608,-0.82487 0.55784,-1.64416c0.2209,-0.99265 0.74239,-1.74902 1.56447,-2.26911c0.76895,-0.48374 1.3226,-0.93673 1.66093,-1.35895c0.08109,-0.10066 0.17896,-0.17895 0.2936,-0.23488c0.37748,-0.18175 0.59419,-0.48654 0.65012,-0.91435c0.01657,-0.12513 0.12342,-0.21951 0.25166,-0.22229c0.58999,-0.01398 0.78293,-0.12163 0.57881,-0.32296c3.15829,-0.4404 6.23689,-1.32958 9.27774,-1.69029c1.77558,-0.20972 3.5176,-0.4432 5.22607,-0.70045z" fill="#3eae0e" stroke="none" stroke-width="1"/><path d="M245.8939,174.25735c0.20412,0.20133 0.01118,0.30897 -0.57881,0.32296c-0.12824,0.00278 -0.23509,0.09716 -0.25166,0.22229c-0.05593,0.42782 -0.27263,0.7326 -0.65012,0.91435c-0.11464,0.05593 -0.21251,0.13422 -0.2936,0.23488c-0.33834,0.42222 -0.89198,0.87521 -1.66093,1.35895c-0.82208,0.52009 -1.34357,1.27646 -1.56447,2.26911c-0.18175,0.81928 -0.3677,1.36734 -0.55784,1.64416c-0.48374,0.70464 -1.03599,1.13805 -1.65674,1.30023c-1.23592,-1.29743 -2.34041,-2.58787 -3.31348,-3.87132c-0.35512,-0.47255 -0.99964,-0.59418 -1.93356,-0.3649c-0.1454,0.03355 -0.25165,0.11604 -0.31876,0.24746l-0.78853,1.48897c-0.06991,0.13701 -0.07549,0.27682 -0.01677,0.41943l1.58124,3.79163c-1.2443,1.21075 -2.81157,2.25233 -4.70179,3.12474c-0.39706,0.18455 -0.77594,0.24606 -1.13665,0.18455c-0.17616,-0.02796 -0.2209,0.03495 -0.13422,0.18874l0.06291,0.11744c0.05313,0.09787 0.03216,0.17756 -0.06291,0.23907c-6.80312,4.43195 -14.04244,7.98032 -21.71798,10.64508c-0.24327,0.08388 -0.55225,0.26704 -0.92694,0.54945c-0.31876,0.24327 -0.67248,0.40964 -1.06115,0.49912c-0.13981,0.03355 -0.24047,0.11604 -0.30199,0.24746c-0.12583,0.27403 -0.3635,0.37328 -0.71303,0.29779c-0.11744,-0.02516 -0.23628,-0.02237 -0.35652,0.00839c-0.49213,0.13701 -1.03738,0.16497 -1.63577,0.08388l-4.90311,-0.57042c-4.26139,-1.26248 -8.22917,-3.10796 -11.90336,-5.63292c-1.45122,-0.99824 -3.01988,-1.72804 -4.01812,-3.23379c-0.96748,-3.41974 -1.34777,-6.86603 -1.14085,-10.3389c1.61061,-0.28801 3.1541,-0.75357 4.63048,-1.39669c1.37852,-0.60397 2.44247,-0.99684 3.19185,-1.17859c2.39353,-0.58161 4.90591,-1.03598 7.53712,-1.36314c2.91363,-0.72142 4.77868,-1.13106 5.59516,-1.22893c5.74057,-0.69345 9.63846,-1.23731 11.69365,-1.63157c-2.62143,1.42605 -7.58745,4.99539 -3.69097,7.6252c0.53687,0.36071 0.98146,0.44878 1.58124,0.08388c1.03459,-0.63194 1.99508,-1.35475 2.88147,-2.16844c0.75776,-0.69345 1.45961,-1.21075 2.10553,-1.55188c1.37572,-0.72142 2.76822,-1.40368 4.1775,-2.04681c1.50994,-0.68786 1.57286,-1.94195 1.27087,-3.41834c3.1541,0.03915 6.28723,0.02656 9.39938,-0.03775c1.32539,-0.02936 3.27154,0.15518 4.56337,0.54945c3.814,1.1744 7.72027,1.63297 11.71882,1.37573z" fill="#56bf0e" stroke="none" stroke-width="1"/><path d="M233.88987,184.23554l-1.58124,-3.79163c-0.05872,-0.14261 -0.05313,-0.28242 0.01677,-0.41943l0.78853,-1.48897c0.06711,-0.13142 0.17336,-0.21391 0.31876,-0.24746c0.93393,-0.22928 1.57845,-0.10765 1.93356,0.3649c0.97307,1.28345 2.07756,2.57389 3.31348,3.87132l1.0989,1.9797c0.06951,0.12311 0.20262,0.19639 0.34382,0.18928c0.1412,-0.0071 0.26627,-0.09337 0.32308,-0.22283c0.65431,-1.50994 2.69272,-5.85102 4.2488,-6.4508c1.3212,-0.51589 2.69692,-0.0042 2.76823,1.59382c0.08948,1.96292 -0.44879,3.68817 -1.6148,5.17574c-0.66549,0.84445 -1.10729,1.4624 -1.32539,1.85387c-0.91016,1.6148 -1.97131,4.53402 -4.3998,4.05587c-1.15762,-0.23068 -3.03666,-2.20619 -3.79163,-3.2254c-0.83326,-1.12686 -1.64695,-2.20619 -2.44107,-3.23798z" fill="#052f01" stroke="none" stroke-width="1"/><path d="M299.66455,185.38897l-0.70464,4.53401c-1.40089,0.85563 -2.1978,2.14328 -3.56933,2.91503c-1.43165,0.80251 -2.80737,1.6861 -4.12717,2.65078c-0.54805,0.39986 -1.22054,0.75497 -2.01745,1.06535c-0.79132,0.31038 -1.5365,0.69205 -2.23555,1.14504c-0.16183,0.10315 -0.3699,0.09852 -0.52699,-0.01171c-0.15709,-0.11024 -0.2322,-0.30434 -0.19023,-0.4916c0.34813,-1.52672 0.67947,-2.79339 1.37153,-4.38722c0.49213,-1.12407 0.78573,-2.15865 0.8808,-3.10376c0.2209,-2.18662 0.49073,-4.36904 0.80949,-6.54727c0.15519,-1.06954 0.02936,-2.53754 0.24327,-3.80002c0.01087,-0.06771 0.0548,-0.12554 0.11712,-0.15417c0.06231,-0.02863 0.1348,-0.02429 0.19326,0.01156c1.66932,1.03598 3.46866,1.44703 4.97441,2.57948c1.57425,1.18558 3.16808,2.38375 4.78148,3.5945z" fill="#3eae0e" stroke="none" stroke-width="1"/><path d="M180.37926,190.98413c0.99824,1.50575 2.5669,2.23555 4.01812,3.23379c3.67419,2.52496 7.64197,4.37044 11.90336,5.63292c0.0727,0.09227 0.08808,0.22509 0.04614,0.39846c-0.03355,0.13422 -0.12023,0.20133 -0.26004,0.20133h-0.39007c-0.1454,0 -0.22929,0.0727 -0.25166,0.2181c-0.25725,1.64136 -0.71303,3.22681 -1.36734,4.75632c-0.05313,0.12024 -0.0741,0.24466 -0.06291,0.37329c0.0727,1.05975 -0.09507,2.15446 -0.50332,3.28412c-2.6424,-1.40928 -4.26978,-2.40752 -4.88214,-2.99472c-1.62738,-1.56027 -3.36381,-3.07721 -5.20929,-4.5508c-1.36734,-3.34704 -2.38095,-6.86464 -3.04085,-10.55281z" fill="#15880b" stroke="none" stroke-width="1"/><path d="M273.95782,219.83658c-0.29081,0.12024 -0.4404,0.21671 -0.44879,0.28941c-1.67771,0.41523 -3.3009,1.25409 -4.75212,1.63996c-3.66161,0.98146 -7.71747,2.48302 -11.53008,2.3488c-5.48891,-0.19294 -11.32315,-0.02936 -17.50272,0.49073c-4.1775,0.34953 -8.37598,0.01118 -12.59542,-1.01502c-3.42253,-0.83047 -6.84087,-1.01082 -10.25082,-2.02164c-2.71789,-1.24989 -5.07507,-2.33202 -7.83072,-4.0307c-2.32363,-1.43724 -4.75352,-2.67175 -7.28966,-3.70355c-1.29463,-0.52568 -4.04328,-2.10972 -8.24595,-4.75212c0.40824,-1.12966 0.57602,-2.22437 0.50332,-3.28412c-0.01118,-0.12863 0.00978,-0.25305 0.06291,-0.37329c0.65431,-1.52951 1.11009,-3.11495 1.36734,-4.75632c0.02237,-0.1454 0.10626,-0.2181 0.25166,-0.2181h0.39007c0.13981,0 0.22649,-0.06711 0.26004,-0.20133c0.04194,-0.17336 0.02656,-0.30618 -0.04614,-0.39846l4.90311,0.57042c2.56271,0.65012 5.47773,0.41524 8.16626,1.19118c2.04681,0.59139 4.57176,2.27749 7.07155,2.47462c3.18765,0.24886 6.37391,0.5173 9.55876,0.80531c1.31701,0.11744 2.35299,0.60817 3.53997,1.09471c2.15586,0.88359 4.12996,0.85424 5.92232,-0.08808c1.50715,-0.79412 2.89405,-1.16881 4.16073,-1.12407c1.95873,-0.1468 3.50222,-0.06711 5.33093,0.89338c2.21877,1.16601 5.57001,0.81368 8.10754,0.39845c5.01636,-0.81788 9.83559,-0.57462 14.74289,-1.70707c3.19185,-0.74239 6.86184,-2.26491 10.32212,-3.29671c2.50398,-0.74658 4.6934,-1.98389 7.1135,-3.03246c0.153,-0.06701 0.32978,-0.0501 0.4673,0.04471c0.13752,0.09481 0.2162,0.25402 0.20798,0.42086c-0.05313,1.029 -0.439,1.89023 -1.15762,2.58368c-0.11272,0.10716 -0.19655,0.24446 -0.24327,0.39845c-0.30199,1.01502 -0.62774,2.01745 -0.97727,3.0073c-0.69625,1.98389 -1.99648,3.85874 -2.90664,5.88038c-0.65431,1.45122 -1.70707,2.60045 -2.47462,4.03909c-0.58301,1.10309 -1.27087,1.82032 -2.03423,2.72209c-0.62914,0.74658 -1.08632,1.92517 -2.16425,2.7095z" fill="#0d6e05" stroke="none" stroke-width="1"/><path d="M193.51154,209.08245c4.20267,2.6424 6.95132,4.22643 8.24595,4.75212c2.53614,1.03179 4.96603,2.26631 7.28966,3.70355c2.75564,1.69868 5.11282,2.78081 7.83072,4.0307c-0.01398,0.12863 0.09087,0.23069 0.31457,0.30618c0.12024,0.03915 0.13562,0.10486 0.04614,0.19713c-1.07653,1.12686 -2.14327,1.85946 -3.20023,2.1978c-1.45402,0.46417 -2.91083,0.93113 -4.37044,1.40089c-0.08668,0.02796 -0.1482,0.08249 -0.18455,0.16358c-0.01398,0.03355 -0.01957,0.06991 -0.01677,0.10905c0.00279,0.05033 -0.02097,0.07969 -0.07131,0.08808l-4.20686,0.71303c-0.06858,0.01099 -0.13846,0.00225 -0.20133,-0.02517l-4.27816,-1.90001c-0.10626,-0.04754 -0.19714,-0.11604 -0.27263,-0.20552c-0.78573,-0.91995 -1.70707,-1.65394 -2.76403,-2.202c-2.21038,-1.93356 -4.34527,-3.80841 -6.07751,-6.19914c-2.41031,-3.32187 -4.65565,-6.90658 -6.73601,-10.75413c-0.67947,-1.25828 -1.15902,-2.5655 -1.43864,-3.92165c1.84548,1.47359 3.58191,2.99052 5.20929,4.5508c0.61236,0.5872 2.23975,1.58544 4.88214,2.99472z" fill="#3eae0e" stroke="none" stroke-width="1"/><path d="M291.80447,210.05971c-0.74938,1.12407 -1.49735,2.26351 -2.24394,3.41834c-0.81089,1.26108 -1.6092,2.36278 -2.39493,3.30509c-2.48301,2.97794 -4.70458,5.34351 -6.66471,7.09672c-1.04298,0.93393 -2.77521,2.12371 -5.19671,3.56933c-0.53966,0.12024 -1.0276,0.37329 -1.46381,0.75917c-0.10346,0.09227 -0.22229,0.15099 -0.35651,0.17616c-0.92834,0.15938 -1.97831,0.56343 -3.14991,1.21215c-0.83326,0.46137 -1.96293,0.91435 -3.38898,1.35895c-0.93952,0.29081 -2.08315,0.69625 -3.43092,1.21634c-1.34217,0.5145 -2.72208,0.91435 -4.13975,1.19956c-0.49493,0.10066 -0.93533,0.50751 -1.40089,0.54526c-0.09774,0.00998 -0.18888,-0.05062 -0.21748,-0.14462c-0.02861,-0.09399 0.01332,-0.19509 0.10004,-0.24126c2.1265,-1.19117 3.90907,-2.28588 5.85941,-3.91326c1.92937,-1.61061 3.85873,-3.2226 5.7881,-4.836c1.40928,-1.17719 2.74446,-2.72908 4.00554,-4.65565c0.00839,-0.0727 0.15798,-0.16917 0.44879,-0.28941c2.13349,-0.39147 3.56793,-0.87521 4.30333,-1.45122c0.99824,-0.78573 2.07476,-1.45122 3.22959,-1.99647c1.11148,-0.52428 1.73224,-1.37992 2.75564,-1.87484c1.10309,-0.53687 1.99648,-1.44283 2.91503,-1.94615c1.47219,-0.79691 2.67595,-1.34636 3.89229,-2.785c0.15938,-0.18734 0.2936,-0.25306 0.40265,-0.19713c0.12024,0.06152 0.23627,0.2195 0.34812,0.47395z" fill="#3eae0e" stroke="none" stroke-width="1"/><path d="M273.50903,220.12598c-1.26108,1.92657 -2.59626,3.47846 -4.00554,4.65565c-1.92937,1.6134 -3.85873,3.2254 -5.7881,4.836c-1.95034,1.62738 -3.73291,2.72209 -5.85941,3.91326c-0.08673,0.04617 -0.12865,0.14726 -0.10004,0.24126c0.02861,0.09399 0.11974,0.15459 0.21748,0.14462c0.46556,-0.03775 0.90596,-0.44459 1.40089,-0.54526c1.41767,-0.28521 2.79758,-0.68506 4.13975,-1.19956c1.34776,-0.52009 2.4914,-0.92553 3.43092,-1.21634c1.42605,-0.44459 2.55572,-0.89758 3.38898,-1.35895c1.1716,-0.64872 2.22157,-1.05276 3.14991,-1.21215c0.13422,-0.02516 0.25305,-0.08388 0.35651,-0.17616c0.43621,-0.38587 0.92414,-0.63893 1.46381,-0.75917c-0.5872,0.53966 -1.14224,1.1003 -1.66513,1.68191c-0.53966,0.59838 -1.12267,1.07654 -1.74902,1.43445c-2.57948,1.48058 -4.82342,3.09957 -7.79716,4.30752c-2.1978,0.89757 -5.05411,1.52253 -7.54971,2.4201c-0.87521,0.31317 -1.9084,0.5858 -3.09957,0.81788c-1.468,0.28941 -2.68434,0.79691 -4.19428,0.89757c-1.22193,0.08109 -2.43408,0.2223 -3.63644,0.42363c-0.12303,0.02237 -0.18734,-0.02936 -0.19294,-0.15519c-0.00279,-0.10346 0.02097,-0.16218 0.07131,-0.17616c3.06182,-0.89338 5.92232,-2.20619 8.88348,-3.3722c0.37329,-0.15099 0.46557,-0.31876 0.78014,-0.52428c0.09587,-0.05958 0.13481,-0.17839 0.09293,-0.28358c-0.04188,-0.10519 -0.15285,-0.16738 -0.2649,-0.14843c-2.14747,0.40265 -4.17331,1.06116 -6.25367,1.47639c-1.59942,0.32156 -3.17227,0.74238 -4.71856,1.26247c-0.79132,0.26564 -1.56587,0.39566 -2.32363,0.39007c-2.97374,-0.01258 -6.3837,0.34813 -9.25677,-0.43621c-1.87065,-0.50891 -3.76367,-0.90177 -5.67905,-1.17859c-3.03666,-0.4404 -4.39561,-1.09052 -6.75279,-2.72628c-1.8315,-1.26667 -3.98876,-2.2733 -6.47177,-3.01988c-0.69066,-0.20972 -1.41487,-0.45018 -2.17264,-0.72142c-0.72421,-0.26005 -1.45682,-0.48794 -2.19781,-0.68367c-0.56483,-0.1482 -1.30861,-0.41803 -2.23135,-0.80949c-0.71023,-0.29919 -1.45402,-0.5131 -2.23136,-0.64173c-0.10626,-0.01957 -0.19574,-0.0699 -0.26844,-0.15099c-0.29919,-0.33834 -0.68506,-0.51729 -1.15762,-0.53687c-0.15099,-0.00839 -0.27263,-0.0727 -0.36491,-0.19294c-0.37748,-0.5145 -0.85284,-0.90457 -1.42605,-1.17021c-0.65711,-0.30478 -1.11148,-0.57322 -1.36314,-0.8053c-0.84445,-0.77734 -1.65814,-1.58264 -2.44107,-2.41591c1.05696,0.54805 1.9783,1.28205 2.76403,2.202c0.07549,0.08948 0.16637,0.15798 0.27263,0.20552l4.27816,1.90001c0.06287,0.02742 0.13274,0.03616 0.20133,0.02517l4.20686,-0.71303c0.05033,-0.00839 0.0741,-0.03775 0.07131,-0.08808c-0.00279,-0.03915 0.00279,-0.0755 0.01677,-0.10905c0.03635,-0.08109 0.09787,-0.13562 0.18455,-0.16358c1.45961,-0.46976 2.91642,-0.93672 4.37044,-1.40089c1.05696,-0.33834 2.1237,-1.07094 3.20023,-2.1978c0.08948,-0.09227 0.0741,-0.15798 -0.04614,-0.19713c-0.22369,-0.07549 -0.32855,-0.17756 -0.31457,-0.30618c3.40995,1.01082 6.82829,1.19117 10.25082,2.02164c4.21944,1.0262 8.41792,1.36454 12.59542,1.01502c6.17957,-0.52009 12.01381,-0.68366 17.50272,-0.49073c3.8126,0.13422 7.86847,-1.36734 11.53008,-2.3488c1.45122,-0.38587 3.07441,-1.22473 4.75212,-1.63996z" fill="#189d0c" stroke="none" stroke-width="1"/><path d="M178.125,180c0,-34.17262 27.70238,-61.875 61.875,-61.875c34.17262,0 61.875,27.70238 61.875,61.875c0,34.17262 -27.70238,61.875 -61.875,61.875c-34.17262,0 -61.875,-27.70238 -61.875,-61.875z" fill="none" stroke="#0d6d06" stroke-width="4.5"/></g></g></svg>