<svg version="1.1" xmlns="http://www.w3.org/2000/svg" xmlns:xlink="http://www.w3.org/1999/xlink" width="44.17196" height="46.94295" viewBox="0,0,44.17196,46.94295"><g transform="translate(-217.91403,-156.77852)"><g data-paper-data="{&quot;isPaintingLayer&quot;:true}" fill-rule="nonzero" stroke-linejoin="miter" stroke-miterlimit="10" stroke-dasharray="" stroke-dashoffset="0" style="mix-blend-mode: normal"><path d="M218.91404,181.39124c0,-11.78036 9.44051,-21.33021 21.08599,-21.33021c11.64546,0 21.08597,9.54985 21.08597,21.33021c0,11.78036 -9.44051,21.33023 -21.08597,21.33023c-11.64546,0 -21.08599,-9.54987 -21.08599,-21.33023z" fill="#fc8515" stroke="#ea6008" stroke-width="2" stroke-linecap="butt"/><path d="M228.62542,179.45654c0,-1.25896 1.02061,-2.27957 2.27957,-2.27957c1.25896,0 2.27955,1.02061 2.27955,2.27957c0,1.25896 -1.02059,2.27955 -2.27955,2.27955c-1.25896,0 -2.27957,-1.02059 -2.27957,-2.27955z" fill="#d33114" stroke="none" stroke-width="1" stroke-linecap="butt"/><path d="M246.69912,179.45654c0,-1.25896 1.02061,-2.27957 2.27957,-2.27957c1.25896,0 2.27955,1.02061 2.27955,2.27957c0,1.25896 -1.02059,2.27955 -2.27955,2.27955c-1.25896,0 -2.27957,-1.02059 -2.27957,-2.27955z" fill="#d33114" stroke="none" stroke-width="1" stroke-linecap="butt"/><path d="M236.76673,181.57327c0,0 0.73299,0.73352 0.94438,1.36774c0.22226,0.66677 0.03257,1.56313 0.03257,1.56313" fill="none" stroke="#d33114" stroke-width="1" stroke-linecap="round"/><path d="M238.06933,183.03871h2.76805" fill="none" stroke="#d33114" stroke-width="1" stroke-linecap="round"/><path d="M241.47247,184.48795c0,0 -0.1092,-0.7462 0.01329,-1.26068c0.14506,-0.60921 0.63803,-1.50737 0.63803,-1.50737" fill="none" stroke="#d33114" stroke-width="1" stroke-linecap="round"/><path d="M232.4394,166.82095c1.10171,1.12375 0.14625,3.04568 -1.33067,4.49365c-1.47692,1.44797 -2.91602,1.87363 -4.01773,0.74987c-1.10171,-1.12375 -1.77449,-1.90593 0.6794,-4.65649c1.3769,-1.5434 3.5673,-1.71079 4.66901,-0.58703z" fill="#ffeab5" stroke="none" stroke-width="1" stroke-linecap="butt"/><path d="M237.25521,166.34902c0,0.67445 -0.54674,1.2212 -1.2212,1.2212c-0.67445,0 -1.2212,-0.54674 -1.2212,-1.2212c0,-0.67445 0.54674,-1.2212 1.2212,-1.2212c0.67445,0 1.2212,0.54674 1.2212,1.2212z" fill="#ffeab5" stroke="none" stroke-width="1" stroke-linecap="butt"/><path d="M249.35425,162.96746c0,0 0.90964,0.46972 1.34931,0.72901c6.11208,3.60466 10.21959,10.30717 10.21959,17.98014c0,11.48641 -9.20494,20.79796 -20.55982,20.79796c-3.7036,0 -7.17848,-0.99061 -10.17983,-2.7242c-0.36472,-0.21067 -1.07274,-0.66445 -1.07274,-0.66445c0,0 13.66166,5.9603 25.09127,-7.81216c9.70108,-11.68962 -4.8478,-28.30628 -4.8478,-28.30628z" fill="#f76c0d" stroke="#ea6008" stroke-width="0.5" stroke-linecap="butt"/><path d="M246.83615,164.44287c0,0.89926 -2.69968,-1.46543 -6.43163,-1.46543c-3.73194,0 -7.08294,2.36469 -7.08294,1.46543c0,-0.14851 1.19338,-1.76576 0.98763,-2.90335c-0.21253,-1.17511 -1.81974,-1.87117 -1.51778,-1.99433c0.67548,-0.2755 2.43049,-0.39143 4.27177,-0.44019c1.36381,-0.03612 2.77494,-1.82648 3.82979,-1.82648c0.80766,0 1.5314,1.8831 2.99725,1.99247c0.99268,0.07406 2.85461,0.15608 3.2816,0.22285c0.9138,0.1429 -1.10753,0.71746 -1.41146,1.82829c-0.31336,1.14532 1.07576,2.82993 1.07576,3.12073z" fill="#b3f234" stroke="#679719" stroke-width="1" stroke-linecap="butt"/></g></g></svg>