<svg version="1.1" xmlns="http://www.w3.org/2000/svg" xmlns:xlink="http://www.w3.org/1999/xlink" width="80.75" height="81.79362" viewBox="0,0,80.75,81.79362"><defs><linearGradient x1="240" y1="140.6032" x2="240" y2="219.39681" gradientUnits="userSpaceOnUse" id="color-1"><stop offset="0" stop-color="#ffafa6"/><stop offset="1" stop-color="#ffccc4"/></linearGradient></defs><g transform="translate(-199.625,-139.10319)"><g data-paper-data="{&quot;isPaintingLayer&quot;:true}" fill-rule="nonzero" stroke-linecap="butt" stroke-linejoin="miter" stroke-miterlimit="10" stroke-dasharray="" stroke-dashoffset="0" style="mix-blend-mode: normal"><path d="M278.875,180.00001c0,21.75826 -17.40493,39.39681 -38.875,39.39681c-21.47007,0 -38.875,-17.63856 -38.875,-39.39681c0,-21.75826 17.40493,-39.39681 38.875,-39.39681c21.47007,0 38.875,17.63856 38.875,39.39681z" fill="url(#color-1)" stroke="#f56f62" stroke-width="3"/><path d="M234.65011,179.783c0.02112,-0.1262 0.10972,-0.23175 0.23195,-0.2763l2.00228,-0.71973c0.12508,-0.04548 0.24446,-0.03183 0.35816,0.04094l1.23138,0.7743c0.09474,0.06038 0.1564,0.16105 0.16714,0.27289c0.16145,1.5759 -0.21035,2.99375 -1.11541,4.25356c-0.09053,0.12579 -0.22196,0.21623 -0.3718,0.25583c-2.42525,0.61058 -2.73224,-3.20979 -2.5037,-4.60149" fill="none" stroke="#e08383" stroke-width="2"/><path d="M242.74254,142.03695c-0.94144,0.79818 -1.93747,1.60547 -2.98807,2.42184c-2.78341,2.1626 -4.7277,4.27744 -6.3957,7.21776c-0.06594,0.11825 -0.47299,0.74929 -1.22115,1.89313c-0.71632,1.09381 -1.09381,2.32405 -1.13246,3.69074c0,0.14253 -0.10717,0.26225 -0.24882,0.27799c-0.14165,0.01574 -0.27249,-0.07754 -0.30377,-0.21659c-0.49801,-1.94771 0.45708,-4.9733 0.89369,-6.92441c0.35475,-1.57817 1.09494,-3.1086 2.22059,-4.59126c0.64355,-0.84822 1.0813,-1.47243 1.31325,-1.87266c0.37294,-0.64355 0.7402,-1.31439 1.10177,-2.01252c2.33087,-0.33201 4.58443,-0.29335 6.76068,0.11597z" fill="#fb8b82" stroke="none" stroke-width="1"/><path d="M222.83768,176.54591c-0.55713,2.64696 -2.19217,3.80786 -4.90508,3.48267c-1.05742,-0.12621 -2.64015,-1.68164 -2.99148,-2.61285c-0.21376,-0.56624 -0.32746,-1.16999 -0.3411,-1.81127c0.71632,-3.17909 2.8141,-4.2638 6.29336,-3.25413c1.1427,0.33087 1.29961,0.9585 1.66459,2.08073c0.22058,0.67539 0.31382,1.38034 0.27971,2.11485z" fill="#c00808" stroke="none" stroke-width="1"/><path d="M257.21414,176.69942c-0.19102,1.35419 -0.87322,1.87607 -2.03639,2.62991c-2.17624,1.41558 -3.26437,0.85617 -5.1916,-0.49801c-0.38204,-0.26834 -0.72541,-0.59238 -1.03013,-0.97214c-0.18419,-1.30643 -0.43661,-3.76237 0.75725,-4.69018c3.1211,-2.42184 8.13874,-0.9892 7.50088,3.53043z" fill="#c00808" stroke="none" stroke-width="1"/><path d="M242.73427,176.28667c0.09778,0.84366 -0.0216,1.6157 -0.35816,2.3161c-0.02824,0.06113 -0.07834,0.10877 -0.13986,0.13303l-1.41899,0.5867c-0.11176,0.04669 -0.18897,0.15007 -0.20126,0.26947c-0.2456,2.54805 -0.76748,6.43322 -3.56454,7.4463c-3.17227,1.15293 -3.94657,-4.96647 -4.05231,-6.88007c-0.02075,-0.3795 -0.28457,-0.70134 -0.65151,-0.79477c-0.68448,-0.17282 -1.16089,-0.56395 -1.42923,-1.17339c-0.19784,-0.94486 -0.30358,-2.81752 0.94827,-3.04265c0.156,-0.0276 0.31591,0.01962 0.43189,0.12756c0.11597,0.10793 0.17456,0.26404 0.15822,0.42163c-0.45025,4.22628 2.71178,1.91018 4.34226,0.69244c0.08747,-0.06484 0.21038,-0.04985 0.2797,0.03411c0.99261,1.17681 2.10802,2.63332 3.51678,1.2689c0.09096,-0.08868 0.1353,-0.1967 0.13303,-0.32404l-0.00682,-1.29961c-0.00454,-0.29692 0.19856,-0.55684 0.48777,-0.62422c0.94827,-0.22286 1.45652,0.05799 1.52474,0.84253zM234.65011,179.783c-0.22854,1.39171 0.07845,5.21207 2.5037,4.60149c0.14984,-0.0396 0.28127,-0.13004 0.3718,-0.25583c0.90506,-1.25981 1.27687,-2.67766 1.11541,-4.25356c-0.01074,-0.11184 -0.0724,-0.2125 -0.16714,-0.27289l-1.23138,-0.7743c-0.1137,-0.07277 -0.23308,-0.08642 -0.35816,-0.04094l-2.00228,0.71973c-0.12223,0.04454 -0.21083,0.15009 -0.23195,0.2763z" fill="#c00808" stroke="none" stroke-width="1"/><path d="M237.15381,184.38449c-2.42525,0.61058 -2.73224,-3.20979 -2.5037,-4.60149c0.02112,-0.1262 0.10972,-0.23175 0.23195,-0.2763l2.00228,-0.71973c0.12508,-0.04548 0.24446,-0.03183 0.35816,0.04094l1.23138,0.7743c0.09474,0.06038 0.1564,0.16105 0.16714,0.27289c0.16145,1.5759 -0.21035,2.99375 -1.11541,4.25356c-0.09053,0.12579 -0.22196,0.21623 -0.3718,0.25583z" fill="#fffefe" stroke="none" stroke-width="1"/></g></g></svg>