<svg version="1.1" xmlns="http://www.w3.org/2000/svg" xmlns:xlink="http://www.w3.org/1999/xlink" width="65.61834" height="69.21788" viewBox="0,0,65.61834,69.21788"><g transform="translate(-207.19083,-143.95394)"><g data-paper-data="{&quot;isPaintingLayer&quot;:true}" fill-rule="nonzero" stroke-linecap="butt" stroke-linejoin="miter" stroke-miterlimit="10" stroke-dasharray="" stroke-dashoffset="0" style="mix-blend-mode: normal"><path d="M208.69083,179.99997c0,-17.49187 14.01758,-31.67179 31.30919,-31.67179c17.29156,0 31.30915,14.17993 31.30915,31.67179c0,17.49187 -14.01759,31.67185 -31.30915,31.67185c-17.29156,0 -31.30919,-14.17997 -31.30919,-31.67185z" fill="#faefa5" stroke="#dba310" stroke-width="3"/><path d="M240.73042,149.53242l-0.53589,2.05034" fill="none" stroke="#bc9f53" stroke-width="2"/><path d="M240.19454,151.58275l-0.53821,1.43057c-0.02486,0.06368 -0.0699,0.1064 -0.13514,0.12815c-0.43492,0.14445 -0.84576,0.10406 -1.23253,-0.12116c-0.0655,-0.03918 -0.09915,-0.1149 -0.08388,-0.18872l0.17009,-0.83644" fill="none" stroke="#ba9933" stroke-width="2"/><path d="M238.37487,151.99515l0.5289,-1.95015" fill="none" stroke="#bca05c" stroke-width="2"/><path d="M265.16202,163.15549c-0.16775,0.72383 -0.08465,1.39329 0.2493,2.0084c0.0822,0.15062 0.09722,0.3289 0.04136,0.49115c-0.05586,0.16225 -0.17742,0.29351 -0.33493,0.36161l-0.75956,0.32852c-0.08387,0.03573 -0.13203,0.09863 -0.14445,0.18872c-0.03107,0.22678 0.04971,0.42948 0.24232,0.60811c0.39609,0.37279 0.77042,0.76266 1.12302,1.16962c0.46598,0.54055 0.81082,1.8453 0.8947,2.54428c0.14911,1.28146 0.41473,2.57457 0.42172,3.81409c0.01243,1.95713 -0.11417,3.90496 -0.37978,5.84346c-0.29823,2.18081 -1.09972,4.28007 -1.88025,6.37234c-0.27337,0.7347 -0.65781,1.53543 -1.15331,2.40215c-0.70364,1.23331 -1.35835,2.49224 -1.96413,3.7768c-0.59413,1.26282 -1.52144,2.281 -2.28333,3.45528c-0.27337,0.41939 -0.59335,0.78596 -0.95993,1.09973c-1.29311,1.10439 -2.43244,2.38351 -3.97252,3.2549c-0.40385,0.22678 -0.79606,0.51026 -1.17661,0.85043c-1.29854,1.1572 -2.82542,1.96568 -4.58063,2.42545c-0.099,0.02513 -0.19978,-0.0341 -0.22601,-0.13281c-0.33396,-1.29854 -1.17428,-1.7855 -2.52098,-1.46086c-0.1875,0.04457 -0.32711,0.20093 -0.34948,0.39143l-0.20038,1.67289c-0.00932,0.07766 -0.05048,0.13203 -0.12348,0.16309c-1.11681,0.4722 -1.85307,0.73704 -2.20877,0.79451c-2.18237,0.35881 -4.37637,0.49239 -6.58204,0.40075c-0.61277,-0.02563 -1.27214,0.12815 -1.86627,0.08155c-1.25661,-0.09475 -2.91551,-0.28115 -4.97672,-0.55918c-0.09475,-0.01398 -0.15921,-0.06601 -0.19339,-0.1561l-0.19804,-0.54521c-0.10004,-0.27339 -0.34346,-0.46831 -0.63141,-0.50559c-0.46754,-0.06213 -0.93663,-0.01398 -1.40727,0.14445c-0.36968,0.12426 -0.68422,0.18174 -0.94362,0.17242c-1.39096,-0.05592 -2.84484,-0.17241 -4.18688,-0.5452c-0.23765,-0.06524 -0.48929,-0.08 -0.7549,-0.04427c-0.02768,0.00311 -0.05541,0.00073 -0.08155,-0.00699l-0.79217,-0.25629" fill="none" stroke="#fae76d" stroke-width="2"/><path d="M209.24614,183.16023l0.50559,0.41939c0.05453,0.04538 0.12142,0.07229 0.19106,0.07689c0.62675,0.04893 1.91287,-0.1398 1.86627,0.82013c-0.05281,1.07487 -0.5817,1.52455 -1.58668,1.34903c-0.40308,-0.0699 -0.60345,0.10951 -0.53821,0.51958" fill="none" stroke="#fae76d" stroke-width="2"/><path d="M214.76341,172.77109c-0.68966,0.08155 -1.37,0.10951 -1.47718,-0.74092c-0.07766,-0.6182 0.14523,-1.14322 0.66869,-1.57503" fill="none" stroke="#fae76d" stroke-width="2"/><path d="M240.33899,180.70682c1.76143,0.99255 4.00514,2.02004 5.44504,0.226c0.09945,-0.12411 0.25834,-0.18456 0.41513,-0.15795c0.15679,0.02661 0.28684,0.13612 0.33976,0.28609c0.50948,1.44456 0.16465,2.4006 -1.03449,2.86814c-0.7782,0.30289 -2.01306,0.30056 -2.92406,0.34017c-0.24186,0.01013 -0.46272,0.13933 -0.58947,0.34483c-0.94129,1.52377 -2.65146,2.17382 -4.14494,0.86207c-0.35648,-0.30988 -0.44968,-0.86906 -0.92498,-1.20224c-0.06458,-0.04654 -0.14405,-0.06807 -0.22367,-0.06058c-1.12924,0.11028 -2.19867,0.01864 -3.20831,-0.27493" fill="none" stroke="#dbb74c" stroke-width="2"/><path d="M240.19454,151.58275l1.27913,-0.61976c0.08232,-0.04038 0.17009,-0.05825 0.26328,-0.05359l2.63747,0.12348c0.07766,0.00311 0.14368,0.03262 0.19804,0.08854c0.89935,0.93197 -0.16309,1.87559 -0.96692,2.62117" fill="none" stroke="#fae76d" stroke-width="2"/><path d="M213.31419,164.94021c0.39608,-0.76577 0.8248,-1.52222 1.28612,-2.26935c0.28891,-0.46754 0.70519,-0.98711 1.24884,-1.55872c0.69121,-0.72383 1.33038,-1.49426 1.91752,-2.31128c0.27803,-0.38677 0.59646,-0.71761 0.95527,-0.99254c1.07643,-0.82712 2.13189,-1.81735 3.16637,-2.52564c1.78939,-1.22554 3.52052,-2.29031 5.62444,-3.11977c1.13467,-0.44735 2.32061,-1.01352 3.38771,-1.35835c2.55515,-0.82479 5.06449,-1.24806 7.52799,-1.26981c0.38677,-0.00311 0.5452,0.16698 0.4753,0.51025" fill="none" stroke="#efcb53" stroke-width="2"/><path d="M209.24614,183.16023c-0.3192,-4.41521 0.07689,-8.99119 1.62396,-13.15476c0.7013,-1.88724 1.4795,-3.57177 2.44409,-5.06525" fill="none" stroke="#efc94a" stroke-width="2"/><path d="M209.24614,183.16023l0.43803,3.18501" fill="none" stroke="#edc32a" stroke-width="2"/><path d="M220.30164,203.7591c-0.81547,-0.4986 -1.51212,-0.87838 -2.09926,-1.68454c-1.08109,-1.47717 -2.43012,-2.53962 -3.25258,-3.77448c-2.33459,-3.51352 -4.55733,-7.73069 -5.26563,-11.95485" fill="none" stroke="#efc94a" stroke-width="2"/><path d="M262.08885,200.90494c-0.4753,0.84965 -0.85974,1.38553 -1.15331,1.60765c-1.03138,0.7782 -2.0348,1.59211 -3.01026,2.44176c-0.56074,0.48928 -1.13002,0.89547 -1.70783,1.21855c-2.11557,1.17739 -3.49722,1.89733 -4.14494,2.15984c-2.274,0.9211 -4.60782,1.6558 -7.00143,2.20411c-3.04754,0.69898 -6.0182,0.42638 -9.09603,0.20969c-1.09507,-0.07766 -2.0845,-0.23687 -2.96832,-0.47763c-2.5303,-0.69121 -4.96585,-1.6325 -7.30665,-2.82387c-1.47018,-0.75024 -2.70505,-1.21156 -3.88632,-2.44409c-0.48229,-0.50326 -0.98788,-0.8178 -1.51212,-1.24185" fill="none" stroke="#edc32a" stroke-width="2"/><path d="M266.94907,194.58851c-0.73004,1.12769 -1.4531,2.25226 -2.16916,3.37373c-0.46754,0.73159 -1.36456,1.71249 -2.69106,2.94269" fill="none" stroke="#f1d283" stroke-width="2"/><path d="M265.16202,163.15549c0.7013,1.31408 1.55872,2.56758 2.1412,3.87001c1.3933,3.11744 2.15519,5.10952 2.61185,7.82621c0.15999,0.95061 0.26405,1.822 0.31221,2.61417c0.16465,2.68408 0.07145,5.35728 -0.2796,8.01961c-0.18872,1.42592 -0.74092,2.86581 -1.1603,4.28706c-0.47996,1.63095 -1.23253,3.20364 -1.83831,4.81596" fill="none" stroke="#edc32a" stroke-width="2"/><path d="M240.73042,149.53242c1.53542,0.10951 3.15472,0.14911 4.5317,0.38909c2.05499,0.35571 4.01835,0.9941 5.89005,1.9152c0.96692,0.4753 2.04102,0.64306 2.94037,1.24185c1.30243,0.86207 2.73067,1.55406 3.90728,2.507c1.01585,0.82324 2.03015,1.64648 3.04289,2.46972c0.34638,0.28115 0.66636,0.63607 0.95992,1.06478c0.62131,0.90712 1.32729,1.74356 2.11791,2.50933c0.49628,0.48229 0.74325,0.94129 1.04147,1.5261" fill="none" stroke="#efc94a" stroke-width="2"/><path d="M243.60555,153.74259c-1.98743,1.3001 -4.10766,1.92917 -6.29779,0.89469c-1.57503,-0.74558 -2.25071,-1.2931 -2.36022,-3.06385c-0.01709,-0.26406 0.10563,-0.41473 0.36813,-0.45201c0.92032,-0.1328 1.51911,1.50746 2.48836,1.19758c0.1895,-0.06058 0.37977,-0.16853 0.57083,-0.32386" fill="none" stroke="#fae976" stroke-width="2"/><path d="M243.60555,153.74259c0.21746,-0.13979 0.38055,-0.20115 0.48928,-0.18407c0.08543,0.01398 0.09786,0.05203 0.03728,0.11416l-0.09553,0.09553c-0.0233,0.02486 -0.01942,0.04426 0.01165,0.05824c0.02952,0.01087 0.05824,0.02408 0.08621,0.03961c0.11805,0.06213 0.23532,0.0598 0.35182,-0.00699l0.0932,-0.05359c0.0064,-0.00277 0.01381,-0.00173 0.0192,0.00268c0.00539,0.00441 0.00787,0.01147 0.00643,0.01828c-0.00932,0.02796 -0.01942,0.05592 -0.03029,0.08388c-0.01398,0.03884 -0.00077,0.05824 0.03961,0.05824h0.10251c0.05436,0 0.08311,0.02719 0.08621,0.08155c0.01243,0.39298 0.18329,0.70519 0.51259,0.93663c0.06778,0.04821 0.11642,0.11828 0.13746,0.19804c0.11028,0.44424 0.28191,0.85586 0.51491,1.23486c0.34172,0.55607 0.55064,0.92188 0.62675,1.0974c0.49394,1.14632 0.93042,2.31361 1.30942,3.50188c0.05592,0.17863 0.06913,0.37278 0.03961,0.58248c-0.04194,0.30755 -0.04117,0.50947 0.00233,0.60578c0.2392,0.52657 0.32153,1.07255 0.24697,1.63794c-0.00932,0.07611 -0.00233,0.15067 0.02097,0.22367c0.2097,0.67335 -0.02563,1.4096 -0.03029,1.88491c-0.00311,0.60423 0,1.20924 0.00932,1.81502c0.00466,0.38521 -0.05748,0.76499 -0.1864,1.13933c-0.12581,0.36347 -0.24774,0.73315 -0.36579,1.10905c-0.02175,0.07456 -0.07068,0.10485 -0.14679,0.09087l-0.32619,-0.05592c-0.13448,-0.02219 -0.24786,0.06071 -0.28166,0.20592c-0.03379,0.14521 0.01957,0.32025 0.13254,0.43481c0.02641,0.02641 0.09475,0.03495 0.20503,0.02563c0.03871,-0.00321 0.07709,0.00932 0.10647,0.03474c0.02937,0.02543 0.04726,0.06162 0.04964,0.10039c0.0233,0.38055 -0.07999,0.71373 -0.30988,0.99954c-0.05747,0.07145 -0.0963,0.15067 -0.11649,0.23765c-0.36813,1.54707 -0.99721,2.96599 -1.88724,4.25678c-0.14445,0.2097 -0.57782,0.7013 -1.3001,1.47484c-0.49705,0.53277 -0.93042,1.11681 -1.30009,1.75211c-0.04194,0.07456 -0.1033,0.12581 -0.18407,0.15377c-0.27649,0.09475 -0.46831,0.28814 -0.57549,0.58015c-0.02486,0.0699 -0.04117,0.14135 -0.04893,0.21436c-0.01398,0.16775 -0.12193,0.25784 -0.32386,0.27027c-0.16465,0.00932 -0.49627,-0.01941 -0.99488,-0.0862" fill="none" stroke="#fbef96" stroke-width="2"/><path d="M233.48901,183.93842c-0.82635,-0.34794 -1.18127,-0.92188 -1.06477,-1.72182c0.05359,-0.35415 0.09087,-0.69431 0.33085,-0.87139c0.11713,-0.08668 0.26433,-0.12242 0.40849,-0.0992c0.14416,0.02322 0.27318,0.10346 0.35805,0.22268c0.33784,0.4753 0.66636,0.87139 1.29544,0.91566c0.88226,0.06058 1.69541,-0.12892 2.43943,-0.5685c0.68733,-0.40541 2.28333,-1.4562 3.08249,-1.10904" fill="none" stroke="#dbb955" stroke-width="2"/><path d="M233.48901,183.93842c0.06213,0.2392 0.21979,0.34871 0.47297,0.32852c0.07766,-0.00621 0.14757,0.01242 0.2097,0.05591c0.15222,0.10407 0.32153,0.17008 0.50793,0.19804c0.0379,0.00851 0.06404,0.04324 0.06173,0.08202c-0.00232,0.03877 -0.0324,0.07015 -0.07105,0.07409l-0.10951,0.00233c-0.01388,0.00107 -0.02579,0.01027 -0.03035,0.02341c-0.00456,0.01315 -0.00087,0.02774 0.00938,0.03716c0.02175,0.01709 0.04582,0.03029 0.07223,0.03961c0.07145,0.02175 0.08311,0.06058 0.03495,0.11649c-0.23765,0.27493 -0.54676,0.39842 -0.92731,0.37045c-0.13824,-0.01087 -0.17785,0.05903 -0.11882,0.2097c0.00432,0.00785 0.01275,0.01252 0.0217,0.01202c0.00895,-0.0005 0.01681,-0.00608 0.02024,-0.01435c0.01243,-0.03573 0.03339,-0.0435 0.06291,-0.0233c0.03573,0.02641 0.03262,0.0466 -0.00932,0.06058l-0.39375,0.14212c-0.07922,0.02796 -0.09475,0.07611 -0.0466,0.14445l0.06524,0.09087c0.03418,0.04816 0.02563,0.08621 -0.02563,0.11417c-0.18174,0.10407 -0.37823,0.15455 -0.58947,0.15144c-0.07611,-0.00155 -0.14601,0.01708 -0.20969,0.05591c-1.30631,0.78596 -2.67631,1.04303 -4.10999,0.77121c-0.43958,-0.08388 -0.96226,-0.28658 -1.56804,-0.60811c-0.49705,-0.26406 -0.9941,-0.52889 -1.49115,-0.7945c-0.37279,-0.19805 -0.54287,-0.51957 -0.91566,-0.71529c-2.25692,-1.18205 -4.15348,-2.69106 -5.68968,-4.52704c-0.48773,-0.58248 -0.87838,-1.03837 -1.17195,-1.36767c-0.60345,-0.67801 -0.95294,-1.53775 -1.87093,-2.0713c-0.06524,-0.03728 -0.09165,-0.09242 -0.07922,-0.16542c0.13669,-0.79839 -0.17319,-1.26282 -0.92964,-1.39329c-0.00929,-0.00155 -0.01789,-0.0039 -0.02563,-0.00699c-0.20348,-0.05747 -0.31065,-0.15067 -0.32153,-0.27959c-0.00621,-0.08232 -0.03883,-0.15223 -0.09786,-0.2097c-0.45977,-0.45977 -0.7215,-1.01041 -0.78518,-1.65192c-0.01136,-0.11453 0.03465,-0.2316 0.11779,-0.29972c0.08315,-0.06812 0.18821,-0.07482 0.26898,-0.01715c0.14135,0.10252 0.45356,0.06834 0.93663,-0.10252" fill="none" stroke="#fbef96" stroke-width="2"/><path d="M213.95492,170.45514c0.32153,-0.14911 0.54753,-0.07533 0.67801,0.22134c0.43026,0.97235 0.47376,1.67056 0.13048,2.09461" fill="none" stroke="#fae976" stroke-width="2"/><path d="M213.95492,170.45514c-0.48928,-0.50482 -0.71762,-1.15797 -0.685,-1.95946c0.02175,-0.48928 0.00699,-0.85664 -0.04427,-1.10206c-0.07611,-0.37124 -0.16154,-0.7448 -0.25629,-1.1207c-0.02199,-0.08658 0.02584,-0.1751 0.10951,-0.2027c0.08543,-0.02952 0.11805,-0.07844 0.09786,-0.14678c-0.01087,-0.04038 -0.02563,-0.04194 -0.04427,-0.00466c-0.00777,0.01864 -0.02796,0.02951 -0.06058,0.03261c-0.05281,0.00466 -0.07145,-0.01786 -0.05591,-0.06757l0.29823,-0.94362" fill="none" stroke="#fbef96" stroke-width="2"/><path d="M262.08885,200.90494c-0.73626,0.13513 -1.19525,-0.37822 -1.37698,-1.54008c-0.4287,-2.75397 1.61696,-5.52658 4.2824,-6.16498c0.54753,-0.13047 0.85043,0.08853 1.33971,0.31687c0.3992,0.18484 0.60422,0.5421 0.6151,1.07177" fill="none" stroke="#fcf0a5" stroke-width="2"/><path d="M229.13091,176.63336l0.01058,0.60569c0.01423,0.81493 -0.29587,1.60214 -0.86205,2.18844c-0.56618,0.5863 -1.34209,0.92368 -2.15702,0.9379l-0.61967,0.01081c-0.81493,0.01423 -1.60214,-0.29586 -2.18844,-0.86204c-0.5863,-0.56618 -0.92368,-1.3421 -0.9379,-2.15703l-0.01057,-0.60568c-0.01423,-0.81493 0.29586,-1.60214 0.86204,-2.18844c0.56618,-0.5863 1.3421,-0.92367 2.15703,-0.9379l0.61966,-0.01081c0.81493,-0.01423 1.60214,0.29586 2.18844,0.86205c0.5863,0.56618 0.92368,1.34209 0.9379,2.15702" fill="none" stroke="#dbb955" stroke-width="2"/><path d="M260.52745,162.37312l0.0143,0.51237c0.0052,0.18651 -0.14175,0.34192 -0.32826,0.34714l-0.29814,0.00834c-0.08956,0.0025 -0.17646,-0.03068 -0.24156,-0.09225c-0.0651,-0.06157 -0.10307,-0.14648 -0.10557,-0.23604l-0.01431,-0.51237c-0.0052,-0.18651 0.14175,-0.34192 0.32826,-0.34714l0.29814,-0.00834c0.08956,-0.0025 0.17646,0.03068 0.24156,0.09225c0.0651,0.06157 0.10307,0.14647 0.10557,0.23604" fill="none" stroke="#fae76d" stroke-width="2"/><path d="M257.23328,176.98826c0,1.91216 -1.55011,3.46227 -3.46227,3.46227c-1.91216,0 -3.46227,-1.55011 -3.46227,-3.46227c0,-1.91216 1.55011,-3.46227 3.46227,-3.46227c1.91216,0 3.46227,1.55011 3.46227,3.46227" fill="none" stroke="#dbb74c" stroke-width="2"/><path d="M214.2415,176.12618c0,-0.03346 0.02712,-0.06058 0.06058,-0.06058l0.35182,-0.00233c0.21103,-0.00086 0.41363,0.04115 0.56311,0.11677c0.14949,0.07562 0.23358,0.17863 0.23372,0.28631v0.19571c0.00031,0.22355 -0.35407,0.40595 -0.79217,0.40774l-0.35182,0.00233c-0.03346,0 -0.06058,-0.02712 -0.06058,-0.06058l-0.00466,-0.88537" fill="none" stroke="#fae76d" stroke-width="2"/><path d="M257.31227,194.89618l0.00442,0.14905c0.00621,0.20964 -0.15869,0.38465 -0.36834,0.39087l-0.8058,0.02392c-0.10068,0.00298 -0.19843,-0.03414 -0.27173,-0.10323c-0.0733,-0.06908 -0.11616,-0.16445 -0.11915,-0.26513l-0.00442,-0.14905c-0.00621,-0.20964 0.15869,-0.38465 0.36834,-0.39087l0.80581,-0.02392c0.10068,-0.00298 0.19842,0.03414 0.27173,0.10322c0.0733,0.06908 0.11616,0.16446 0.11915,0.26514" fill="none" stroke="#fae76d" stroke-width="2"/><path d="M252.82506,196.3709l-0.66403,0.09786c-0.11062,0.01692 -0.22299,-0.01676 -0.30608,-0.09172c-0.08309,-0.07496 -0.12811,-0.18328 -0.12263,-0.29505l0.01631,-0.28891c0.01018,-0.17612 0.14241,-0.321 0.31687,-0.34716l0.7083,-0.10485c0.12043,-0.01843 0.24227,0.02316 0.3263,0.11137c0.08404,0.08821 0.11966,0.21193 0.09541,0.33132l-0.06058,0.29357c-0.0315,0.15316 -0.15524,0.27039 -0.30988,0.29357" fill="none" stroke="#fae76d" stroke-width="2"/><path d="M235.0493,198.63694l0.02712,0.64716c0.02543,0.60682 -0.44589,1.11938 -1.05271,1.14481l-0.53075,0.02225c-0.29142,0.01222 -0.57574,-0.09183 -0.79044,-0.28925c-0.2147,-0.19742 -0.34217,-0.47205 -0.35439,-0.76346l-0.02712,-0.64716c-0.02543,-0.60682 0.44589,-1.11937 1.05271,-1.1448l0.53075,-0.02225c0.29142,-0.01222 0.57574,0.09183 0.79044,0.28924c0.2147,0.19742 0.34218,0.47204 0.3544,0.76346" fill="none" stroke="#fae76d" stroke-width="2"/><path d="M239.13209,184.04327c-0.12141,-0.06196 -0.19686,-0.18773 -0.19439,-0.324c0.00248,-0.13628 0.08245,-0.25922 0.20604,-0.31672c0.22988,-0.10718 0.46521,-0.153 0.70597,-0.13746c0.27337,0.01553 0.35648,0.14912 0.2493,0.40075c-0.20193,0.47686 -0.52423,0.60267 -0.96692,0.37744" fill="none" stroke="#ddbc70" stroke-width="2"/><path d="M242.21225,147.46111l-1.48183,2.0713l-0.53589,2.05034l-0.53821,1.43057c-0.02486,0.06368 -0.0699,0.1064 -0.13514,0.12815c-0.43492,0.14445 -0.84576,0.10406 -1.23253,-0.12116c-0.0655,-0.03918 -0.09915,-0.1149 -0.08388,-0.18872l0.17009,-0.83644l0.5289,-1.95015l1.09274,-2.69805c0.38987,-0.55763 0.8178,-1.04692 1.28378,-1.46786c0.8512,-0.77198 1.33116,-1.19914 1.4399,-1.28146c0.7013,-0.52424 3.04055,-1.25349 3.22928,0.26096c0.00907,0.07479 -0.01092,0.15059 -0.05591,0.21202c-0.44968,0.5918 -1.95248,1.07176 -2.4604,1.26515c-0.35726,0.13669 -0.76422,0.51181 -1.22088,1.12535z" fill="#7c5019" stroke="none" stroke-width="1"/><path d="M238.90376,150.045l-0.5289,1.95015c-0.19106,0.15533 -0.38133,0.26328 -0.57083,0.32386c-0.96925,0.30988 -1.56804,-1.33039 -2.48836,-1.19758c-0.26251,0.03728 -0.38522,0.18795 -0.36813,0.45201c0.10951,1.77075 0.78519,2.31828 2.36022,3.06385c2.19013,1.03448 4.31036,0.40541 6.29779,-0.89469c0.21746,-0.13979 0.38055,-0.20115 0.48928,-0.18407c0.08543,0.01398 0.09786,0.05203 0.03728,0.11416l-0.09553,0.09553c-0.0233,0.02486 -0.01942,0.04426 0.01165,0.05824c0.02952,0.01087 0.05824,0.02408 0.08621,0.03961c0.11805,0.06213 0.23532,0.0598 0.35182,-0.00699l0.0932,-0.05359c0.0064,-0.00277 0.01381,-0.00173 0.0192,0.00268c0.00539,0.00441 0.00787,0.01147 0.00643,0.01828c-0.00932,0.02796 -0.01942,0.05592 -0.03029,0.08388c-0.01398,0.03884 -0.00077,0.05824 0.03961,0.05824h0.10251c0.05436,0 0.08311,0.02719 0.08621,0.08155c0.01243,0.39298 0.18329,0.70519 0.51259,0.93663c0.06778,0.04821 0.11642,0.11828 0.13746,0.19804c0.11028,0.44424 0.28191,0.85586 0.51491,1.23486c0.34172,0.55607 0.55064,0.92188 0.62675,1.0974c0.49394,1.14632 0.93042,2.31361 1.30942,3.50188c0.05592,0.17863 0.06913,0.37278 0.03961,0.58248c-0.04194,0.30755 -0.04117,0.50947 0.00233,0.60578c0.2392,0.52657 0.32153,1.07255 0.24697,1.63794c-0.00932,0.07611 -0.00233,0.15067 0.02097,0.22367c0.2097,0.67335 -0.02563,1.4096 -0.03029,1.88491c-0.00311,0.60423 0,1.20924 0.00932,1.81502c0.00466,0.38521 -0.05748,0.76499 -0.1864,1.13933c-0.12581,0.36347 -0.24774,0.73315 -0.36579,1.10905c-0.02175,0.07456 -0.07068,0.10485 -0.14679,0.09087l-0.32619,-0.05592c-0.13448,-0.02219 -0.24786,0.06071 -0.28166,0.20592c-0.03379,0.14521 0.01957,0.32025 0.13254,0.43481c0.02641,0.02641 0.09475,0.03495 0.20503,0.02563c0.03871,-0.00321 0.07709,0.00932 0.10647,0.03474c0.02937,0.02543 0.04726,0.06162 0.04964,0.10039c0.0233,0.38055 -0.07999,0.71373 -0.30988,0.99954c-0.05747,0.07145 -0.0963,0.15067 -0.11649,0.23765c-0.36813,1.54707 -0.99721,2.96599 -1.88724,4.25678c-0.14445,0.2097 -0.57782,0.7013 -1.3001,1.47484c-0.49705,0.53277 -0.93042,1.11681 -1.30009,1.75211c-0.04194,0.07456 -0.1033,0.12581 -0.18407,0.15377c-0.27649,0.09475 -0.46831,0.28814 -0.57549,0.58015c-0.02486,0.0699 -0.04117,0.14135 -0.04893,0.21436c-0.01398,0.16775 -0.12193,0.25784 -0.32386,0.27027c-0.16465,0.00932 -0.49627,-0.01941 -0.99488,-0.0862c-0.79916,-0.34716 -2.39516,0.70364 -3.08249,1.10904c-0.74402,0.43958 -1.55716,0.62908 -2.43943,0.5685c-0.62908,-0.04427 -0.9576,-0.44036 -1.29544,-0.91566c-0.08487,-0.11921 -0.21389,-0.19946 -0.35805,-0.22268c-0.14416,-0.02322 -0.29136,0.01252 -0.40849,0.0992c-0.23998,0.17708 -0.27726,0.51724 -0.33085,0.87139c-0.11649,0.79994 0.23843,1.37388 1.06477,1.72182c0.06213,0.2392 0.21979,0.34871 0.47297,0.32852c0.07766,-0.00621 0.14757,0.01242 0.2097,0.05591c0.15222,0.10407 0.32153,0.17008 0.50793,0.19804c0.0379,0.00851 0.06404,0.04324 0.06173,0.08202c-0.00232,0.03877 -0.0324,0.07015 -0.07105,0.07409l-0.10951,0.00233c-0.01388,0.00107 -0.02579,0.01027 -0.03035,0.02341c-0.00456,0.01315 -0.00087,0.02774 0.00938,0.03716c0.02175,0.01709 0.04582,0.03029 0.07223,0.03961c0.07145,0.02175 0.08311,0.06058 0.03495,0.11649c-0.23765,0.27493 -0.54676,0.39842 -0.92731,0.37045c-0.13824,-0.01087 -0.17785,0.05903 -0.11882,0.2097c0.00432,0.00785 0.01275,0.01252 0.0217,0.01202c0.00895,-0.0005 0.01681,-0.00608 0.02024,-0.01435c0.01243,-0.03573 0.03339,-0.0435 0.06291,-0.0233c0.03573,0.02641 0.03262,0.0466 -0.00932,0.06058l-0.39375,0.14212c-0.07922,0.02796 -0.09475,0.07611 -0.0466,0.14445l0.06524,0.09087c0.03418,0.04816 0.02563,0.08621 -0.02563,0.11417c-0.18174,0.10407 -0.37823,0.15455 -0.58947,0.15144c-0.07611,-0.00155 -0.14601,0.01708 -0.20969,0.05591c-1.30631,0.78596 -2.67631,1.04303 -4.10999,0.77121c-0.43958,-0.08388 -0.96226,-0.28658 -1.56804,-0.60811c-0.49705,-0.26406 -0.9941,-0.52889 -1.49115,-0.7945c-0.37279,-0.19805 -0.54287,-0.51957 -0.91566,-0.71529c-2.25692,-1.18205 -4.15348,-2.69106 -5.68968,-4.52704c-0.48773,-0.58248 -0.87838,-1.03837 -1.17195,-1.36767c-0.60345,-0.67801 -0.95294,-1.53775 -1.87093,-2.0713c-0.06524,-0.03728 -0.09165,-0.09242 -0.07922,-0.16542c0.13669,-0.79839 -0.17319,-1.26282 -0.92964,-1.39329c-0.00929,-0.00155 -0.01789,-0.0039 -0.02563,-0.00699c-0.20348,-0.05747 -0.31065,-0.15067 -0.32153,-0.27959c-0.00621,-0.08232 -0.03883,-0.15223 -0.09786,-0.2097c-0.45977,-0.45977 -0.7215,-1.01041 -0.78518,-1.65192c-0.01136,-0.11453 0.03465,-0.2316 0.11779,-0.29972c0.08315,-0.06812 0.18821,-0.07482 0.26898,-0.01715c0.14135,0.10252 0.45356,0.06834 0.93663,-0.10252c0.34328,-0.42405 0.29978,-1.12225 -0.13048,-2.09461c-0.13047,-0.29667 -0.35648,-0.37046 -0.67801,-0.22134c-0.48928,-0.50482 -0.71762,-1.15797 -0.685,-1.95946c0.02175,-0.48928 0.00699,-0.85664 -0.04427,-1.10206c-0.07611,-0.37124 -0.16154,-0.7448 -0.25629,-1.1207c-0.02199,-0.08658 0.02584,-0.1751 0.10951,-0.2027c0.08543,-0.02952 0.11805,-0.07844 0.09786,-0.14678c-0.01087,-0.04038 -0.02563,-0.04194 -0.04427,-0.00466c-0.00777,0.01864 -0.02796,0.02951 -0.06058,0.03261c-0.05281,0.00466 -0.07145,-0.01786 -0.05591,-0.06757l0.29823,-0.94362c0.39608,-0.76577 0.8248,-1.52222 1.28612,-2.26935c0.28891,-0.46754 0.70519,-0.98711 1.24884,-1.55872c0.69121,-0.72383 1.33038,-1.49426 1.91752,-2.31128c0.27803,-0.38677 0.59646,-0.71761 0.95527,-0.99254c1.07643,-0.82712 2.13189,-1.81735 3.16637,-2.52564c1.78939,-1.22554 3.52052,-2.29031 5.62444,-3.11977c1.13467,-0.44735 2.32061,-1.01352 3.38771,-1.35835c2.55515,-0.82479 5.06449,-1.24806 7.52799,-1.26981c0.38677,-0.00311 0.5452,0.16698 0.4753,0.51025zM229.13091,176.63336c-0.01423,-0.81493 -0.3516,-1.59084 -0.9379,-2.15702c-0.5863,-0.56618 -1.37351,-0.87627 -2.18844,-0.86205l-0.61966,0.01081c-0.81493,0.01423 -1.59084,0.3516 -2.15703,0.9379c-0.56618,0.5863 -0.87627,1.37351 -0.86204,2.18844l0.01057,0.60568c0.01423,0.81493 0.3516,1.59084 0.9379,2.15703c0.5863,0.56618 1.37351,0.87627 2.18844,0.86204l0.61967,-0.01081c0.81493,-0.01423 1.59083,-0.3516 2.15702,-0.9379c0.56618,-0.5863 0.87628,-1.37351 0.86205,-2.18844z" fill="#fbf09f" stroke="none" stroke-width="1"/><path d="M240.73042,149.53242c1.53542,0.10951 3.15472,0.14911 4.5317,0.38909c2.05499,0.35571 4.01835,0.9941 5.89005,1.9152c0.96692,0.4753 2.04102,0.64306 2.94037,1.24185c1.30243,0.86207 2.73067,1.55406 3.90728,2.507c1.01585,0.82324 2.03015,1.64648 3.04289,2.46972c0.34638,0.28115 0.66636,0.63607 0.95992,1.06478c0.62131,0.90712 1.32729,1.74356 2.11791,2.50933c0.49628,0.48229 0.74325,0.94129 1.04147,1.5261c-0.16775,0.72383 -0.08465,1.39329 0.2493,2.0084c0.0822,0.15062 0.09722,0.3289 0.04136,0.49115c-0.05586,0.16225 -0.17742,0.29351 -0.33493,0.36161l-0.75956,0.32852c-0.08387,0.03573 -0.13203,0.09863 -0.14445,0.18872c-0.03107,0.22678 0.04971,0.42948 0.24232,0.60811c0.39609,0.37279 0.77042,0.76266 1.12302,1.16962c0.46598,0.54055 0.81082,1.8453 0.8947,2.54428c0.14911,1.28146 0.41473,2.57457 0.42172,3.81409c0.01243,1.95713 -0.11417,3.90496 -0.37978,5.84346c-0.29823,2.18081 -1.09972,4.28007 -1.88025,6.37234c-0.27337,0.7347 -0.65781,1.53543 -1.15331,2.40215c-0.70364,1.23331 -1.35835,2.49224 -1.96413,3.7768c-0.59413,1.26282 -1.52144,2.281 -2.28333,3.45528c-0.27337,0.41939 -0.59335,0.78596 -0.95993,1.09973c-1.29311,1.10439 -2.43244,2.38351 -3.97252,3.2549c-0.40385,0.22678 -0.79606,0.51026 -1.17661,0.85043c-1.29854,1.1572 -2.82542,1.96568 -4.58063,2.42545c-0.099,0.02513 -0.19978,-0.0341 -0.22601,-0.13281c-0.33396,-1.29854 -1.17428,-1.7855 -2.52098,-1.46086c-0.1875,0.04457 -0.32711,0.20093 -0.34948,0.39143l-0.20038,1.67289c-0.00932,0.07766 -0.05048,0.13203 -0.12348,0.16309c-1.11681,0.4722 -1.85307,0.73704 -2.20877,0.79451c-2.18237,0.35881 -4.37637,0.49239 -6.58204,0.40075c-0.61277,-0.02563 -1.27214,0.12815 -1.86627,0.08155c-1.25661,-0.09475 -2.91551,-0.28115 -4.97672,-0.55918c-0.09475,-0.01398 -0.15921,-0.06601 -0.19339,-0.1561l-0.19804,-0.54521c-0.10004,-0.27339 -0.34346,-0.46831 -0.63141,-0.50559c-0.46754,-0.06213 -0.93663,-0.01398 -1.40727,0.14445c-0.36968,0.12426 -0.68422,0.18174 -0.94362,0.17242c-1.39096,-0.05592 -2.84484,-0.17241 -4.18688,-0.5452c-0.23765,-0.06524 -0.48929,-0.08 -0.7549,-0.04427c-0.02768,0.00311 -0.05541,0.00073 -0.08155,-0.00699l-0.79217,-0.25629c-0.81547,-0.4986 -1.51212,-0.87838 -2.09926,-1.68454c-1.08109,-1.47717 -2.43012,-2.53962 -3.25258,-3.77448c-2.33459,-3.51352 -4.55733,-7.73069 -5.26563,-11.95485c-0.06524,-0.41007 0.13514,-0.58947 0.53821,-0.51958c1.00498,0.17552 1.53387,-0.27416 1.58668,-1.34903c0.0466,-0.95993 -1.23952,-0.7712 -1.86627,-0.82013c-0.06964,-0.00459 -0.13652,-0.03151 -0.19106,-0.07689l-0.50559,-0.41939c-0.3192,-4.41521 0.07689,-8.99119 1.62396,-13.15476c0.7013,-1.88724 1.4795,-3.57177 2.44409,-5.06525l-0.29823,0.94362c-0.01553,0.0497 0.00311,0.07223 0.05591,0.06757c0.03262,-0.00311 0.05281,-0.01397 0.06058,-0.03261c0.01864,-0.03728 0.0334,-0.03572 0.04427,0.00466c0.0202,0.06834 -0.01243,0.11727 -0.09786,0.14678c-0.08366,0.0276 -0.1315,0.11612 -0.10951,0.2027c0.09475,0.3759 0.18018,0.74946 0.25629,1.1207c0.05126,0.24542 0.06601,0.61277 0.04427,1.10206c-0.03262,0.80149 0.19571,1.45464 0.685,1.95946c-0.52346,0.43181 -0.74635,0.95683 -0.66869,1.57503c0.10718,0.85043 0.78752,0.82246 1.47718,0.74092c-0.48307,0.17086 -0.79528,0.20503 -0.93663,0.10252c-0.08077,-0.05767 -0.18583,-0.05097 -0.26898,0.01715c-0.08315,0.06812 -0.12915,0.18519 -0.11779,0.29972c0.06368,0.6415 0.32541,1.19215 0.78518,1.65192c0.05902,0.05747 0.09164,0.12737 0.09786,0.2097c0.01087,0.12892 0.11805,0.22212 0.32153,0.27959c0.00774,0.00309 0.01635,0.00544 0.02563,0.00699c0.75645,0.13047 1.06633,0.5949 0.92964,1.39329c-0.01243,0.073 0.01398,0.12814 0.07922,0.16542c0.91799,0.53356 1.26748,1.39329 1.87093,2.0713c0.29357,0.3293 0.68422,0.78519 1.17195,1.36767c1.53619,1.83598 3.43276,3.34499 5.68968,4.52704c0.37279,0.19572 0.54287,0.51724 0.91566,0.71529c0.49705,0.26561 0.9941,0.53045 1.49115,0.7945c0.60578,0.32153 1.12846,0.52424 1.56804,0.60811c1.43368,0.27183 2.80368,0.01475 4.10999,-0.77121c0.06368,-0.03884 0.13358,-0.05747 0.20969,-0.05591c0.21124,0.00311 0.40774,-0.04737 0.58947,-0.15144c0.05126,-0.02796 0.05981,-0.06601 0.02563,-0.11417l-0.06524,-0.09087c-0.04816,-0.06834 -0.03262,-0.11649 0.0466,-0.14445l0.39375,-0.14212c0.04194,-0.01398 0.04505,-0.03418 0.00932,-0.06058c-0.02952,-0.0202 -0.05048,-0.01243 -0.06291,0.0233c-0.00342,0.00828 -0.0113,0.01386 -0.02024,0.01435c-0.00895,0.0005 -0.01738,-0.00418 -0.0217,-0.01202c-0.05902,-0.15067 -0.01942,-0.22057 0.11882,-0.2097c0.38055,0.02796 0.68966,-0.09552 0.92731,-0.37045c0.04816,-0.05592 0.0365,-0.09475 -0.03495,-0.11649c-0.02641,-0.00932 -0.05048,-0.02253 -0.07223,-0.03961c-0.01024,-0.00942 -0.01393,-0.02401 -0.00938,-0.03716c0.00456,-0.01315 0.01647,-0.02235 0.03035,-0.02341l0.10951,-0.00233c0.03865,-0.00394 0.06873,-0.03532 0.07105,-0.07409c0.00232,-0.03877 -0.02382,-0.07351 -0.06173,-0.08202c-0.1864,-0.02796 -0.35571,-0.09397 -0.50793,-0.19804c-0.06213,-0.0435 -0.13203,-0.06213 -0.2097,-0.05591c-0.25319,0.0202 -0.41084,-0.08931 -0.47297,-0.32852c1.00964,0.29357 2.07907,0.38521 3.20831,0.27493c0.07962,-0.00749 0.15909,0.01404 0.22367,0.06058c0.4753,0.33318 0.5685,0.89236 0.92498,1.20224c1.49348,1.31175 3.20365,0.6617 4.14494,-0.86207c0.12674,-0.2055 0.3476,-0.3347 0.58947,-0.34483c0.911,-0.03961 2.14586,-0.03728 2.92406,-0.34017c1.19914,-0.46754 1.54397,-1.42359 1.03449,-2.86814c-0.05292,-0.14998 -0.18297,-0.25948 -0.33976,-0.28609c-0.15679,-0.02661 -0.31569,0.03384 -0.41513,0.15795c-1.4399,1.79404 -3.68362,0.76655 -5.44504,-0.226c0.4986,0.06679 0.83023,0.09552 0.99488,0.0862c0.20193,-0.01243 0.30988,-0.10251 0.32386,-0.27027c0.00777,-0.073 0.02408,-0.14446 0.04893,-0.21436c0.10718,-0.29201 0.299,-0.4854 0.57549,-0.58015c0.08077,-0.02796 0.14212,-0.07922 0.18407,-0.15377c0.36968,-0.6353 0.80304,-1.21933 1.30009,-1.75211c0.72227,-0.77354 1.15564,-1.26514 1.3001,-1.47484c0.89003,-1.29078 1.51911,-2.70971 1.88724,-4.25678c0.0202,-0.08698 0.05902,-0.1662 0.11649,-0.23765c0.22988,-0.28581 0.33318,-0.61899 0.30988,-0.99954c-0.00238,-0.03877 -0.02026,-0.07496 -0.04964,-0.10039c-0.02937,-0.02543 -0.06775,-0.03795 -0.10647,-0.03474c-0.11028,0.00932 -0.17862,0.00078 -0.20503,-0.02563c-0.11298,-0.11456 -0.16634,-0.2896 -0.13254,-0.43481c0.03379,-0.14521 0.14718,-0.2281 0.28166,-0.20592l0.32619,0.05592c0.07611,0.01398 0.12504,-0.01631 0.14679,-0.09087c0.11805,-0.3759 0.23998,-0.74558 0.36579,-1.10905c0.12892,-0.37434 0.19106,-0.75411 0.1864,-1.13933c-0.00932,-0.60578 -0.01243,-1.21079 -0.00932,-1.81502c0.00466,-0.4753 0.23998,-1.21156 0.03029,-1.88491c-0.0233,-0.073 -0.03029,-0.14756 -0.02097,-0.22367c0.07456,-0.56539 -0.00777,-1.11138 -0.24697,-1.63794c-0.0435,-0.09631 -0.04427,-0.29823 -0.00233,-0.60578c0.02952,-0.2097 0.01631,-0.40385 -0.03961,-0.58248c-0.379,-1.18826 -0.81547,-2.35555 -1.30942,-3.50188c-0.07611,-0.17552 -0.28503,-0.54132 -0.62675,-1.0974c-0.23299,-0.379 -0.40463,-0.79062 -0.51491,-1.23486c-0.02104,-0.07976 -0.06968,-0.14982 -0.13746,-0.19804c-0.3293,-0.23144 -0.50016,-0.54365 -0.51259,-0.93663c-0.00311,-0.05436 -0.03185,-0.08155 -0.08621,-0.08155h-0.10251c-0.04038,0 -0.05359,-0.01941 -0.03961,-0.05824c0.01087,-0.02796 0.02097,-0.05592 0.03029,-0.08388c0.00144,-0.00681 -0.00104,-0.01387 -0.00643,-0.01828c-0.00539,-0.00441 -0.0128,-0.00545 -0.0192,-0.00268l-0.0932,0.05359c-0.11649,0.06679 -0.23377,0.06912 -0.35182,0.00699c-0.02796,-0.01553 -0.05669,-0.02874 -0.08621,-0.03961c-0.03107,-0.01398 -0.03495,-0.03339 -0.01165,-0.05824l0.09553,-0.09553c0.06058,-0.06213 0.04815,-0.10018 -0.03728,-0.11416c-0.10873,-0.01709 -0.27182,0.04427 -0.48928,0.18407c0.80382,-0.74558 1.86626,-1.6892 0.96692,-2.62117c-0.05436,-0.05592 -0.12037,-0.08543 -0.19804,-0.08854l-2.63747,-0.12348c-0.0932,-0.00466 -0.18096,0.0132 -0.26328,0.05359l-1.27913,0.61976zM260.52745,162.37312c-0.0025,-0.08956 -0.04048,-0.17447 -0.10557,-0.23604c-0.0651,-0.06157 -0.15199,-0.09475 -0.24156,-0.09225l-0.29814,0.00834c-0.18651,0.00521 -0.33346,0.16063 -0.32826,0.34714l0.01431,0.51237c0.0025,0.08956 0.04048,0.17448 0.10557,0.23604c0.0651,0.06157 0.15199,0.09475 0.24156,0.09225l0.29814,-0.00834c0.18651,-0.00521 0.33346,-0.16063 0.32826,-0.34714zM257.23328,176.98826c0,-1.91216 -1.55011,-3.46227 -3.46227,-3.46227c-1.91216,0 -3.46227,1.55011 -3.46227,3.46227c0,1.91216 1.55011,3.46227 3.46227,3.46227c1.91216,0 3.46227,-1.55011 3.46227,-3.46227zM214.2415,176.12618l0.00466,0.88537c0,0.03346 0.02712,0.06058 0.06058,0.06058l0.35182,-0.00233c0.4381,-0.00179 0.79248,-0.18419 0.79217,-0.40774v-0.19571c-0.00014,-0.10768 -0.08423,-0.21069 -0.23372,-0.28631c-0.14949,-0.07562 -0.35209,-0.11763 -0.56311,-0.11677l-0.35182,0.00233c-0.03346,0 -0.06058,0.02713 -0.06058,0.06058zM257.31227,194.89618c-0.00299,-0.10068 -0.04584,-0.19606 -0.11915,-0.26514c-0.0733,-0.06908 -0.17104,-0.10621 -0.27173,-0.10322l-0.80581,0.02392c-0.20964,0.00623 -0.37455,0.18123 -0.36834,0.39087l0.00442,0.14905c0.00298,0.10068 0.04585,0.19605 0.11915,0.26513c0.0733,0.06908 0.17105,0.10621 0.27173,0.10323l0.8058,-0.02392c0.20965,-0.00623 0.37455,-0.18123 0.36834,-0.39087zM252.82506,196.3709c0.15464,-0.02318 0.27838,-0.14041 0.30988,-0.29357l0.06058,-0.29357c0.02425,-0.11939 -0.01138,-0.24311 -0.09541,-0.33132c-0.08404,-0.08821 -0.20587,-0.12979 -0.3263,-0.11137l-0.7083,0.10485c-0.17446,0.02616 -0.30669,0.17104 -0.31687,0.34716l-0.01631,0.28891c-0.00548,0.11177 0.03954,0.22009 0.12263,0.29505c0.08309,0.07496 0.19546,0.10864 0.30608,0.09172zM235.0493,198.63694c-0.01221,-0.29142 -0.1397,-0.56604 -0.3544,-0.76346c-0.2147,-0.19742 -0.49902,-0.30147 -0.79044,-0.28924l-0.53075,0.02225c-0.60682,0.02543 -1.07814,0.53798 -1.05271,1.1448l0.02712,0.64716c0.01221,0.29142 0.13969,0.56604 0.35439,0.76346c0.2147,0.19742 0.49903,0.30147 0.79044,0.28925l0.53075,-0.02225c0.60682,-0.02543 1.07814,-0.53799 1.05271,-1.14481z" fill="#fbed8d" stroke="none" stroke-width="1"/><path d="M243.60555,153.74259c-1.98743,1.3001 -4.10766,1.92917 -6.29779,0.89469c-1.57503,-0.74558 -2.25071,-1.2931 -2.36022,-3.06385c-0.01709,-0.26406 0.10563,-0.41473 0.36813,-0.45201c0.92032,-0.1328 1.51911,1.50746 2.48836,1.19758c0.1895,-0.06058 0.37977,-0.16853 0.57083,-0.32386l-0.17009,0.83644c-0.01528,0.07382 0.01838,0.14954 0.08388,0.18872c0.38677,0.22522 0.79761,0.26561 1.23253,0.12116c0.06524,-0.02175 0.11028,-0.06447 0.13514,-0.12815l0.53821,-1.43057l1.27913,-0.61976c0.08232,-0.04038 0.17009,-0.05825 0.26328,-0.05359l2.63747,0.12348c0.07766,0.00311 0.14368,0.03262 0.19804,0.08854c0.89935,0.93197 -0.16309,1.87559 -0.96692,2.62117z" fill="#f8e14c" stroke="none" stroke-width="1"/><path d="M259.91536,163.24097c-0.18651,0.00521 -0.33771,0.00943 -0.33771,0.00943l-0.03317,-1.18779c0,0 0.15119,-0.00422 0.3377,-0.00943l0.29811,-0.00833c0.18651,-0.00521 0.33771,-0.00943 0.33771,-0.00943l0.03317,1.1878c0,0 -0.15119,0.00422 -0.3377,0.00943z" fill="#f8e14c" stroke="none" stroke-width="1"/><path d="M265.16202,163.15549c0.7013,1.31408 1.55872,2.56758 2.1412,3.87001c1.3933,3.11744 2.15519,5.10952 2.61185,7.82621c0.15999,0.95061 0.26405,1.822 0.31221,2.61417c0.16465,2.68408 0.07145,5.35728 -0.2796,8.01961c-0.18872,1.42592 -0.74092,2.86581 -1.1603,4.28706c-0.47996,1.63095 -1.23253,3.20364 -1.83831,4.81596c-0.01087,-0.52967 -0.2159,-0.88693 -0.6151,-1.07177c-0.48928,-0.22833 -0.79218,-0.44734 -1.33971,-0.31687c-2.66544,0.6384 -4.7111,3.41101 -4.2824,6.16498c0.18174,1.16186 0.64073,1.67521 1.37698,1.54008c-0.4753,0.84965 -0.85974,1.38553 -1.15331,1.60765c-1.03138,0.7782 -2.0348,1.59211 -3.01026,2.44176c-0.56074,0.48928 -1.13002,0.89547 -1.70783,1.21855c-2.11557,1.17739 -3.49722,1.89733 -4.14494,2.15984c-2.274,0.9211 -4.60782,1.6558 -7.00143,2.20411c-3.04754,0.69898 -6.0182,0.42638 -9.09603,0.20969c-1.09507,-0.07766 -2.0845,-0.23687 -2.96832,-0.47763c-2.5303,-0.69121 -4.96585,-1.6325 -7.30665,-2.82387c-1.47018,-0.75024 -2.70505,-1.21156 -3.88632,-2.44409c-0.48229,-0.50326 -0.98788,-0.8178 -1.51212,-1.24185l0.79217,0.25629c0.02614,0.00772 0.05386,0.0101 0.08155,0.00699c0.26561,-0.03573 0.51725,-0.02097 0.7549,0.04427c1.34204,0.37279 2.79591,0.48928 4.18688,0.5452c0.2594,0.00932 0.57394,-0.04816 0.94362,-0.17242c0.47064,-0.15843 0.93973,-0.20658 1.40727,-0.14445c0.28795,0.03728 0.53137,0.2322 0.63141,0.50559l0.19804,0.54521c0.03418,0.09009 0.09864,0.14212 0.19339,0.1561c2.06121,0.27803 3.72011,0.46443 4.97672,0.55918c0.59413,0.0466 1.2535,-0.10718 1.86627,-0.08155c2.20567,0.09164 4.39967,-0.04193 6.58204,-0.40075c0.35571,-0.05747 1.09196,-0.32231 2.20877,-0.79451c0.073,-0.03107 0.11416,-0.08543 0.12348,-0.16309l0.20038,-1.67289c0.02238,-0.19049 0.16198,-0.34686 0.34948,-0.39143c1.3467,-0.32464 2.18703,0.16232 2.52098,1.46086c0.02623,0.09871 0.12701,0.15794 0.22601,0.13281c1.75521,-0.45977 3.28208,-1.26826 4.58063,-2.42545c0.38055,-0.34017 0.77276,-0.62365 1.17661,-0.85043c1.54008,-0.87139 2.67941,-2.15052 3.97252,-3.2549c0.36658,-0.31376 0.68655,-0.68034 0.95993,-1.09973c0.76189,-1.17428 1.6892,-2.19246 2.28333,-3.45528c0.60578,-1.28456 1.26049,-2.5435 1.96413,-3.7768c0.4955,-0.86673 0.87994,-1.66745 1.15331,-2.40215c0.78053,-2.09228 1.58202,-4.19153 1.88025,-6.37234c0.26561,-1.9385 0.39221,-3.88632 0.37978,-5.84346c-0.00699,-1.23952 -0.2726,-2.53262 -0.42172,-3.81409c-0.08387,-0.69898 -0.42871,-2.00373 -0.8947,-2.54428c-0.3526,-0.40696 -0.72693,-0.79683 -1.12302,-1.16962c-0.19261,-0.17863 -0.27338,-0.38133 -0.24232,-0.60811c0.01243,-0.09009 0.06058,-0.153 0.14445,-0.18872l0.75956,-0.32852c0.15751,-0.0681 0.27907,-0.19935 0.33493,-0.36161c0.05586,-0.16225 0.04084,-0.34052 -0.04136,-0.49115c-0.33396,-0.6151 -0.41706,-1.28457 -0.2493,-2.0084z" fill="#f8e14c" stroke="none" stroke-width="1"/><path d="M214.76341,172.77109c-0.68966,0.08155 -1.37,0.10951 -1.47718,-0.74092c-0.07766,-0.6182 0.14523,-1.14322 0.66869,-1.57503c0.32153,-0.14911 0.54753,-0.07533 0.67801,0.22134c0.43026,0.97235 0.47376,1.67056 0.13048,2.09461z" fill="#f8e14c" stroke="none" stroke-width="1"/><path d="M250.30874,176.98826c0,-1.91216 1.55011,-3.46227 3.46227,-3.46227c1.91216,0 3.46227,1.55011 3.46227,3.46227c0,1.91216 -1.55011,3.46227 -3.46227,3.46227c-1.91216,0 -3.46227,-1.55011 -3.46227,-3.46227z" fill="#ba810b" stroke="none" stroke-width="1"/><path d="M214.2415,176.12618c0,-0.03346 0.02712,-0.06058 0.06058,-0.06058l0.35182,-0.00233c0.21103,-0.00086 0.41363,0.04115 0.56311,0.11677c0.14949,0.07562 0.23358,0.17863 0.23372,0.28631v0.19571c0.00031,0.22355 -0.35407,0.40595 -0.79217,0.40774l-0.35182,0.00233c-0.03346,0 -0.06058,-0.02712 -0.06058,-0.06058z" fill="#f8e14c" stroke="none" stroke-width="1"/><path d="M240.33899,180.70682c1.76143,0.99255 4.00514,2.02004 5.44504,0.226c0.09945,-0.12411 0.25834,-0.18456 0.41513,-0.15795c0.15679,0.02661 0.28684,0.13612 0.33976,0.28609c0.50948,1.44456 0.16465,2.4006 -1.03449,2.86814c-0.7782,0.30289 -2.01306,0.30056 -2.92406,0.34017c-0.24186,0.01013 -0.46272,0.13933 -0.58947,0.34483c-0.94129,1.52377 -2.65146,2.17382 -4.14494,0.86207c-0.35648,-0.30988 -0.44968,-0.86906 -0.92498,-1.20224c-0.06458,-0.04654 -0.14405,-0.06807 -0.22367,-0.06058c-1.12924,0.11028 -2.19867,0.01864 -3.20831,-0.27493c-0.82635,-0.34794 -1.18127,-0.92188 -1.06477,-1.72182c0.05359,-0.35415 0.09087,-0.69431 0.33085,-0.87139c0.11713,-0.08668 0.26433,-0.12242 0.40849,-0.0992c0.14416,0.02322 0.27318,0.10346 0.35805,0.22268c0.33784,0.4753 0.66636,0.87139 1.29544,0.91566c0.88226,0.06058 1.69541,-0.12892 2.43943,-0.5685c0.68733,-0.40541 2.28333,-1.4562 3.08249,-1.10904zM239.13209,184.04327c0.44269,0.22522 0.76499,0.09941 0.96692,-0.37744c0.10718,-0.25163 0.02407,-0.38521 -0.2493,-0.40075c-0.24076,-0.01553 -0.47608,0.03029 -0.70597,0.13746c-0.12358,0.0575 -0.20356,0.18044 -0.20604,0.31672c-0.00248,0.13628 0.07298,0.26205 0.19439,0.324z" fill="#ba810b" stroke="none" stroke-width="1"/><path d="M209.24614,183.16023l0.50559,0.41939c0.05453,0.04538 0.12142,0.07229 0.19106,0.07689c0.62675,0.04893 1.91287,-0.1398 1.86627,0.82013c-0.05281,1.07487 -0.5817,1.52455 -1.58668,1.34903c-0.40308,-0.0699 -0.60345,0.10951 -0.53821,0.51958z" fill="#f8e14c" stroke="none" stroke-width="1"/><path d="M239.13209,184.04327c-0.12141,-0.06196 -0.19686,-0.18773 -0.19439,-0.324c0.00248,-0.13628 0.08245,-0.25922 0.20604,-0.31672c0.22988,-0.10718 0.46521,-0.153 0.70597,-0.13746c0.27337,0.01553 0.35648,0.14912 0.2493,0.40075c-0.20193,0.47686 -0.52423,0.60267 -0.96692,0.37744z" fill="#fff7d5" stroke="none" stroke-width="1"/><path d="M266.94907,194.58851c-0.73004,1.12769 -1.4531,2.25226 -2.16916,3.37373c-0.46754,0.73159 -1.36456,1.71249 -2.69106,2.94269c-0.73626,0.13513 -1.19525,-0.37822 -1.37698,-1.54008c-0.4287,-2.75397 1.61696,-5.52658 4.2824,-6.16498c0.54753,-0.13047 0.85043,0.08853 1.33971,0.31687c0.3992,0.18484 0.60422,0.5421 0.6151,1.07177z" fill="#fffffe" stroke="none" stroke-width="1"/><path d="M256.14255,195.46001c-0.20965,0.00623 -0.37961,0.01127 -0.37961,0.01127l-0.02695,-0.90827c0,0 0.16995,-0.00504 0.37961,-0.01127l0.8058,-0.02392c0.20965,-0.00623 0.37961,-0.01127 0.37961,-0.01127l0.02696,0.90827c0,0 -0.16996,0.00504 -0.37961,0.01127z" fill="#f8e14c" stroke="none" stroke-width="1"/><path d="M252.82506,196.3709l-0.66403,0.09786c-0.11062,0.01692 -0.22299,-0.01676 -0.30608,-0.09172c-0.08309,-0.07496 -0.12811,-0.18328 -0.12263,-0.29505l0.01631,-0.28891c0.01018,-0.17612 0.14241,-0.321 0.31687,-0.34716l0.7083,-0.10485c0.12043,-0.01843 0.24227,0.02316 0.3263,0.11137c0.08404,0.08821 0.11966,0.21193 0.09541,0.33132l-0.06058,0.29357c-0.0315,0.15316 -0.15524,0.27039 -0.30988,0.29357z" fill="#f8e14c" stroke="none" stroke-width="1"/><path d="M233.49294,200.45116c-0.60683,0.02543 -1.09876,0.04605 -1.09876,0.04605l-0.11923,-2.84467c0,0 0.49193,-0.02062 1.09876,-0.04605l0.53075,-0.02225c0.60683,-0.02543 1.09876,-0.04605 1.09876,-0.04605l0.11923,2.84467c0,0 -0.49193,0.02062 -1.09876,0.04605z" fill="#f8e14c" stroke="none" stroke-width="1"/><path d="M222.11665,176.98826c0,-1.91216 1.55011,-3.46227 3.46227,-3.46227c1.91216,0 3.46227,1.55011 3.46227,3.46227c0,1.91216 -1.55011,3.46227 -3.46227,3.46227c-1.91216,0 -3.46227,-1.55011 -3.46227,-3.46227z" fill="#ba810b" stroke="none" stroke-width="1"/></g></g></svg>