<svg version="1.1" xmlns="http://www.w3.org/2000/svg" xmlns:xlink="http://www.w3.org/1999/xlink" width="16.17662" height="22.32692" viewBox="0,0,16.17662,22.32692"><g transform="translate(-232.19741,-166.49219)"><g data-paper-data="{&quot;isPaintingLayer&quot;:true}" fill-rule="nonzero" stroke-linejoin="miter" stroke-miterlimit="10" stroke-dasharray="" stroke-dashoffset="0" style="mix-blend-mode: normal"><path d="M247.87403,180.61879c0,4.25277 -3.3974,7.70032 -7.5883,7.70032c-4.1909,0 -7.58832,-3.44754 -7.58832,-7.70032c0,-4.25277 3.3974,-7.70032 7.58832,-7.70032c4.1909,0 7.5883,3.44754 7.5883,7.70032z" fill="#ef0b0d" stroke="#a72f1c" stroke-width="1" stroke-linecap="butt"/><path d="M242.2871,180.43775c0,0 -0.10526,0.2573 -0.30281,0.33962c-0.21851,0.09105 -0.95169,0.18312 -0.95169,0.18312" fill="none" stroke="#a72f1c" stroke-width="0.5" stroke-linecap="round"/><path d="M236.79866,180.33324c0,0 0.31333,-1.21203 1.43709,-1.37487c1.5669,-0.22707 1.38553,0.27719 1.38553,0.27719" fill="none" stroke="#ab210e" stroke-width="0.5" stroke-linecap="round"/><path d="M243.2525,178.47283c0,0 0.7547,0.04481 1.09005,0.22637c0.70835,0.38349 1.1576,0.76678 1.1576,0.76678" fill="none" stroke="#a72f1c" stroke-width="0.5" stroke-linecap="round"/><path d="M238.99776,179.63349c0,0.4619 -0.38614,0.83633 -0.86247,0.83633c-0.47633,0 -0.86247,-0.37445 -0.86247,-0.83633c0,-0.4619 0.38614,-0.83633 0.86247,-0.83633c0.47633,0 0.86247,0.37443 0.86247,0.83633z" fill="#ab210e" stroke="none" stroke-width="0.5" stroke-linecap="butt"/><path d="M244.88838,179.24784c0,0.3445 -0.28801,0.6238 -0.64329,0.6238c-0.35529,0 -0.64329,-0.2793 -0.64329,-0.6238c0,-0.3445 0.28801,-0.6238 0.64329,-0.6238c0.35529,0 0.64329,0.2793 0.64329,0.6238z" fill="#ab210e" stroke="none" stroke-width="0.5" stroke-linecap="butt"/><path d="M247.72687,170.17969c0,0.07287 -1.46552,1.52035 -2.83045,1.49573c-0.65575,-0.01183 -1.71626,-0.41734 -2.1782,-1.04376c-0.44324,-0.60105 -0.30132,-1.42498 -0.30679,-1.39409c-0.05283,0.29817 -0.51748,1.33139 -0.65013,2.49406c-0.15608,1.36793 0.00589,2.86786 -0.23939,2.86786c-0.5447,0 -1.74009,-1.41486 -0.98627,-5.03379c0.40549,-1.94669 2.28346,-2.82351 2.82816,-2.82351c0.16498,0 -0.04835,0.87072 -0.04835,0.87072c0,0 1.22882,0.25111 2.30143,0.81515c1.13154,0.59505 2.11,1.51066 2.11,1.75161z" fill="#73cf5a" stroke="#62a437" stroke-width="0.5" stroke-linecap="butt"/></g></g></svg>