<svg version="1.1" xmlns="http://www.w3.org/2000/svg" xmlns:xlink="http://www.w3.org/1999/xlink" width="38.65067" height="49.33022" viewBox="0,0,38.65067,49.33022"><defs><linearGradient x1="242.31688" y1="154.58203" x2="242.31688" y2="201.77935" gradientUnits="userSpaceOnUse" id="color-1"><stop offset="0" stop-color="#fdf4d4"/><stop offset="1" stop-color="#ffc549"/></linearGradient></defs><g transform="translate(-220,-152.4911)"><g data-paper-data="{&quot;isPaintingLayer&quot;:true}" fill-rule="nonzero" stroke="none" stroke-linecap="butt" stroke-linejoin="miter" stroke-miterlimit="10" stroke-dasharray="" stroke-dashoffset="0" style="mix-blend-mode: normal"><path d="M237.33735,187.70675c0,3.38308 12.1822,-0.24988 14.33523,1.49252c6.14144,4.97011 6.90367,10.41507 3.92306,10.41507c-0.38764,0 -1.9007,0.79367 -3.88374,0.59865c-2.18351,-0.21473 -4.96748,-1.41354 -8.15097,-1.25759c-5.73893,0.28114 -12.30715,1.83675 -16.83625,1.21011c-3.33847,-0.4619 -5.56901,-4.84845 -5.54278,-4.93408c0.25711,-0.83964 -0.65171,-3.45989 0.93031,-5.52796c1.39484,-1.82338 2.62747,-4.60949 4.98752,-6.9663c5.94004,-5.93189 14.4021,-12.22425 16.60075,-16.24746c1.27538,-2.33376 -1.89351,-2.99296 -4.07834,-3.09487c-0.8513,-2.48504 -7.44612,9.472 -8.99769,8.38537c-6.54056,0.54446 -10.65762,-7.72129 -9.03788,-8.4023c0.12513,-0.05261 4.14015,-5.81866 9.98303,-8.30604c4.10749,-1.74861 10.65141,-0.48983 10.74728,-0.48983c1.97935,0 8.17425,0.83352 9.55868,5.72463c0.51966,1.83594 4.0091,4.94303 3.64683,7.55399c-0.288,2.0757 -2.89585,6.92398 -6.92419,10.97386c-4.85966,4.88565 -11.26086,8.87224 -11.26086,8.87224z" fill="url(#color-1)" stroke-width="0"/><path d="M220,194.93v-4.69c2.09333,-4.92667 4.95,-8.65333 8.57,-11.18c6.28667,-4.39333 10.14,-7.37 11.56,-8.93c0.46,-0.51333 1.2,-1.78 2.22,-3.8c0.44667,-0.88667 0.17333,-1.32667 -0.82,-1.32l-2.59,0.02c-0.90667,0 -1.54333,0.41333 -1.91,1.24c-2.05,4.62 -4.63,7.8 -10.29,6.62c-3.76,-0.78 -6.00667,-3.13333 -6.74,-7.06v-1.11c0.72,-3.49 3.59,-4.1 5.61,-6.51c1.13333,-1.35333 2.14333,-2.28333 3.03,-2.79c6.66,-3.82 13.56333,-3.90333 20.71,-0.25c11.19,5.72 9.02,18.79 -0.05,25.16c-1.56,1.1 -2.5,2.12 -3.67,3.48c-0.23333,0.26667 -0.52333,0.41667 -0.87,0.45l-1.22,0.12c-0.5,0.05333 -0.75333,0.33 -0.76,0.83v0.54c-0.01333,0.52 0.24333,0.77 0.77,0.75c5.96,-0.28 12.27,1.64 14.58,7.43c0.76667,1.90667 0.68667,3.60333 -0.24,5.09c-2.55,4.08 -8.34,3.08 -12.13,0.93c-0.57333,-0.32667 -1.40333,-0.35 -2.49,-0.07c-6.5,1.63 -21.39,5.03 -23.27,-4.95zM242.39,171.21c-3.18667,3.49333 -6.83667,6.63667 -10.95,9.43c-4.17,2.83 -12.36,10.9 -7.36,16.35c3.85,4.2 13.38,1.71 18.08,0.51c2.69,-0.69 4,-0.11 6.33,1.04c2.57,1.28 8.9,1.36 7.16,-3.61c-3.06,-8.71 -17.64,-4.37 -23.64,-2.97c-1.46,0.34 -1.69,-0.04333 -0.69,-1.15c1.19,-1.32 2.69,-2.55 4.36,-3.61c5.56,-3.52 10.63,-7.55667 15.21,-12.11c1.95333,-2.56667 3.02667,-4.30333 3.22,-5.21c1.31,-6.24 -3.11,-11.74 -8.87,-13.59c-5.12,-1.64 -10.05,-1.24333 -14.79,1.19c-0.66667,0.34 -1.21,0.80667 -1.63,1.4c-1.42,2.02667 -3.2,3.89 -5.34,5.59c-0.45576,0.35925 -0.656,0.9521 -0.51,1.51c0.84,3.29 4.23,5.42 7.54,4.24c3.36,-1.2 3.11,-6.48 6.37,-7.89c3,-1.30667 5.59667,-0.65667 7.79,1.95c0.89333,1.05333 0.94333,2.17333 0.15,3.36c-0.70667,1.06667 -1.51667,2.25667 -2.43,3.57z" fill="#946320" stroke-width="1"/></g></g></svg>