<svg version="1.1" xmlns="http://www.w3.org/2000/svg" xmlns:xlink="http://www.w3.org/1999/xlink" width="39" height="50.95315" viewBox="0,0,39,50.95315"><defs><linearGradient x1="240" y1="152.21058" x2="240" y2="203.16372" gradientUnits="userSpaceOnUse" id="color-1"><stop offset="0" stop-color="#fdf4d4"/><stop offset="1" stop-color="#ffc549"/></linearGradient></defs><g transform="translate(-220.5,-152.21058)"><g data-paper-data="{&quot;isPaintingLayer&quot;:true}" fill-rule="nonzero" stroke="none" stroke-width="1" stroke-linecap="butt" stroke-linejoin="miter" stroke-miterlimit="10" stroke-dasharray="" stroke-dashoffset="0" style="mix-blend-mode: normal"><path d="M259.5,164.19093v4.37l-4.34,4.56c-0.20666,0.22 -0.22333,0.45 -0.05,0.69c1.92667,2.76666 3.39,5.84334 4.39,9.23v6.48c-0.66,2.48 -1.57333,4.67 -2.74,6.57c-1.17334,1.90667 -2.91,3.40667 -5.21,4.5c-7.3,3.46667 -14.63667,3.43 -22.01,-0.11c-6.62,-3.18 -6.95,-7.43 -9.04,-13.63v-15.34c1.04,-5.14 3.04,-9.51666 6,-13.13c0.84,-1.03 4.15,-3.65 5.48,-4.2c2.98666,-1.23334 6.09334,-1.89 9.32,-1.97c0.34667,-0.00666 0.66666,0.08 0.96,0.26c0.99334,0.6 2.07,0.83 3.23,0.69c0.3,-0.03917 0.60646,0.01307 0.88,0.15c2.2,1.07333 3.66333,1.56333 4.39,1.47c6.05,-0.74 6.82,5.34 8.74,9.41zM241.09003,193.0865c4.00406,0 6.09533,-2.52426 6.09533,-6.52833c0,-4.00406 -2.6686,-7.39433 -6.67266,-7.39433c-4.00406,0 -6.38399,3.5346 -6.38399,7.53867c0,4.00406 2.95727,6.38399 6.96133,6.38399zM236.4,168.99093l8.84,0.04c0.06075,0 0.11,-0.04925 0.11,-0.11v-0.11c0.01003,-2.32996 -2.00888,-4.228 -4.51,-4.24c-1.20176,-0.00579 -2.35638,0.43353 -3.20973,1.22123c-0.85335,0.7877 -1.33548,1.85924 -1.34027,2.97877v0.11c0,0.06075 0.04925,0.11 0.11,0.11z" fill="url(#color-1)"/><path d="M259.5,164.19093v4.37l-4.34,4.56c-0.20667,0.22 -0.22333,0.45 -0.05,0.69c1.92667,2.76667 3.39,5.84333 4.39,9.23v6.48c-0.66,2.48 -1.57333,4.67 -2.74,6.57c-1.17333,1.90667 -2.91,3.40667 -5.21,4.5c-7.3,3.46667 -14.63667,3.43 -22.01,-0.11c-6.62,-3.18 -6.95,-7.43 -9.04,-13.63v-15.34c1.04,-5.14 3.04,-9.51667 6,-13.13c0.84,-1.03 4.15,-3.65 5.48,-4.2c2.98667,-1.23333 6.09333,-1.89 9.32,-1.97c0.34667,-0.00667 0.66667,0.08 0.96,0.26c0.99333,0.6 2.07,0.83 3.23,0.69c0.3,-0.03917 0.60646,0.01307 0.88,0.15c2.2,1.07333 3.66333,1.56333 4.39,1.47c6.05,-0.74 6.82,5.34 8.74,9.41zM226.43,163.86093c-2.62,4.68 -3.87333,10.24333 -3.76,16.69c0.02667,3.12 0.53333,6.22 1.52,9.3c3.55,11.08 15.27,12.39 25.18,9.28c0.16667,-0.05333 0.29333,-0.17 0.38,-0.35c0.12667,-0.24 0.32333,-0.36 0.59,-0.36c0.68667,-0.00667 1.28,-0.26333 1.78,-0.77c1.46,-1.5 3.01,-2.79 3.71,-4.8c2.03333,-5.86 1.38,-11.13 -1.96,-15.81l-3.59,-3.81c-0.23333,-0.24667 -0.52,-0.38333 -0.86,-0.41c-5.55,-0.45 -9.82,-2.21 -15.16,0.65c-2.00667,1.07333 -2.70333,0.51333 -2.09,-1.68l0.97,-3.44c0.64667,-2.30667 2.03,-4.01333 4.15,-5.12c2.25333,-1.18 4.82333,-1.14333 7.71,0.11l4.44,5.27c0.1416,0.17343 0.34503,0.28763 0.57,0.32l5.45,0.85c0.25874,0.04456 0.50569,-0.1186 0.56,-0.37c0.72,-3.24 0.36,-11.91 -4.92,-11.62c-3.23,0.18 -4.54,-1.35 -7.22,-1.91c-7.62667,-1.6 -13.44333,1.06 -17.45,7.98zM236.4,168.99093l8.84,0.04c0.06075,0 0.11,-0.04925 0.11,-0.11v-0.11c0.01002,-2.32996 -2.00888,-4.228 -4.51,-4.24v0c-1.20176,-0.00579 -2.35639,0.43352 -3.20973,1.22123c-0.85335,0.78771 -1.33548,1.85925 -1.34027,2.97877v0.11c0,0.06075 0.04925,0.11 0.11,0.11z" fill="#9b6121"/><path d="M239.05,177.76093c4.88667,-0.37333 7.67333,1.62 8.36,5.98c0.59,3.73 -0.64,9.4 -5.03,10.31c-3.56,0.74 -6.31,-0.38 -8.36,-3.5c-1.15333,-1.75333 -1.80333,-3.43 -1.95,-5.03c-0.11333,-1.33333 0.40333,-2.64333 1.55,-3.93c1.4,-1.94 3.21,-3.21667 5.43,-3.83zM238.94,180.73093c-1.26667,0.58667 -2.26667,1.43667 -3,2.55c-2.2,3.38 1.99,9.94 5.97,7.94c3.35,-1.68 3.38,-6.52 1.83,-9.52c-0.15001,-0.28667 -0.38316,-0.52331 -0.67,-0.68c-1.03,-0.56 -2.54,-1.72 -3.55,-0.7c-0.16667,0.16667 -0.36,0.30333 -0.58,0.41z" fill="#9b6121"/></g></g></svg>